<svg width="226" height="226" viewBox="0 0 226 226" fill="none" xmlns="http://www.w3.org/2000/svg">
<g opacity="0.2">
<path d="M193.838 0H32.1615C13.9077 0 0 13.9077 0 32.1615V193.838C0 212.092 13.9077 226 32.1615 226H193.838C212.092 226 226 212.092 226 193.838V32.1615C226 13.9077 212.092 0 193.838 0ZM113 180.8C150.377 180.8 180.8 151.246 180.8 115.608C180.8 109.523 179.931 102.569 178.192 97.3539H197.315V189.492C197.315 193.838 193.838 198.185 188.623 198.185H37.3769C33.0308 198.185 28.6846 194.708 28.6846 189.492V96.4846H48.677C46.9385 102.569 46.0693 108.654 46.0693 114.738C45.2 151.246 75.6231 180.8 113 180.8ZM113 154.723C88.6615 154.723 69.5385 135.6 69.5385 112.131C69.5385 88.6615 88.6615 69.5385 113 69.5385C137.338 69.5385 156.462 88.6615 156.462 112.131C156.462 136.469 137.338 154.723 113 154.723ZM196.446 61.7154C196.446 66.9308 192.1 71.2769 186.885 71.2769H162.546C157.331 71.2769 152.985 66.9308 152.985 61.7154V38.2461C152.985 33.0308 157.331 28.6846 162.546 28.6846H186.885C192.1 28.6846 196.446 33.0308 196.446 38.2461V61.7154Z" fill="white"/>
<path d="M193.838 0H32.1615C13.9077 0 0 13.9077 0 32.1615V193.838C0 212.092 13.9077 226 32.1615 226H193.838C212.092 226 226 212.092 226 193.838V32.1615C226 13.9077 212.092 0 193.838 0ZM113 180.8C150.377 180.8 180.8 151.246 180.8 115.608C180.8 109.523 179.931 102.569 178.192 97.3539H197.315V189.492C197.315 193.838 193.838 198.185 188.623 198.185H37.3769C33.0308 198.185 28.6846 194.708 28.6846 189.492V96.4846H48.677C46.9385 102.569 46.0693 108.654 46.0693 114.738C45.2 151.246 75.6231 180.8 113 180.8ZM113 154.723C88.6615 154.723 69.5385 135.6 69.5385 112.131C69.5385 88.6615 88.6615 69.5385 113 69.5385C137.338 69.5385 156.462 88.6615 156.462 112.131C156.462 136.469 137.338 154.723 113 154.723ZM196.446 61.7154C196.446 66.9308 192.1 71.2769 186.885 71.2769H162.546C157.331 71.2769 152.985 66.9308 152.985 61.7154V38.2461C152.985 33.0308 157.331 28.6846 162.546 28.6846H186.885C192.1 28.6846 196.446 33.0308 196.446 38.2461V61.7154Z" fill="white"/>
</g>
</svg>
