<svg width="226" height="163" viewBox="0 0 226 163" fill="none" xmlns="http://www.w3.org/2000/svg">
<path opacity="0.2" d="M226 62.5656C226 57.6262 225.175 51.8636 225.175 45.2778C224.351 38.6919 223.526 32.106 222.701 26.3434C221.051 19.7575 218.577 14.8182 213.628 10.702C209.504 6.58588 203.73 4.11611 197.956 3.29288C178.985 0.823182 150.942 0 113 0C75.0585 0 46.1897 0.823182 28.0438 3.29288C22.27 4.11611 16.4964 6.58588 12.3723 10.702C8.24818 14.8182 4.94886 19.7575 3.29922 26.3434C1.64958 32.106 0.824868 37.8687 0.824868 45.2778C5.03306e-05 51.8636 0 57.6262 0 62.5656C0 67.505 0 73.2676 0 81.4999C0 89.7323 0 96.3181 0 100.434C0 105.374 0.824868 111.136 0.824868 117.722C1.64969 124.308 2.4744 130.894 3.29922 136.656C4.94886 143.242 7.42336 148.182 12.3723 152.298C16.4964 156.414 22.27 158.884 28.0438 159.707C47.0146 162.177 75.0585 163 113 163C150.942 163 179.81 162.177 197.956 159.707C203.73 158.884 209.504 156.414 213.628 152.298C217.752 148.182 221.051 143.242 222.701 136.656C224.35 130.894 225.175 125.131 225.175 117.722C226 111.136 226 105.374 226 100.434C226 95.4949 226 89.7323 226 81.4999C226 73.2676 226 66.6817 226 62.5656ZM156.715 88.0858L91.5548 128.424C90.73 129.247 89.0804 130.071 87.4307 130.071C85.7811 130.071 84.9563 130.071 83.3066 129.247C80.8322 127.601 79.1825 125.131 79.1825 121.838V40.3383C79.1825 37.0454 80.8322 34.5758 83.3066 32.9293C85.7811 31.2828 89.0804 31.2828 91.5548 32.9293L156.715 73.2676C159.19 74.9141 160.839 77.3838 160.839 79.8535C160.839 82.3232 159.19 86.4394 156.715 88.0858Z" fill="white"/>
</svg>
