<svg width="108" height="20" viewBox="0 0 108 20" fill="none" xmlns="http://www.w3.org/2000/svg">
<g clip-path="url(#clip0)">
<path fill-rule="evenodd" clip-rule="evenodd" d="M10 0C10.2384 0 10.4403 0.150046 10.5195 0.383754L12.6269 6.64294C12.7043 6.87301 12.8983 7.02033 13.1315 7.02578L19.4624 7.19583C19.7 7.2022 19.8975 7.35497 19.9714 7.59141C20.0454 7.82603 19.9732 8.07065 19.7844 8.22251L14.7508 12.271C14.5672 12.4192 14.4941 12.6548 14.5594 12.8867L16.3631 19.2632C16.4301 19.5014 16.35 19.7442 16.1569 19.8897C15.9637 20.0343 15.7175 20.037 15.5217 19.8961L10.3132 16.1331C10.1209 15.9949 9.87905 15.9949 9.68676 16.1331L4.4783 19.8961C4.28252 20.037 4.03628 20.0343 3.84312 19.8897C3.64995 19.7442 3.5699 19.5014 3.6369 19.2632L5.44063 12.8867C5.50589 12.6548 5.4328 12.4192 5.24921 12.271L0.215636 8.22251C0.026823 8.07065 -0.045396 7.82603 0.0285632 7.59141C0.102522 7.35497 0.300037 7.2022 0.537576 7.19583L6.86848 7.02578C7.10167 7.02033 7.2957 6.87301 7.37314 6.64294L9.48055 0.383754C9.55973 0.150046 9.76159 0 10 0Z" fill="#C5C5C5"/>
</g>
<g clip-path="url(#clip1)">
<path fill-rule="evenodd" clip-rule="evenodd" d="M32 0C32.2384 0 32.4403 0.150046 32.5195 0.383754L34.6269 6.64294C34.7043 6.87301 34.8983 7.02033 35.1315 7.02578L41.4624 7.19583C41.7 7.2022 41.8975 7.35497 41.9714 7.59141C42.0454 7.82603 41.9732 8.07065 41.7844 8.22251L36.7508 12.271C36.5672 12.4192 36.4941 12.6548 36.5594 12.8867L38.3631 19.2632C38.4301 19.5014 38.35 19.7442 38.1569 19.8897C37.9637 20.0343 37.7175 20.037 37.5217 19.8961L32.3132 16.1331C32.1209 15.9949 31.879 15.9949 31.6868 16.1331L26.4783 19.8961C26.2825 20.037 26.0363 20.0343 25.8431 19.8897C25.65 19.7442 25.5699 19.5014 25.6369 19.2632L27.4406 12.8867C27.5059 12.6548 27.4328 12.4192 27.2492 12.271L22.2156 8.22251C22.0268 8.07065 21.9546 7.82603 22.0286 7.59141C22.1025 7.35497 22.3 7.2022 22.5376 7.19583L28.8685 7.02578C29.1017 7.02033 29.2957 6.87301 29.3731 6.64294L31.4805 0.383754C31.5597 0.150046 31.7616 0 32 0Z" fill="#C5C5C5"/>
</g>
<g clip-path="url(#clip2)">
<path fill-rule="evenodd" clip-rule="evenodd" d="M54 0C54.2384 0 54.4403 0.150046 54.5195 0.383754L56.6269 6.64294C56.7043 6.87301 56.8983 7.02033 57.1315 7.02578L63.4624 7.19583C63.7 7.2022 63.8975 7.35497 63.9714 7.59141C64.0454 7.82603 63.9732 8.07065 63.7844 8.22251L58.7508 12.271C58.5672 12.4192 58.4941 12.6548 58.5594 12.8867L60.3631 19.2632C60.4301 19.5014 60.35 19.7442 60.1569 19.8897C59.9637 20.0343 59.7175 20.037 59.5217 19.8961L54.3132 16.1331C54.1209 15.9949 53.879 15.9949 53.6868 16.1331L48.4783 19.8961C48.2825 20.037 48.0363 20.0343 47.8431 19.8897C47.65 19.7442 47.5699 19.5014 47.6369 19.2632L49.4406 12.8867C49.5059 12.6548 49.4328 12.4192 49.2492 12.271L44.2156 8.22251C44.0268 8.07065 43.9546 7.82603 44.0286 7.59141C44.1025 7.35497 44.3 7.2022 44.5376 7.19583L50.8685 7.02578C51.1017 7.02033 51.2957 6.87301 51.3731 6.64294L53.4805 0.383754C53.5597 0.150046 53.7616 0 54 0Z" fill="#C5C5C5"/>
</g>
<g clip-path="url(#clip3)">
<path fill-rule="evenodd" clip-rule="evenodd" d="M76 0C76.2384 0 76.4403 0.150046 76.5195 0.383754L78.6269 6.64294C78.7043 6.87301 78.8983 7.02033 79.1315 7.02578L85.4624 7.19583C85.7 7.2022 85.8975 7.35497 85.9714 7.59141C86.0454 7.82603 85.9732 8.07065 85.7844 8.22251L80.7508 12.271C80.5672 12.4192 80.4941 12.6548 80.5594 12.8867L82.3631 19.2632C82.4301 19.5014 82.35 19.7442 82.1569 19.8897C81.9637 20.0343 81.7175 20.037 81.5217 19.8961L76.3132 16.1331C76.1209 15.9949 75.879 15.9949 75.6868 16.1331L70.4783 19.8961C70.2825 20.037 70.0363 20.0343 69.8431 19.8897C69.65 19.7442 69.5699 19.5014 69.6369 19.2632L71.4406 12.8867C71.5059 12.6548 71.4328 12.4192 71.2492 12.271L66.2156 8.22251C66.0268 8.07065 65.9546 7.82603 66.0286 7.59141C66.1025 7.35497 66.3 7.2022 66.5376 7.19583L72.8685 7.02578C73.1017 7.02033 73.2957 6.87301 73.3731 6.64294L75.4805 0.383754C75.5597 0.150046 75.7616 0 76 0Z" fill="#C5C5C5"/>
</g>
<g clip-path="url(#clip4)">
<path fill-rule="evenodd" clip-rule="evenodd" d="M98 0C98.2384 0 98.4403 0.150046 98.5195 0.383754L100.627 6.64294C100.704 6.87301 100.898 7.02033 101.132 7.02578L107.462 7.19583C107.7 7.2022 107.897 7.35497 107.971 7.59141C108.045 7.82603 107.973 8.07065 107.784 8.22251L102.751 12.271C102.567 12.4192 102.494 12.6548 102.559 12.8867L104.363 19.2632C104.43 19.5014 104.35 19.7442 104.157 19.8897C103.964 20.0343 103.717 20.037 103.522 19.8961L98.3132 16.1331C98.1209 15.9949 97.879 15.9949 97.6868 16.1331L92.4783 19.8961C92.2825 20.037 92.0363 20.0343 91.8431 19.8897C91.65 19.7442 91.5699 19.5014 91.6369 19.2632L93.4406 12.8867C93.5059 12.6548 93.4328 12.4192 93.2492 12.271L88.2156 8.22251C88.0268 8.07065 87.9546 7.82603 88.0286 7.59141C88.1025 7.35497 88.3 7.2022 88.5376 7.19583L94.8685 7.02578C95.1017 7.02033 95.2957 6.87301 95.3731 6.64294L97.4805 0.383754C97.5597 0.150046 97.7616 0 98 0Z" fill="#C5C5C5"/>
</g>
<defs>
<clipPath id="clip0">
<rect width="20" height="20" fill="white"/>
</clipPath>
<clipPath id="clip1">
<rect width="20" height="20" fill="white" transform="translate(22)"/>
</clipPath>
<clipPath id="clip2">
<rect width="20" height="20" fill="white" transform="translate(44)"/>
</clipPath>
<clipPath id="clip3">
<rect width="20" height="20" fill="white" transform="translate(66)"/>
</clipPath>
<clipPath id="clip4">
<rect width="20" height="20" fill="white" transform="translate(88)"/>
</clipPath>
</defs>
</svg>
