<svg width="100" height="16" viewBox="0 0 100 16" fill="none" xmlns="http://www.w3.org/2000/svg">
<path d="M7.76579 0.391159C8.00635 -0.130387 8.7476 -0.130386 8.98816 0.39116L10.9577 4.66116C11.0558 4.87372 11.2572 5.02008 11.4897 5.04764L16.1593 5.6013C16.7297 5.66892 16.9587 6.37389 16.537 6.76385L13.0847 9.95652C12.9128 10.1154 12.8359 10.3523 12.8815 10.5818L13.7979 15.194C13.9098 15.7574 13.3102 16.1931 12.809 15.9125L8.70573 13.6157C8.50147 13.5014 8.25248 13.5014 8.04822 13.6157L3.94497 15.9125C3.44379 16.1931 2.84411 15.7574 2.95604 15.194L3.87248 10.5818C3.9181 10.3523 3.84115 10.1154 3.66929 9.95652L0.216908 6.76385C-0.204773 6.37389 0.0242864 5.66892 0.594645 5.6013L5.26428 5.04764C5.49674 5.02008 5.69818 4.87372 5.79622 4.66116L7.76579 0.391159Z" fill="#FD8C04"/>
<path d="M28.5197 0.391159C28.7603 -0.130387 29.5015 -0.130386 29.7421 0.39116L31.7116 4.66116C31.8097 4.87372 32.0111 5.02008 32.2436 5.04764L36.9132 5.6013C37.4836 5.66892 37.7126 6.37389 37.2909 6.76385L33.8386 9.95652C33.6667 10.1154 33.5898 10.3523 33.6354 10.5818L34.5518 15.194C34.6637 15.7574 34.0641 16.1931 33.5629 15.9125L29.4596 13.6157C29.2554 13.5014 29.0064 13.5014 28.8021 13.6157L24.6989 15.9125C24.1977 16.1931 23.598 15.7574 23.7099 15.194L24.6264 10.5818C24.672 10.3523 24.5951 10.1154 24.4232 9.95652L20.9708 6.76385C20.5491 6.37389 20.7782 5.66892 21.3486 5.6013L26.0182 5.04764C26.2506 5.02008 26.4521 4.87372 26.5501 4.66116L28.5197 0.391159Z" fill="#FD8C04"/>
<path d="M49.2736 0.391159C49.5142 -0.130387 50.2554 -0.130386 50.496 0.39116L52.4655 4.66116C52.5636 4.87372 52.765 5.02008 52.9975 5.04764L57.6671 5.6013C58.2375 5.66892 58.4665 6.37389 58.0449 6.76385L54.5925 9.95652C54.4206 10.1154 54.3437 10.3523 54.3893 10.5818L55.3057 15.194C55.4177 15.7574 54.818 16.1931 54.3168 15.9125L50.2135 13.6157C50.0093 13.5014 49.7603 13.5014 49.556 13.6157L45.4528 15.9125C44.9516 16.1931 44.3519 15.7574 44.4639 15.194L45.3803 10.5818C45.4259 10.3523 45.349 10.1154 45.1771 9.95652L41.7247 6.76385C41.303 6.37389 41.5321 5.66892 42.1025 5.6013L46.7721 5.04764C47.0046 5.02008 47.206 4.87372 47.304 4.66116L49.2736 0.391159Z" fill="#FD8C04"/>
<path d="M70.0275 0.391159C70.2681 -0.130387 71.0093 -0.130386 71.2499 0.39116L73.2194 4.66116C73.3175 4.87372 73.5189 5.02008 73.7514 5.04764L78.421 5.6013C78.9914 5.66892 79.2204 6.37389 78.7988 6.76385L75.3464 9.95652C75.1745 10.1154 75.0976 10.3523 75.1432 10.5818L76.0596 15.194C76.1716 15.7574 75.5719 16.1931 75.0707 15.9125L70.9675 13.6157C70.7632 13.5014 70.5142 13.5014 70.3099 13.6157L66.2067 15.9125C65.7055 16.1931 65.1058 15.7574 65.2178 15.194L66.1342 10.5818C66.1798 10.3523 66.1029 10.1154 65.931 9.95652L62.4786 6.76385C62.0569 6.37389 62.286 5.66892 62.8564 5.6013L67.526 5.04764C67.7585 5.02008 67.9599 4.87372 68.0579 4.66116L70.0275 0.391159Z" fill="#FD8C04"/>
<path d="M90.7814 0.391159C91.022 -0.130387 91.7632 -0.130386 92.0038 0.39116L93.9734 4.66116C94.0714 4.87372 94.2728 5.02008 94.5053 5.04764L99.1749 5.6013C99.7453 5.66892 99.9743 6.37389 99.5527 6.76385L96.1003 9.95652C95.9284 10.1154 95.8515 10.3523 95.8971 10.5818L96.8135 15.194C96.9255 15.7574 96.3258 16.1931 95.8246 15.9125L91.7214 13.6157C91.5171 13.5014 91.2681 13.5014 91.0638 13.6157L86.9606 15.9125C86.4594 16.1931 85.8597 15.7574 85.9717 15.194L86.8881 10.5818C86.9337 10.3523 86.8568 10.1154 86.6849 9.95652L83.2325 6.76385C82.8109 6.37389 83.0399 5.66892 83.6103 5.6013L88.2799 5.04764C88.5124 5.02008 88.7138 4.87372 88.8118 4.66116L90.7814 0.391159Z" fill="#FD8C04"/>
</svg>
