<svg width="14" height="14" viewBox="0 0 14 14" fill="none" xmlns="http://www.w3.org/2000/svg">
<path fill-rule="evenodd" clip-rule="evenodd" d="M0.785156 6.64464C0.785156 3.67012 3.20527 1.25 6.1798 1.25C9.15449 1.25 11.5744 3.67012 11.5744 6.64464C11.5744 7.95308 11.1062 9.15419 10.3286 10.0892L12.8893 12.6499C13.0838 12.8443 13.0838 13.1597 12.8893 13.3541C12.792 13.4513 12.6645 13.5 12.5372 13.5C12.4097 13.5 12.2824 13.4513 12.1851 13.3541L9.62445 10.7934C8.68939 11.5711 7.48826 12.0393 6.1798 12.0393C3.20527 12.0393 0.785156 9.61933 0.785156 6.64464ZM1.78109 6.64467C1.78109 9.07009 3.75437 11.0434 6.1798 11.0434C8.60523 11.0434 10.5785 9.07007 10.5785 6.64464C10.5785 4.21921 8.60523 2.24593 6.1798 2.24593C3.75437 2.24593 1.78109 4.21924 1.78109 6.64467Z" fill="#92ABC9"/>
<path d="M10.3286 10.0892L10.0979 9.89741L9.92291 10.1078L10.1164 10.3014L10.3286 10.0892ZM12.8893 12.6499L12.6771 12.8621L12.6772 12.8621L12.8893 12.6499ZM12.8893 13.3541L12.6772 13.1418L12.6772 13.1419L12.8893 13.3541ZM12.1851 13.3541L12.3973 13.1419H12.3973L12.1851 13.3541ZM9.62445 10.7934L9.83658 10.5812L9.64304 10.3877L9.43261 10.5627L9.62445 10.7934ZM6.1798 0.95C3.03959 0.95 0.485156 3.50443 0.485156 6.64464H1.08516C1.08516 3.8358 3.37096 1.55 6.1798 1.55V0.95ZM11.8744 6.64464C11.8744 3.50444 9.32018 0.95 6.1798 0.95V1.55C8.9888 1.55 11.2744 3.8358 11.2744 6.64464H11.8744ZM10.5592 10.2811C11.3799 9.29431 11.8744 8.02593 11.8744 6.64464H11.2744C11.2744 7.88023 10.8326 9.01407 10.0979 9.89741L10.5592 10.2811ZM13.1014 12.4378L10.5407 9.87711L10.1164 10.3014L12.6771 12.8621L13.1014 12.4378ZM13.1013 13.5663C13.4131 13.2547 13.4131 12.7493 13.1013 12.4377L12.6772 12.8621C12.7545 12.9393 12.7545 13.0646 12.6772 13.1418L13.1013 13.5663ZM12.5372 13.8C12.7409 13.8 12.9456 13.7219 13.1014 13.5662L12.6772 13.1419C12.6383 13.1807 12.5881 13.2 12.5372 13.2V13.8ZM11.973 13.5662C12.1287 13.7219 12.3333 13.8 12.5372 13.8V13.2C12.4861 13.2 12.4361 13.1807 12.3973 13.1419L11.973 13.5662ZM9.41232 11.0055L11.973 13.5662L12.3973 13.1419L9.83658 10.5812L9.41232 11.0055ZM6.1798 12.3393C7.56111 12.3393 8.82951 11.8447 9.81628 11.024L9.43261 10.5627C8.54927 11.2974 7.4154 11.7393 6.1798 11.7393V12.3393ZM0.485156 6.64464C0.485156 9.78503 3.03959 12.3393 6.1798 12.3393V11.7393C3.37095 11.7393 1.08516 9.45364 1.08516 6.64464H0.485156ZM6.1798 10.7434C3.92005 10.7434 2.08109 8.90441 2.08109 6.64467H1.48109C1.48109 9.23578 3.58868 11.3434 6.1798 11.3434V10.7434ZM10.2785 6.64464C10.2785 8.90439 8.43954 10.7434 6.1798 10.7434V11.3434C8.77091 11.3434 10.8785 9.23575 10.8785 6.64464H10.2785ZM6.1798 2.54593C8.43954 2.54593 10.2785 4.3849 10.2785 6.64464H10.8785C10.8785 4.05353 8.77091 1.94593 6.1798 1.94593V2.54593ZM2.08109 6.64467C2.08109 4.38492 3.92006 2.54593 6.1798 2.54593V1.94593C3.58868 1.94593 1.48109 4.05355 1.48109 6.64467H2.08109Z" fill="#92ABC9"/>
</svg>
