<svg width="191" height="189" viewBox="0 0 191 189" fill="none" xmlns="http://www.w3.org/2000/svg">
<path d="M12.1058 13.6585C12.1058 13.6585 27.0788 46.842 22.0598 74.7272C22.0598 74.7272 1.97548 141.251 53.9113 158.641C53.9113 158.641 38.7453 163.968 29.5526 154.057C29.5526 154.057 29.9144 202.614 111.05 233.036C111.05 233.036 147.946 191.921 128.436 139.171C128.436 139.171 121.949 156.598 113.841 163.624C113.841 163.624 141.839 100.15 90.022 63.4581C90.022 63.4581 92.1021 80.358 85.0324 88.3326C85.039 88.3302 87.4222 18.7378 12.1058 13.6585Z" fill="#B8D2F0"/>
<path d="M63.1743 110.488L125.493 277.632" stroke="black" stroke-linecap="round" stroke-linejoin="round"/>
</svg>
