<svg width="101" height="17" viewBox="0 0 101 17" fill="none" xmlns="http://www.w3.org/2000/svg">
<path d="M70.7658 0.391159C71.0064 -0.130387 71.7476 -0.130386 71.9882 0.39116L73.9577 4.66116C74.0558 4.87372 74.2572 5.02008 74.4897 5.04764L79.1593 5.6013C79.7297 5.66892 79.9587 6.37389 79.537 6.76385L76.0847 9.95652C75.9128 10.1154 75.8359 10.3523 75.8815 10.5818L76.7979 15.194C76.9098 15.7574 76.3102 16.1931 75.809 15.9125L71.7057 13.6157C71.5015 13.5014 71.2525 13.5014 71.0482 13.6157L66.945 15.9125C66.4438 16.1931 65.8441 15.7574 65.956 15.194L66.8725 10.5818C66.9181 10.3523 66.8412 10.1154 66.6693 9.95652L63.2169 6.76385C62.7952 6.37389 63.0243 5.66892 63.5946 5.6013L68.2643 5.04764C68.4967 5.02008 68.6982 4.87372 68.7962 4.66116L70.7658 0.391159Z" fill="#92ABC9"/>
<path d="M91.8798 0.697311C92.1239 0.175765 92.8761 0.175766 93.1202 0.697312L95.1187 4.96731C95.2181 5.17987 95.4225 5.32623 95.6584 5.35379L100.397 5.90745C100.975 5.97508 101.208 6.68004 100.78 7.07L97.2768 10.2627C97.1024 10.4216 97.0244 10.6584 97.0707 10.888L98.0005 15.5002C98.1141 16.0635 97.5056 16.4992 96.9971 16.2187L92.8336 13.9219C92.6263 13.8075 92.3737 13.8075 92.1664 13.9219L88.0029 16.2187C87.4944 16.4992 86.8859 16.0635 86.9995 15.5002L87.9293 10.888C87.9756 10.6584 87.8976 10.4216 87.7232 10.2627L84.2201 7.07C83.7922 6.68004 84.0246 5.97508 84.6034 5.90745L89.3416 5.35379C89.5775 5.32623 89.7819 5.17987 89.8813 4.96731L91.8798 0.697311Z" fill="#92ABC9"/>
<path d="M7.76579 0.697311C8.00635 0.175765 8.7476 0.175766 8.98816 0.697312L10.9577 4.96731C11.0558 5.17987 11.2572 5.32623 11.4897 5.35379L16.1593 5.90745C16.7297 5.97508 16.9587 6.68004 16.537 7.07L13.0847 10.2627C12.9128 10.4216 12.8359 10.6584 12.8815 10.888L13.7979 15.5002C13.9098 16.0635 13.3102 16.4992 12.809 16.2187L8.70573 13.9219C8.50147 13.8075 8.25248 13.8075 8.04822 13.9219L3.94497 16.2187C3.44379 16.4992 2.84411 16.0635 2.95604 15.5002L3.87248 10.888C3.9181 10.6584 3.84115 10.4216 3.66929 10.2627L0.216908 7.07C-0.204773 6.68004 0.0242864 5.97508 0.594645 5.90745L5.26428 5.35379C5.49674 5.32623 5.69818 5.17987 5.79622 4.96731L7.76579 0.697311Z" fill="#92ABC9"/>
<path d="M28.7658 0.697311C29.0064 0.175765 29.7476 0.175766 29.9882 0.697312L31.9577 4.96731C32.0558 5.17987 32.2572 5.32623 32.4897 5.35379L37.1593 5.90745C37.7297 5.97508 37.9587 6.68004 37.537 7.07L34.0847 10.2627C33.9128 10.4216 33.8359 10.6584 33.8815 10.888L34.7979 15.5002C34.9098 16.0635 34.3102 16.4992 33.809 16.2187L29.7057 13.9219C29.5015 13.8075 29.2525 13.8075 29.0482 13.9219L24.945 16.2187C24.4438 16.4992 23.8441 16.0635 23.956 15.5002L24.8725 10.888C24.9181 10.6584 24.8412 10.4216 24.6693 10.2627L21.2169 7.07C20.7952 6.68004 21.0243 5.97508 21.5946 5.90745L26.2643 5.35379C26.4967 5.32623 26.6982 5.17987 26.7962 4.96731L28.7658 0.697311Z" fill="#92ABC9"/>
<path d="M49.7658 0.697311C50.0064 0.175765 50.7476 0.175766 50.9882 0.697312L52.9577 4.96731C53.0558 5.17987 53.2572 5.32623 53.4897 5.35379L58.1593 5.90745C58.7297 5.97508 58.9587 6.68004 58.537 7.07L55.0847 10.2627C54.9128 10.4216 54.8359 10.6584 54.8815 10.888L55.7979 15.5002C55.9098 16.0635 55.3102 16.4992 54.809 16.2187L50.7057 13.9219C50.5015 13.8075 50.2525 13.8075 50.0482 13.9219L45.945 16.2187C45.4438 16.4992 44.8441 16.0635 44.956 15.5002L45.8725 10.888C45.9181 10.6584 45.8412 10.4216 45.6693 10.2627L42.2169 7.07C41.7952 6.68004 42.0243 5.97508 42.5946 5.90745L47.2643 5.35379C47.4967 5.32623 47.6982 5.17987 47.7962 4.96731L49.7658 0.697311Z" fill="#92ABC9"/>
</svg>
