<svg width="101" height="17" viewBox="0 0 101 17" fill="none" xmlns="http://www.w3.org/2000/svg">
<path d="M70.7658 1.08501C71.0064 0.563461 71.7476 0.563462 71.9882 1.08501L73.9577 5.35501C74.0558 5.56757 74.2572 5.71392 74.4897 5.74148L79.1593 6.29515C79.7297 6.36277 79.9587 7.06774 79.537 7.4577L76.0847 10.6504C75.9128 10.8093 75.8359 11.0461 75.8815 11.2757L76.7979 15.8879C76.9098 16.4512 76.3102 16.8869 75.809 16.6064L71.7057 14.3095C71.5015 14.1952 71.2525 14.1952 71.0482 14.3095L66.945 16.6064C66.4438 16.8869 65.8441 16.4512 65.956 15.8879L66.8725 11.2757C66.9181 11.0461 66.8412 10.8093 66.6693 10.6504L63.2169 7.4577C62.7952 7.06774 63.0243 6.36277 63.5946 6.29515L68.2643 5.74148C68.4967 5.71392 68.6982 5.56757 68.7962 5.35501L70.7658 1.08501Z" fill="#FD8C04"/>
<path d="M91.8798 1.39116C92.1239 0.869613 92.8761 0.869614 93.1202 1.39116L95.1187 5.66116C95.2181 5.87372 95.4225 6.02008 95.6584 6.04764L100.397 6.6013C100.975 6.66892 101.208 7.37389 100.78 7.76385L97.2768 10.9565C97.1024 11.1154 97.0244 11.3523 97.0707 11.5818L98.0005 16.194C98.1141 16.7574 97.5056 17.1931 96.9971 16.9125L92.8336 14.6157C92.6263 14.5014 92.3737 14.5014 92.1664 14.6157L88.0029 16.9125C87.4944 17.1931 86.8859 16.7574 86.9995 16.194L87.9293 11.5818C87.9756 11.3523 87.8976 11.1154 87.7232 10.9565L84.2201 7.76385C83.7922 7.37389 84.0246 6.66892 84.6034 6.6013L89.3416 6.04764C89.5775 6.02008 89.7819 5.87372 89.8813 5.66116L91.8798 1.39116Z" fill="#FD8C04"/>
<path d="M7.76579 1.39116C8.00635 0.869613 8.7476 0.869614 8.98816 1.39116L10.9577 5.66116C11.0558 5.87372 11.2572 6.02008 11.4897 6.04764L16.1593 6.6013C16.7297 6.66892 16.9587 7.37389 16.537 7.76385L13.0847 10.9565C12.9128 11.1154 12.8359 11.3523 12.8815 11.5818L13.7979 16.194C13.9098 16.7574 13.3102 17.1931 12.809 16.9125L8.70573 14.6157C8.50147 14.5014 8.25248 14.5014 8.04822 14.6157L3.94497 16.9125C3.44379 17.1931 2.84411 16.7574 2.95604 16.194L3.87248 11.5818C3.9181 11.3523 3.84115 11.1154 3.66929 10.9565L0.216908 7.76385C-0.204773 7.37389 0.0242864 6.66892 0.594645 6.6013L5.26428 6.04764C5.49674 6.02008 5.69818 5.87372 5.79622 5.66116L7.76579 1.39116Z" fill="#FD8C04"/>
<path d="M28.7658 1.39116C29.0064 0.869613 29.7476 0.869614 29.9882 1.39116L31.9577 5.66116C32.0558 5.87372 32.2572 6.02008 32.4897 6.04764L37.1593 6.6013C37.7297 6.66892 37.9587 7.37389 37.537 7.76385L34.0847 10.9565C33.9128 11.1154 33.8359 11.3523 33.8815 11.5818L34.7979 16.194C34.9098 16.7574 34.3102 17.1931 33.809 16.9125L29.7057 14.6157C29.5015 14.5014 29.2525 14.5014 29.0482 14.6157L24.945 16.9125C24.4438 17.1931 23.8441 16.7574 23.956 16.194L24.8725 11.5818C24.9181 11.3523 24.8412 11.1154 24.6693 10.9565L21.2169 7.76385C20.7952 7.37389 21.0243 6.66892 21.5946 6.6013L26.2643 6.04764C26.4967 6.02008 26.6982 5.87372 26.7962 5.66116L28.7658 1.39116Z" fill="#FD8C04"/>
<path d="M49.7658 1.39116C50.0064 0.869613 50.7476 0.869614 50.9882 1.39116L52.9577 5.66116C53.0558 5.87372 53.2572 6.02008 53.4897 6.04764L58.1593 6.6013C58.7297 6.66892 58.9587 7.37389 58.537 7.76385L55.0847 10.9565C54.9128 11.1154 54.8359 11.3523 54.8815 11.5818L55.7979 16.194C55.9098 16.7574 55.3102 17.1931 54.809 16.9125L50.7057 14.6157C50.5015 14.5014 50.2525 14.5014 50.0482 14.6157L45.945 16.9125C45.4438 17.1931 44.8441 16.7574 44.956 16.194L45.8725 11.5818C45.9181 11.3523 45.8412 11.1154 45.6693 10.9565L42.2169 7.76385C41.7952 7.37389 42.0243 6.66892 42.5946 6.6013L47.2643 6.04764C47.4967 6.02008 47.6982 5.87372 47.7962 5.66116L49.7658 1.39116Z" fill="#FD8C04"/>
</svg>
