<svg width="40" height="40" viewBox="0 0 40 40" fill="none" xmlns="http://www.w3.org/2000/svg">
<path d="M36.6406 16.875C37.3016 16.875 38.1177 16.6959 38.6249 16.4395C39.0991 16.1996 39.6692 16.4938 39.7495 17.0181C39.9203 18.1308 40 19.0781 40 20C40 29.3765 32.9706 37.8223 23.6493 39.6457C23.2257 39.7284 22.8152 39.4522 22.7325 39.0286C22.6498 38.6053 22.9257 38.1949 23.3493 38.1122C31.951 36.4297 38.4375 28.6432 38.4375 20C38.4375 19.4296 38.4033 18.8446 38.3319 18.2047C37.7841 18.3521 37.186 18.4375 36.6406 18.4375C34.7446 18.4375 32.8632 17.4377 31.8478 15.9451C31.3916 16.0458 30.9683 16.0938 30.5469 16.0938C26.8854 16.0938 23.9062 13.1146 23.9062 9.45312C23.9062 9.03168 23.9542 8.6084 24.0549 8.15216C22.5623 7.13684 21.5625 5.25543 21.5625 3.35938C21.5625 2.81403 21.6479 2.21588 21.7953 1.66809C21.1554 1.59668 20.5704 1.5625 20 1.5625C10.0058 1.5625 1.5625 10.0058 1.5625 20C1.5625 28.6432 8.04901 36.4297 16.6507 38.1122C17.0743 38.1949 17.3502 38.6053 17.2675 39.0289C17.1848 39.4522 16.7743 39.7284 16.3507 39.6457C7.02942 37.8223 0 29.3765 0 20C0 9.20319 9.22028 0 20 0C20.9219 0 21.8692 0.0796509 22.9819 0.250549C23.2294 0.288391 23.4436 0.44281 23.558 0.665283C23.6725 0.887756 23.6734 1.15173 23.5605 1.37512C23.3041 1.88232 23.125 2.69836 23.125 3.35938C23.125 4.91211 24.0222 6.44165 25.3067 7.07916C25.6476 7.24823 25.817 7.63794 25.708 8.00262C25.5447 8.54889 25.4688 9.01001 25.4688 9.45312C25.4688 12.2531 27.7469 14.5312 30.5469 14.5312C30.9903 14.5312 31.4511 14.4553 31.9974 14.292C32.3618 14.1833 32.7518 14.3527 32.9208 14.6933C33.5583 15.9778 35.0879 16.875 36.6406 16.875Z" fill="#367FD3"/>
<path fill-rule="evenodd" clip-rule="evenodd" d="M15.3125 6.71875C17.0355 6.71875 18.4375 8.12073 18.4375 9.84375C18.4375 11.5668 17.0355 12.9688 15.3125 12.9688C13.5895 12.9688 12.1875 11.5668 12.1875 9.84375C12.1875 8.12073 13.5895 6.71875 15.3125 6.71875ZM15.3125 8.28125C14.451 8.28125 13.75 8.98224 13.75 9.84375C13.75 10.7053 14.451 11.4062 15.3125 11.4062C16.174 11.4062 16.875 10.7053 16.875 9.84375C16.875 8.98224 16.174 8.28125 15.3125 8.28125Z" fill="#367FD3"/>
<path d="M21.5625 16.0938C21.994 16.0938 22.3438 15.744 22.3438 15.3125C22.3438 14.881 21.994 14.5312 21.5625 14.5312C21.131 14.5312 20.7812 14.881 20.7812 15.3125C20.7812 15.744 21.131 16.0938 21.5625 16.0938Z" fill="#367FD3"/>
<path d="M29.375 20.7812C29.8065 20.7812 30.1562 20.4315 30.1562 20C30.1562 19.5685 29.8065 19.2188 29.375 19.2188C28.9435 19.2188 28.5938 19.5685 28.5938 20C28.5938 20.4315 28.9435 20.7812 29.375 20.7812Z" fill="#367FD3"/>
<path d="M20.7812 31.7188C20.7812 32.1503 20.4315 32.5 20 32.5C19.5685 32.5 19.2188 32.1503 19.2188 31.7188C19.2188 31.2872 19.5685 30.9375 20 30.9375C20.4315 30.9375 20.7812 31.2872 20.7812 31.7188Z" fill="#367FD3"/>
<path d="M8.28125 18.4375C8.71277 18.4375 9.0625 18.0878 9.0625 17.6562C9.0625 17.2247 8.71277 16.875 8.28125 16.875C7.84973 16.875 7.5 17.2247 7.5 17.6562C7.5 18.0878 7.84973 18.4375 8.28125 18.4375Z" fill="#367FD3"/>
<path fill-rule="evenodd" clip-rule="evenodd" d="M11.4062 30.9375C13.1293 30.9375 14.5312 29.5355 14.5312 27.8125C14.5312 26.0895 13.1293 24.6875 11.4062 24.6875C9.68323 24.6875 8.28125 26.0895 8.28125 27.8125C8.28125 29.5355 9.68323 30.9375 11.4062 30.9375ZM11.4062 26.25C12.2678 26.25 12.9688 26.951 12.9688 27.8125C12.9688 28.674 12.2678 29.375 11.4062 29.375C10.5447 29.375 9.84375 28.674 9.84375 27.8125C9.84375 26.951 10.5447 26.25 11.4062 26.25Z" fill="#367FD3"/>
<path fill-rule="evenodd" clip-rule="evenodd" d="M23.9062 27.0312C23.9062 28.7543 25.3082 30.1562 27.0312 30.1562C28.7543 30.1562 30.1562 28.7543 30.1562 27.0312C30.1562 25.3082 28.7543 23.9062 27.0312 23.9062C25.3082 23.9062 23.9062 25.3082 23.9062 27.0312ZM28.5938 27.0312C28.5938 27.8928 27.8928 28.5938 27.0312 28.5938C26.1697 28.5938 25.4688 27.8928 25.4688 27.0312C25.4688 26.1697 26.1697 25.4688 27.0312 25.4688C27.8928 25.4688 28.5938 26.1697 28.5938 27.0312Z" fill="#367FD3"/>
<path fill-rule="evenodd" clip-rule="evenodd" d="M20.7812 21.5625C20.7812 22.8549 19.7299 23.9062 18.4375 23.9062C17.1451 23.9062 16.0938 22.8549 16.0938 21.5625C16.0938 20.2701 17.1451 19.2188 18.4375 19.2188C19.7299 19.2188 20.7812 20.2701 20.7812 21.5625ZM19.2188 21.5625C19.2188 21.1316 18.8684 20.7812 18.4375 20.7812C18.0066 20.7812 17.6562 21.1316 17.6562 21.5625C17.6562 21.9934 18.0066 22.3438 18.4375 22.3438C18.8684 22.3438 19.2188 21.9934 19.2188 21.5625Z" fill="#367FD3"/>
<path d="M20.7812 39.2188C20.7812 39.6503 20.4315 40 20 40C19.5685 40 19.2188 39.6503 19.2188 39.2188C19.2188 38.7872 19.5685 38.4375 20 38.4375C20.4315 38.4375 20.7812 38.7872 20.7812 39.2188Z" fill="#367FD3"/>
</svg>
