<svg width="18" height="18" viewBox="0 0 18 18" fill="none" xmlns="http://www.w3.org/2000/svg">
<path d="M1.41008 0.241849C1.08763 -0.0806162 0.564807 -0.0806162 0.242361 0.241849C-0.0801358 0.564312 -0.0801358 1.08713 0.242361 1.40959L7.83279 9.00006L0.242461 16.5904C-0.0799846 16.9129 -0.0799846 17.4357 0.242461 17.7582C0.564958 18.0806 1.08774 18.0806 1.41023 17.7582L9.00056 10.1678L16.5907 17.758C16.9132 18.0805 17.4361 18.0805 17.7585 17.758C18.081 17.4355 18.081 16.9127 17.7585 16.5903L10.1683 9.00006L17.7586 1.40974C18.0811 1.08727 18.0811 0.564457 17.7586 0.241994C17.4362 -0.0804697 16.9133 -0.0804697 16.5909 0.241994L9.00056 7.83232L1.41008 0.241849Z" fill="#92ABC9"/>
</svg>
