<svg width="337" height="245" viewBox="0 0 337 245" fill="none" xmlns="http://www.w3.org/2000/svg">
<circle r="60.9871" transform="matrix(-1 0 0 1 182.844 95.9845)" fill="#B8D2F0"/>
<path d="M119.296 5.39093C119.841 7.05434 121.631 7.96217 123.294 7.41784C124.957 6.87351 125.864 5.08314 125.32 3.41973C124.776 1.75632 122.986 0.848492 121.322 1.39282C119.659 1.93715 118.752 3.72752 119.296 5.39093Z" fill="#B8D2F0"/>
<path d="M277.7 85.0001C277.7 86.2655 278.726 87.2913 279.992 87.2913C281.257 87.2913 282.283 86.2655 282.283 85.0001C282.283 83.7348 281.257 82.709 279.992 82.709C278.726 82.709 277.7 83.7348 277.7 85.0001Z" fill="#0E101A"/>
<path fill-rule="evenodd" clip-rule="evenodd" d="M226.837 66.6115C216.927 72.9321 203.313 76.8183 188.286 76.8183C179.38 76.8618 170.529 75.4079 162.105 72.5173L123.095 111.236L101.368 132.77C100.927 133.615 100.237 134.304 99.3928 134.746C98.5144 135.176 97.5463 135.391 96.5683 135.373C94.8189 135.326 93.1052 134.868 91.5661 134.035C90.0149 133.251 88.6815 132.096 87.6849 130.672C87.0662 129.78 86.7229 128.725 86.6973 127.64C86.6942 126.906 86.8634 126.183 87.1911 125.526C87.2319 125.448 87.2853 125.376 87.3491 125.314L129.974 85.2029L149.726 66.6065C147.793 65.378 145.955 64.0081 144.225 62.508C141.935 60.5344 139.906 58.2777 138.186 55.7924C135.251 51.6483 133.649 46.708 133.593 41.6303C133.643 36.691 135.161 31.8783 137.953 27.8039C140.753 23.5523 144.798 19.7995 149.735 16.6392C159.646 10.3136 173.26 6.43237 188.286 6.43237C199.56 6.43237 210.028 8.6199 218.739 12.3777C227.449 16.1355 234.407 21.4685 238.609 27.8039C240.353 30.3885 241.624 33.2627 242.362 36.2923C242.773 38.0369 242.982 39.8231 242.984 41.6154C242.936 46.5556 241.416 51.3693 238.619 55.4418C235.819 59.6687 231.775 63.4462 226.837 66.6115ZM100.247 131.788L123.347 108.871L161.359 71.1495C161.458 71.0499 161.583 70.9807 161.719 70.9501C161.856 70.9194 161.998 70.9287 162.13 70.9766C170.539 73.9186 179.392 75.3935 188.301 75.3369C199.382 75.3369 209.668 73.179 218.176 69.5101C226.684 65.8411 233.409 60.6513 237.399 54.627C240.032 50.798 241.466 46.2719 241.518 41.6253C241.515 39.6305 241.241 37.6453 240.703 35.7244C239.978 33.2 238.863 30.8042 237.399 28.6236C234.723 24.6041 230.852 20.9599 226.042 17.8885C216.433 11.7407 203.061 7.91377 188.286 7.91377C177.21 7.91377 166.93 10.1161 158.416 13.785C149.903 17.4539 143.178 22.6437 139.188 28.673C136.556 32.5024 135.125 37.0285 135.075 41.6747C135.075 46.4003 136.61 50.8988 139.41 55.0072C141.061 57.384 143.007 59.5411 145.202 61.4266C147.115 63.0768 149.164 64.5634 151.326 65.8708C151.422 65.9313 151.504 66.0129 151.565 66.1095C151.626 66.2062 151.664 66.3153 151.676 66.4288C151.687 66.5418 151.671 66.6556 151.631 66.7618C151.591 66.8679 151.527 66.9634 151.444 67.0411L128.596 88.5459L88.47 126.307C88.2684 126.728 88.1621 127.188 88.159 127.655C88.1831 128.45 88.4407 129.221 88.8996 129.872C89.4423 130.666 90.121 131.358 90.9045 131.916C92.5442 133.124 94.5086 133.812 96.5436 133.891C97.2864 133.91 98.0229 133.751 98.6916 133.427C99.3084 133.111 99.8059 132.604 100.109 131.98C100.143 131.909 100.19 131.843 100.247 131.788ZM188.286 15.7056C196.553 15.7056 204.231 17.3055 210.626 20.0658C217.02 22.8261 222.141 26.7419 225.252 31.4182C225.415 31.675 225.563 31.9169 225.716 32.1688C227.491 35.0077 228.446 38.282 228.477 41.6299C228.439 45.2769 227.317 48.8301 225.252 51.8367C222.966 55.1496 220.014 57.9496 216.586 60.0584C209.302 64.7001 199.318 67.5494 188.301 67.5494C180.637 67.6133 173.039 66.1303 165.962 63.1891C160.491 60.8238 155.953 57.6141 152.817 53.807C152.289 53.1745 151.795 52.5152 151.336 51.8318C149.272 48.8248 148.152 45.2715 148.116 41.625C148.152 37.977 149.273 34.4223 151.336 31.4133C153.625 28.1029 156.578 25.3048 160.007 23.1965C167.29 18.5498 177.27 15.7056 188.286 15.7056ZM226.966 41.6151C226.929 38.2633 225.898 34.9978 224.003 32.233C223.929 32.1095 223.84 32.0058 223.741 31.9416C221.595 28.9539 218.878 26.4212 215.746 24.4902C208.754 20.0213 199.026 17.2314 188.262 17.2314C180.808 17.1642 173.417 18.6053 166.535 21.4682C160.342 24.1396 155.459 27.9122 152.57 32.2774C150.64 35.0254 149.605 38.3016 149.605 41.6595C149.605 45.0175 150.64 48.2937 152.57 51.0417C152.98 51.654 153.424 52.2564 153.918 52.849C155.891 55.1745 158.215 57.1772 160.807 58.7844C167.794 63.2484 177.527 66.0433 188.286 66.0433C196.36 66.0433 203.851 64.473 210.043 61.8015C216.235 59.1301 221.114 55.3575 224.003 50.9973C225.897 48.2322 226.929 44.9669 226.966 41.6151Z" fill="#0E101A"/>
<path d="M41.2268 139.506C45.6265 139.506 49.1933 135.94 49.1933 131.54C49.1933 127.14 45.6265 123.573 41.2268 123.573C36.827 123.573 33.2603 127.14 33.2603 131.54C33.2603 135.94 36.827 139.506 41.2268 139.506Z" fill="#B8D2F0"/>
<mask id="mask0_236_23571" style="mask-type:alpha" maskUnits="userSpaceOnUse" x="0" y="128" width="337" height="117">
<rect x="0.322754" y="128.749" width="336.677" height="116.251" fill="#F5F9FF"/>
</mask>
<g mask="url(#mask0_236_23571)">
<circle cx="165.755" cy="294.32" r="149.637" stroke="#0E101A"/>
</g>
</svg>
