<svg width="256" height="158" viewBox="0 0 256 158" fill="none" xmlns="http://www.w3.org/2000/svg">
<circle r="53.5344" transform="matrix(-1 0 0 1 109.555 104.044)" fill="#B8D2F0"/>
<path d="M53.773 24.5208C54.2509 25.981 55.8221 26.7779 57.2822 26.3001C58.7423 25.8222 59.5385 24.2507 59.0607 22.7905C58.5829 21.3304 57.0117 20.5335 55.5515 21.0113C54.0914 21.4891 53.2952 23.0607 53.773 24.5208Z" fill="#B8D2F0"/>
<path d="M192.82 94.4013C192.82 95.512 193.72 96.4124 194.831 96.4124C195.942 96.4124 196.842 95.512 196.842 94.4013C196.842 93.2906 195.942 92.3901 194.831 92.3901C193.72 92.3901 192.82 93.2906 192.82 94.4013Z" fill="#0E101A"/>
<path fill-rule="evenodd" clip-rule="evenodd" d="M148.172 78.2599C139.473 83.8081 127.522 87.2194 114.332 87.2194C106.514 87.2576 98.7454 85.9813 91.3505 83.444L57.1077 117.431L38.0357 136.334C37.6481 137.075 37.0431 137.68 36.3019 138.068C35.5308 138.446 34.6809 138.634 33.8225 138.618C32.2869 138.577 30.7826 138.175 29.4316 137.444C28.0699 136.756 26.8995 135.742 26.0247 134.492C25.4816 133.709 25.1802 132.783 25.1578 131.83C25.1551 131.187 25.3035 130.551 25.5912 129.975C25.627 129.906 25.6739 129.843 25.7299 129.789L63.1457 94.5794L80.4838 78.2555C78.7877 77.1772 77.1737 75.9746 75.6552 74.6579C73.6455 72.9254 71.8642 70.9445 70.354 68.7629C67.7778 65.1252 66.3716 60.7887 66.3229 56.3314C66.3668 51.9958 67.699 47.7712 70.1503 44.1947C72.608 40.4627 76.158 37.1684 80.4925 34.3943C89.1919 28.8418 101.142 25.4348 114.332 25.4348C124.228 25.4348 133.417 27.355 141.063 30.6536C148.71 33.9522 154.817 38.6335 158.506 44.1947C160.037 46.4635 161.152 48.9864 161.8 51.6458C162.161 53.1772 162.344 54.7451 162.346 56.3184C162.303 60.6549 160.969 64.8803 158.514 68.4551C156.057 72.1655 152.507 75.4814 148.172 78.2599ZM37.0517 135.471L57.3287 115.355L90.696 82.2433C90.7824 82.1559 90.892 82.0952 91.0119 82.0683C91.1317 82.0414 91.2568 82.0495 91.3722 82.0916C98.7541 84.6741 106.525 85.9687 114.345 85.919C124.072 85.919 133.101 84.0248 140.569 80.8042C148.038 77.5837 153.941 73.0281 157.444 67.7399C159.755 64.3788 161.013 60.4059 161.059 56.3271C161.056 54.576 160.816 52.8335 160.343 51.1473C159.707 48.9313 158.729 46.8283 157.444 44.9142C155.094 41.3859 151.696 38.187 147.474 35.4909C139.039 30.0944 127.301 26.7352 114.332 26.7352C104.61 26.7352 95.5854 28.6684 88.1126 31.8889C80.6399 35.1095 74.7362 39.6651 71.2339 44.9576C68.924 48.319 67.6671 52.2921 67.6232 56.3704C67.6232 60.5186 68.9713 64.4674 71.429 68.0737C72.878 70.16 74.5865 72.0535 76.5134 73.7086C78.1926 75.1571 79.9906 76.4621 81.8882 77.6097C81.9732 77.6628 82.045 77.7344 82.0983 77.8193C82.1516 77.9041 82.185 77.9999 82.196 78.0995C82.2052 78.1987 82.1916 78.2986 82.1563 78.3918C82.121 78.4849 82.0649 78.5688 81.9923 78.637L61.9363 97.5139L26.7138 130.66C26.5368 131.03 26.4436 131.434 26.4408 131.843C26.462 132.542 26.6881 133.219 27.091 133.79C27.5673 134.487 28.1631 135.094 28.8508 135.584C30.2902 136.644 32.0145 137.248 33.8008 137.318C34.4528 137.335 35.0993 137.195 35.6863 136.911C36.2278 136.633 36.6644 136.188 36.9304 135.641C36.9607 135.578 37.0018 135.52 37.0517 135.471ZM114.332 33.5746C121.588 33.5746 128.329 34.979 133.942 37.402C139.555 39.8251 144.05 43.2623 146.781 47.3672C146.924 47.5926 147.054 47.8049 147.188 48.026C148.746 50.518 149.585 53.3922 149.611 56.331C149.578 59.5323 148.593 62.6513 146.781 65.2905C144.774 68.1985 142.183 70.6564 139.174 72.5075C132.78 76.582 124.016 79.083 114.345 79.083C107.618 79.1391 100.948 77.8373 94.7359 75.2556C89.9332 73.1793 85.9498 70.3619 83.1973 67.02C82.7344 66.4648 82.3003 65.8861 81.897 65.2861C80.086 62.6466 79.1022 59.5275 79.0708 56.3267C79.1026 53.1245 80.0864 50.0042 81.897 47.3628C83.9068 44.457 86.4988 42.0008 89.5084 40.1501C95.9019 36.0713 104.662 33.5746 114.332 33.5746ZM148.285 56.318C148.253 53.3757 147.348 50.5093 145.684 48.0824C145.619 47.974 145.541 47.883 145.454 47.8266C143.57 45.204 141.185 42.9808 138.437 41.2858C132.299 37.363 123.76 34.914 114.311 34.914C107.768 34.855 101.28 36.1201 95.2387 38.6331C89.8032 40.978 85.5163 44.2896 82.9806 48.1214C81.2866 50.5335 80.3776 53.4094 80.3776 56.357C80.3776 59.3046 81.2866 62.1805 82.9806 64.5926C83.3404 65.1301 83.7305 65.6589 84.1639 66.1791C85.8955 68.2204 87.9358 69.9783 90.2106 71.3892C96.344 75.3076 104.887 77.761 114.332 77.761C121.419 77.761 127.995 76.3826 133.43 74.0376C138.866 71.6926 143.148 68.381 145.684 64.5536C147.347 62.1264 148.252 59.2601 148.285 56.318Z" fill="#0E101A"/>
<path d="M8.03341 112.346C12.4332 112.346 15.9999 108.779 15.9999 104.379C15.9999 99.9793 12.4332 96.4126 8.03341 96.4126C3.63362 96.4126 0.0668945 99.9793 0.0668945 104.379C0.0668945 108.779 3.63362 112.346 8.03341 112.346Z" fill="#B8D2F0"/>
<path d="M26.0692 0.146973C31.779 77.2986 96.1841 138.119 174.795 138.119C204.745 138.119 232.634 129.291 256 114.093V115.285C232.589 130.368 204.714 139.119 174.795 139.119C95.6316 139.119 30.7784 77.8515 25.0664 0.146973H26.0692Z" fill="#0E101A"/>
</svg>
