<svg width="327" height="342" viewBox="0 0 327 342" fill="none" xmlns="http://www.w3.org/2000/svg">
<mask id="mask0_236_5874" style="mask-type:alpha" maskUnits="userSpaceOnUse" x="0" y="0" width="327" height="342">
<rect width="327" height="342" rx="20" fill="#F5F9FF"/>
</mask>
<g mask="url(#mask0_236_5874)">
<circle cx="148.356" cy="214.659" r="108.347" fill="#B8D2F0"/>
<path d="M243.836 145.353C243.85 145.485 243.879 145.615 243.923 145.741C243.929 145.753 243.935 145.766 243.942 145.778C243.979 145.762 244.014 145.742 244.048 145.719C244.218 145.605 244.373 145.471 244.51 145.319L244.545 145.285L244.566 145.266L244.632 145.21L244.876 144.994C245.085 144.807 245.382 144.541 245.719 144.223C246.493 143.494 247.223 142.72 247.906 141.905C248.121 141.639 248.321 141.377 248.49 141.127L245.179 142.23C245.181 142.237 245.181 142.244 245.179 142.251C245.213 142.37 245.199 142.496 245.141 142.604C245.082 142.712 244.984 142.793 244.866 142.829C244.554 142.92 244.223 143.014 243.907 143.114C243.841 143.657 243.804 144.203 243.795 144.75C243.798 144.952 243.811 145.153 243.836 145.353V145.353Z" fill="white"/>
<path d="M247.918 141.905C247.235 142.72 246.505 143.494 245.731 144.222C245.394 144.535 245.106 144.806 244.888 144.994L244.644 145.209L244.579 145.266L244.557 145.284L244.522 145.319C244.385 145.47 244.23 145.605 244.06 145.719C244.026 145.742 243.991 145.761 243.954 145.778C243.947 145.766 243.941 145.753 243.935 145.74C243.891 145.615 243.862 145.485 243.848 145.353C243.826 145.153 243.816 144.952 243.816 144.75C243.825 144.203 243.863 143.657 243.929 143.113C243.598 143.22 243.273 143.329 242.954 143.441C242.91 143.888 242.879 144.338 242.879 144.75C242.879 144.791 242.879 144.831 242.879 144.872C242.874 145.243 242.922 145.614 243.02 145.972C243.074 146.158 243.172 146.329 243.304 146.471C243.38 146.552 243.471 146.616 243.573 146.659C243.678 146.706 243.792 146.73 243.907 146.731C244.142 146.72 244.37 146.643 244.563 146.509V146.509C244.781 146.362 244.981 146.19 245.16 145.997C245.297 145.881 246.409 144.916 247.543 143.738C248.148 143.119 248.705 142.456 249.211 141.755C249.32 141.598 249.42 141.442 249.523 141.289C249.438 141.306 249.349 141.3 249.267 141.27C249.202 141.246 249.143 141.207 249.095 141.157C249.047 141.107 249.011 141.046 248.989 140.98L248.505 141.139C248.333 141.377 248.133 141.639 247.918 141.905Z" fill="#0E101A"/>
<path d="M244.622 141.926C244.739 141.894 244.864 141.909 244.97 141.967C245.076 142.025 245.155 142.123 245.191 142.239L248.502 141.136L248.986 140.977C248.952 140.875 248.952 140.766 248.986 140.664C249.106 140.366 249.172 140.049 249.18 139.727C249.187 139.534 249.152 139.342 249.078 139.164C249.003 138.986 248.891 138.827 248.749 138.696C248.615 138.572 248.46 138.472 248.293 138.4L243.351 138.59C243.289 138.592 243.228 138.583 243.17 138.561C243.113 138.54 243.06 138.507 243.014 138.465C242.969 138.423 242.933 138.373 242.907 138.317C242.882 138.261 242.867 138.2 242.865 138.139C242.863 138.077 242.873 138.016 242.894 137.958C242.916 137.9 242.948 137.848 242.99 137.802C243.032 137.757 243.082 137.721 243.138 137.695C243.194 137.67 243.255 137.655 243.316 137.653L248.355 137.459C248.561 137.464 248.766 137.426 248.958 137.349C249.149 137.272 249.323 137.157 249.469 137.011C249.615 136.866 249.73 136.692 249.807 136.5C249.884 136.309 249.921 136.104 249.917 135.898C249.915 135.495 249.776 135.105 249.523 134.792C249.199 134.399 248.764 134.115 248.274 133.976L242.735 134.579C242.611 134.593 242.487 134.557 242.389 134.479C242.292 134.4 242.229 134.287 242.215 134.162C242.202 134.038 242.238 133.913 242.316 133.816C242.394 133.718 242.508 133.656 242.632 133.642L248.255 133.018C248.655 132.985 249.027 132.798 249.292 132.496C249.495 132.227 249.598 131.895 249.583 131.559C249.58 131.21 249.5 130.867 249.348 130.553C249.229 130.283 249.042 130.048 248.805 129.872C248.703 129.797 248.581 129.754 248.455 129.75H248.399L241.383 131.212C241.261 131.237 241.134 131.212 241.031 131.144C240.927 131.075 240.855 130.968 240.83 130.847C240.805 130.725 240.83 130.598 240.898 130.494C240.967 130.391 241.074 130.319 241.195 130.294L248.121 128.869C248.166 128.824 248.203 128.771 248.23 128.713C248.275 128.589 248.298 128.458 248.296 128.326C248.281 127.958 248.173 127.6 247.983 127.286C247.799 126.947 247.524 126.666 247.19 126.473C246.981 126.357 246.745 126.295 246.506 126.295C246.262 126.298 246.022 126.356 245.803 126.464H245.772H245.74L240.393 128.088C240.276 128.117 240.153 128.1 240.049 128.04C239.944 127.98 239.867 127.883 239.832 127.768C239.798 127.653 239.809 127.529 239.863 127.422C239.918 127.314 240.011 127.232 240.124 127.192L245.434 125.586L245.619 125.502L246.218 125.211C246.734 124.965 247.468 124.609 248.296 124.181C249.976 123.325 252.122 122.178 253.978 121.026C255.068 120.377 256.1 119.636 257.064 118.811C257.4 118.53 257.687 118.196 257.913 117.821C257.967 117.733 257.998 117.633 258.004 117.53C258.009 117.507 258.009 117.482 258.004 117.458C257.989 117.429 257.968 117.403 257.945 117.38C257.847 117.29 257.729 117.224 257.601 117.187C257.415 117.133 257.223 117.108 257.029 117.112C256.553 117.127 256.079 117.201 255.621 117.333C254.984 117.51 254.358 117.725 253.746 117.977C252.366 118.527 250.741 119.311 248.97 120.207C245.425 122.006 241.277 124.268 237.163 126.105C234.976 127.076 233.102 128.894 231.521 131.125C229.934 133.427 228.623 135.907 227.614 138.515C226.861 140.389 226.261 142.229 225.799 143.825C228.276 144.138 230.744 145.106 232.721 146.065C233.283 146.337 233.802 146.612 234.283 146.868C234.548 146.681 234.823 146.493 235.111 146.303C238.039 144.366 241.247 142.891 244.622 141.926V141.926Z" fill="white"/>
<path d="M241.814 143.863C242.183 143.719 242.558 143.576 242.942 143.441C243.261 143.329 243.586 143.22 243.917 143.113C244.229 143.013 244.541 142.92 244.876 142.829C244.993 142.793 245.092 142.712 245.15 142.604C245.208 142.496 245.222 142.369 245.188 142.251C245.19 142.244 245.19 142.237 245.188 142.229C245.153 142.114 245.073 142.016 244.967 141.958C244.861 141.9 244.736 141.885 244.62 141.917V141.917C241.245 142.881 238.039 144.356 235.111 146.29C234.824 146.481 234.549 146.668 234.283 146.856C234.596 147.037 234.908 147.209 235.186 147.368C235.929 146.859 236.748 146.337 237.685 145.825C238.719 145.243 239.784 144.717 240.874 144.247C241.18 144.12 241.494 143.992 241.814 143.863Z" fill="#0E101A"/>
<path d="M225.812 143.823C226.274 142.23 226.874 140.387 227.626 138.513C228.63 135.905 229.937 133.425 231.518 131.122C233.105 128.892 234.986 127.061 237.16 126.102C241.274 124.265 245.422 122.004 248.967 120.205C250.739 119.308 252.363 118.524 253.744 117.974C254.355 117.722 254.981 117.507 255.618 117.331C256.076 117.199 256.55 117.124 257.027 117.109C257.22 117.105 257.412 117.131 257.598 117.184C257.726 117.221 257.844 117.287 257.942 117.378C257.966 117.4 257.986 117.427 258.001 117.456C258.006 117.479 258.006 117.504 258.001 117.528C257.995 117.63 257.964 117.73 257.911 117.818C257.683 118.194 257.395 118.53 257.058 118.811C256.094 119.637 255.062 120.378 253.972 121.026C252.116 122.179 249.97 123.325 248.29 124.181C247.449 124.609 246.728 124.965 246.212 125.212L245.613 125.502L245.428 125.587H245.463C245.521 125.566 245.582 125.557 245.644 125.561C245.705 125.564 245.765 125.579 245.821 125.606C245.876 125.632 245.926 125.67 245.967 125.715C246.009 125.761 246.04 125.814 246.061 125.873C246.081 125.931 246.09 125.992 246.087 126.054C246.084 126.115 246.068 126.175 246.042 126.231C246.015 126.286 245.978 126.336 245.932 126.377C245.886 126.418 245.833 126.45 245.775 126.471H245.806C246.025 126.363 246.265 126.305 246.509 126.302C246.749 126.302 246.984 126.363 247.193 126.48C247.528 126.672 247.802 126.953 247.987 127.292C248.177 127.607 248.284 127.965 248.299 128.332C248.299 128.463 248.276 128.592 248.23 128.714C248.205 128.777 248.169 128.835 248.124 128.885L248.268 128.857C248.328 128.845 248.39 128.845 248.451 128.856C248.511 128.868 248.569 128.892 248.62 128.925C248.671 128.959 248.715 129.003 248.75 129.054C248.784 129.105 248.808 129.162 248.821 129.223C248.833 129.283 248.833 129.345 248.822 129.406C248.81 129.466 248.786 129.523 248.752 129.575C248.718 129.626 248.675 129.67 248.624 129.705C248.573 129.739 248.515 129.763 248.455 129.776H248.433H248.49C248.616 129.78 248.738 129.822 248.839 129.897C249.077 130.073 249.264 130.308 249.383 130.578C249.535 130.892 249.615 131.236 249.617 131.584C249.632 131.921 249.53 132.252 249.327 132.521C249.062 132.824 248.69 133.011 248.29 133.043V133.043C248.351 133.036 248.413 133.042 248.473 133.059C248.532 133.076 248.588 133.105 248.636 133.144C248.684 133.182 248.724 133.23 248.754 133.285C248.784 133.339 248.803 133.398 248.81 133.46C248.816 133.522 248.811 133.584 248.794 133.643C248.776 133.703 248.748 133.758 248.709 133.806C248.67 133.855 248.622 133.895 248.568 133.925C248.514 133.954 248.454 133.973 248.393 133.98H248.29C248.779 134.118 249.215 134.403 249.539 134.795C249.792 135.109 249.93 135.499 249.933 135.901C249.937 136.107 249.899 136.312 249.822 136.504C249.745 136.695 249.631 136.869 249.485 137.015C249.339 137.161 249.165 137.276 248.973 137.353C248.782 137.43 248.577 137.467 248.371 137.463C248.495 137.459 248.616 137.505 248.706 137.59C248.797 137.676 248.85 137.793 248.853 137.917C248.857 138.042 248.811 138.162 248.726 138.253C248.641 138.343 248.523 138.396 248.399 138.4H248.305C248.473 138.472 248.627 138.573 248.761 138.697C248.904 138.827 249.016 138.987 249.09 139.165C249.165 139.343 249.2 139.535 249.192 139.728C249.185 140.049 249.119 140.367 248.999 140.665C248.964 140.766 248.964 140.876 248.999 140.977C249.02 141.043 249.057 141.104 249.105 141.154C249.153 141.204 249.212 141.243 249.277 141.268C249.359 141.297 249.447 141.304 249.533 141.286C249.611 141.271 249.683 141.235 249.744 141.184C249.804 141.133 249.851 141.067 249.88 140.993C250.039 140.589 250.125 140.159 250.133 139.725C250.136 139.347 250.049 138.974 249.88 138.637C249.785 138.451 249.662 138.279 249.517 138.128C249.783 138.002 250.022 137.827 250.223 137.613C250.653 137.144 250.889 136.531 250.885 135.895C250.882 135.283 250.673 134.69 250.292 134.211C250.088 133.952 249.845 133.728 249.57 133.546C249.759 133.422 249.928 133.269 250.07 133.093C250.401 132.66 250.575 132.129 250.564 131.584C250.56 130.936 250.365 130.304 250.004 129.766C249.84 129.513 249.628 129.293 249.38 129.12C249.305 129.069 249.225 129.025 249.142 128.988C249.216 128.775 249.253 128.552 249.252 128.326C249.233 127.611 248.974 126.922 248.518 126.371C248.284 126.078 247.995 125.834 247.668 125.652L247.587 125.615C248.836 124.99 250.557 124.115 252.297 123.135C253.843 122.279 255.332 121.326 256.755 120.28C257.308 119.876 257.82 119.419 258.282 118.915C258.465 118.712 258.623 118.488 258.754 118.249C258.878 118.027 258.945 117.778 258.951 117.524C258.951 117.496 258.951 117.465 258.951 117.437C258.943 117.312 258.914 117.19 258.866 117.075C258.8 116.932 258.708 116.803 258.595 116.694C258.392 116.506 258.15 116.367 257.886 116.287C257.609 116.204 257.321 116.164 257.033 116.169C256.475 116.183 255.92 116.268 255.383 116.422C254.123 116.793 252.895 117.264 251.71 117.831C247.571 119.724 242.127 122.86 236.785 125.243C234.317 126.349 232.281 128.389 230.603 130.8C230.276 131.269 229.964 131.751 229.666 132.246C229.501 132.518 229.354 132.796 229.179 133.077C227.544 136.064 226.225 139.213 225.243 142.473C225.109 142.908 224.987 143.326 224.868 143.723C225.177 143.751 225.493 143.782 225.812 143.823Z" fill="#0E101A"/>
<path d="M91.8805 227.559C90.1937 219.75 86.8826 202.164 86.8826 184.662C86.8826 178.177 87.3386 171.701 88.5069 165.729C89.0434 162.917 89.791 160.15 90.7435 157.451C88.5944 161.084 85.8861 165.969 83.1748 171.661C77.2397 184.156 71.286 200.539 71.3047 216.017C71.3047 223.583 72.7166 230.927 76.2183 237.521C79.4294 243.559 84.065 248.304 89.5315 252.03C91.4397 253.322 93.4272 254.492 95.4821 255.535C92.2616 246.732 91.6462 238.158 91.6431 232.854C91.6312 231.086 91.7105 229.319 91.8805 227.559V227.559Z" fill="#0E101A"/>
<path d="M75.3777 237.952C78.6638 244.143 83.4212 249.001 88.9876 252.796C91.2165 254.304 93.5495 255.653 95.969 256.832C95.8004 256.401 95.6379 255.97 95.4817 255.542C93.4211 254.494 91.4284 253.319 89.5155 252.021C84.049 248.295 79.4135 243.55 76.2023 237.512C72.7007 230.918 71.2888 223.574 71.2888 216.008C71.2888 200.524 77.2238 184.147 83.1588 171.652C85.8701 165.96 88.5784 161.075 90.7275 157.442C91.6402 154.845 92.8343 152.355 94.2885 150.017V150.017C94.2885 150.033 88.3004 158.679 82.3185 171.243C76.6553 183.144 70.9826 198.55 70.3954 213.5C70.3621 214.333 70.3444 215.166 70.3423 215.999C70.3517 223.689 71.7854 231.192 75.3777 237.952Z" fill="#0E101A"/>
<path d="M217.78 281.637C220.067 292.382 221.007 306.433 221.007 320.261C221.007 336.251 219.758 351.929 217.846 361.837C217.221 365.102 216.522 367.738 215.762 369.581C215.749 369.672 215.742 369.764 215.741 369.856C215.743 370.208 215.825 370.555 215.981 370.871C216.165 371.245 216.409 371.587 216.703 371.883C217.518 372.672 218.456 373.324 219.48 373.814C221.835 375.029 225.065 376.053 228.395 376.881C233.426 378.078 238.523 378.98 243.66 379.583C243.66 379.533 243.694 379.48 243.716 379.418C243.832 379.074 244.001 378.565 244.219 377.896C244.653 376.563 245.272 374.604 246.019 372.111C247.505 367.113 249.492 359.998 251.479 351.436C254.893 336.72 258.304 317.765 259.194 298.192C257.114 291.411 254.399 285.151 250.87 280.075C246.546 273.843 241.033 269.379 233.964 267.777C230.174 266.901 226.297 266.453 222.407 266.44C219.133 266.444 215.868 266.775 212.661 267.427C212.87 267.739 213.073 268.077 213.285 268.42C215.16 271.716 216.637 276.264 217.78 281.637Z" fill="white"/>
<path d="M241.393 226.228C239.967 224.967 238.438 223.826 236.823 222.817C229.951 218.532 221.929 216.907 213.708 216.907C201.584 216.907 189.077 220.453 179.413 224.123C174.765 225.888 170.21 227.886 165.765 230.111C173.909 228.068 193.369 223.842 215.098 223.842C223.691 223.842 232.643 224.504 241.393 226.228Z" fill="white"/>
<path d="M165.765 230.112C170.215 227.886 174.775 225.888 179.428 224.124C189.093 220.453 201.606 216.905 213.723 216.908C221.932 216.908 229.966 218.532 236.838 222.818C238.453 223.826 239.982 224.967 241.408 226.229C241.998 226.348 242.592 226.469 243.182 226.594C241.401 224.867 239.44 223.334 237.335 222.021C230.272 217.617 222.063 215.971 213.735 215.971C201.034 215.971 188.024 219.791 178.175 223.605C172.743 225.694 167.444 228.116 162.31 230.858V231.03C162.954 230.839 164.137 230.521 165.765 230.112Z" fill="#0E101A"/>
<path d="M244.423 380.245C244.423 380.223 257.62 342.405 259.994 300.928C259.738 300.006 259.472 299.094 259.195 298.192C258.304 317.765 254.893 336.72 251.479 351.432C249.493 359.994 247.506 367.122 246.019 372.108C245.272 374.607 244.654 376.559 244.22 377.893C244.001 378.561 243.832 379.071 243.717 379.414C243.695 379.477 243.676 379.53 243.661 379.58C238.524 378.977 233.427 378.075 228.395 376.878C225.065 376.05 221.835 375.025 219.48 373.81C218.456 373.321 217.519 372.669 216.703 371.88C216.409 371.584 216.166 371.242 215.982 370.868C215.828 370.554 215.747 370.211 215.744 369.862C215.745 369.77 215.753 369.678 215.766 369.587C216.525 367.744 217.222 365.108 217.85 361.843C219.755 351.935 221.008 336.257 221.011 320.267C221.011 306.439 220.074 292.388 217.784 281.643C216.641 276.27 215.163 271.722 213.267 268.42C213.067 268.076 212.864 267.745 212.642 267.427L211.655 267.636C212.756 269.303 213.656 271.094 214.339 272.971C216.385 278.328 217.821 285.635 218.737 293.856C219.657 302.629 220.099 311.446 220.061 320.267C220.077 330.236 219.58 340.199 218.571 350.117C218.106 354.49 217.547 358.398 216.919 361.675C216.291 364.951 215.588 367.563 214.86 369.3C214.844 369.336 214.833 369.375 214.829 369.415C214.811 369.563 214.804 369.713 214.807 369.862C214.81 370.386 214.939 370.903 215.182 371.368C215.632 372.255 216.431 373.023 217.462 373.72C217.8 373.948 218.171 374.169 218.562 374.385C218.827 374.532 219.105 374.676 219.393 374.819C221.08 375.62 222.827 376.289 224.619 376.818C228.836 378.112 233.655 379.046 237.426 379.658C239.35 379.97 240.999 380.198 242.155 380.348L243.092 380.467L243.935 380.564C244.041 380.573 244.146 380.547 244.235 380.489C244.323 380.431 244.389 380.345 244.423 380.245V380.245Z" fill="#0E101A"/>
<path d="M95.7944 253.583C98.4682 261.661 103.26 270.054 111.778 276.314C117.454 280.487 124.795 283.717 134.297 285.263C135.781 285.507 137.227 285.701 138.648 285.863H156.866C165.097 284.857 172.215 282.549 178.828 279.825C187.721 276.164 195.696 271.75 204.218 268.789C209.896 266.818 215.822 265.497 222.404 265.497C226.366 265.51 230.314 265.966 234.174 266.859C241.518 268.52 247.234 273.172 251.645 279.535C256.055 285.898 259.191 293.988 261.422 302.619C265.876 319.88 266.71 339.334 266.71 351.545C266.71 357.524 266.51 361.763 266.435 363.159H295.27C295.27 363.056 295.298 362.937 295.317 362.796C295.379 362.29 295.473 361.547 295.582 360.579C295.804 358.648 296.098 355.849 296.391 352.37C296.982 345.407 297.569 335.723 297.569 324.844C297.569 313.011 296.873 299.76 294.727 287.047C292.581 274.334 288.979 262.204 283.197 252.58C279.342 246.164 274.526 240.87 268.516 237.249C252.7 227.703 233.127 224.754 215.085 224.754C187.487 224.754 163.491 231.627 162.042 232.051L161.985 232.067C161.689 232.176 155.369 234.472 146.879 236.771C138.183 239.126 127.219 241.485 118.073 241.488C116.598 241.488 115.167 241.426 113.802 241.291C104.712 240.401 99.4866 238.077 96.5222 235.94C93.5578 233.804 92.8675 231.848 92.8425 231.77V231.736C92.8425 231.736 92.7581 231.405 92.6144 230.799C92.5957 231.408 92.5801 232.089 92.5801 232.842C92.5801 237.765 93.1174 245.511 95.7944 253.583ZM140.401 244.79C143.096 244.165 144.733 243.206 145.711 242.4C146.255 241.986 146.703 241.458 147.023 240.854V240.854C147.07 240.739 147.161 240.647 147.276 240.599C147.391 240.551 147.52 240.551 147.635 240.598C147.75 240.645 147.842 240.736 147.89 240.851C147.938 240.966 147.938 241.095 147.891 241.21C147.548 241.898 147.06 242.503 146.461 242.984C145.389 243.921 143.577 245.005 140.619 245.696C140.559 245.712 140.495 245.716 140.433 245.707C140.37 245.699 140.311 245.678 140.257 245.645C140.203 245.613 140.156 245.57 140.118 245.519C140.081 245.469 140.055 245.411 140.041 245.35C140.026 245.288 140.025 245.225 140.035 245.163C140.046 245.101 140.069 245.042 140.104 244.989C140.138 244.936 140.182 244.891 140.234 244.855C140.286 244.82 140.345 244.796 140.407 244.783L140.401 244.79Z" fill="white"/>
<path d="M156.928 286.8H138.589C141.681 287.156 144.791 287.337 147.904 287.343C150.92 287.346 153.934 287.164 156.928 286.8V286.8Z" fill="#0E101A"/>
<path d="M138.642 285.863C137.221 285.7 135.774 285.507 134.291 285.263C124.788 283.717 117.448 280.487 111.772 276.314C103.254 270.066 98.4619 261.66 95.788 253.583C93.1141 245.505 92.58 237.764 92.58 232.86C92.58 232.107 92.58 231.426 92.6143 230.817C92.4456 230.102 92.1895 228.996 91.8803 227.559C91.7097 229.324 91.6305 231.096 91.6429 232.869C91.6429 238.18 92.2676 246.748 95.4819 255.55C95.6381 255.978 95.7942 256.409 95.9692 256.841C96.6797 258.645 97.491 260.409 98.3994 262.123C101.482 268.012 105.861 273.125 111.207 277.076C116.189 280.74 122.417 283.676 130.17 285.429C130.867 285.585 131.57 285.741 132.291 285.872L138.642 285.863Z" fill="#0E101A"/>
<path d="M241.392 226.228C232.646 224.504 223.691 223.842 215.094 223.842C193.366 223.842 173.905 228.068 165.762 230.111C164.137 230.52 162.95 230.839 162.31 231.023C162.31 231.426 162.31 231.648 162.31 231.648C162.31 231.745 162.28 231.839 162.224 231.918C162.168 231.996 162.089 232.056 161.998 232.088H161.982L162.038 232.073C163.488 231.648 187.484 224.776 215.082 224.776C233.124 224.776 252.697 227.718 268.512 237.271C274.51 240.891 279.327 246.186 283.194 252.602C288.976 262.226 292.565 274.371 294.723 287.068C296.882 299.766 297.569 313.017 297.566 324.865C297.566 335.745 296.979 345.428 296.388 352.391C296.095 355.871 295.801 358.67 295.579 360.6C295.47 361.565 295.376 362.312 295.314 362.818C295.295 362.958 295.279 363.077 295.267 363.18H266.432C266.507 361.784 266.707 357.558 266.707 351.566C266.707 339.356 265.873 319.901 261.418 302.64C259.188 294.009 256.055 285.922 251.641 279.556C247.228 273.19 241.514 268.52 234.174 266.858C230.312 265.966 226.363 265.509 222.4 265.496C215.819 265.496 209.906 266.818 204.214 268.789C195.693 271.75 187.718 276.164 178.825 279.825C172.212 282.548 165.081 284.857 156.862 285.863H162.694C172.197 283.932 180.24 280.381 187.862 276.845C193.484 274.227 198.91 271.622 204.52 269.66C206.861 268.84 209.247 268.158 211.667 267.617L212.655 267.408C215.862 266.756 219.127 266.425 222.4 266.421C226.291 266.434 230.167 266.882 233.958 267.758C241.027 269.36 246.54 273.824 250.864 280.056C254.393 285.138 257.111 291.398 259.188 298.173C259.465 299.077 259.732 299.989 259.988 300.909C261.337 305.861 262.407 310.885 263.193 315.956C265.295 329.21 265.764 342.401 265.764 351.526C265.764 355.199 265.689 358.214 265.61 360.31C265.573 361.356 265.535 362.184 265.507 362.73C265.492 363.008 265.482 363.221 265.473 363.355C265.464 363.489 265.473 363.568 265.473 363.568C265.469 363.631 265.478 363.695 265.499 363.755C265.521 363.816 265.554 363.871 265.598 363.917C265.642 363.965 265.695 364.002 265.754 364.028C265.813 364.054 265.877 364.067 265.942 364.067H295.682C295.795 364.066 295.905 364.025 295.99 363.95C296.075 363.876 296.131 363.773 296.148 363.661C297.736 350.774 298.524 337.8 298.509 324.815C298.509 308.987 297.26 290.626 292.977 274.355C291.894 270.194 290.548 266.106 288.948 262.116C287.559 258.654 285.904 255.305 283.996 252.099C280.082 245.583 275.166 240.163 269.003 236.449C261.078 231.667 252.25 228.534 243.16 226.581C242.576 226.484 241.983 226.347 241.392 226.228Z" fill="#0E101A"/>
<path d="M131.639 133.686H131.657H131.72L131.964 133.733C132.179 133.774 132.491 133.827 132.879 133.883C133.879 134.022 134.887 134.093 135.896 134.096C137.269 134.117 138.638 133.932 139.957 133.549C141.24 133.197 142.376 132.441 143.196 131.394C143.918 130.413 144.393 129.07 144.677 127.558C144.95 125.965 145.077 124.351 145.055 122.735C145.055 121.154 144.967 119.611 144.877 118.284C144.786 116.956 144.699 115.838 144.699 115.082C144.699 114.91 144.699 114.769 144.699 114.619C144.736 114.173 144.861 113.589 144.974 112.88C145.111 112.091 145.184 111.293 145.192 110.493C145.202 110.11 145.187 109.728 145.149 109.347L145.08 109.437C144.184 110.582 143.057 111.526 141.772 112.208C141.074 112.557 140.306 112.742 139.526 112.748C138.889 112.748 138.259 112.619 137.674 112.37C137.633 112.552 137.572 112.728 137.492 112.895C137.327 113.223 137.085 113.506 136.786 113.72C136.189 114.101 135.515 114.347 134.812 114.441C134.341 114.532 133.875 114.601 133.416 114.694C132.866 114.786 132.337 114.975 131.854 115.254C131.616 115.402 131.41 115.597 131.251 115.828C130.958 116.305 130.817 116.859 130.845 117.418C130.869 118.124 130.96 118.826 131.117 119.514C131.27 120.161 131.367 120.819 131.404 121.482C131.412 121.748 131.366 122.012 131.27 122.26C131.161 122.525 130.959 122.742 130.702 122.869C130.519 122.955 130.322 123.004 130.121 123.013H129.986C129.789 123.016 129.594 122.976 129.415 122.894C129.241 122.809 129.097 122.672 129.002 122.504C128.947 122.406 128.907 122.301 128.884 122.191C128.852 122.052 128.838 121.909 128.84 121.766C128.852 121.453 128.881 121.14 128.927 120.829C128.975 120.519 129.002 120.206 129.008 119.892C129.02 119.585 128.961 119.28 128.837 118.999C128.69 118.716 128.448 118.495 128.153 118.374C127.828 118.234 127.483 118.144 127.131 118.109C126.981 118.091 126.83 118.081 126.678 118.081C126.36 118.062 126.044 118.138 125.769 118.299C125.567 118.436 125.412 118.633 125.326 118.861C125.249 119.055 125.194 119.258 125.163 119.464C125.116 119.803 125.094 120.144 125.098 120.486C125.098 121.176 125.16 121.935 125.16 122.641C125.165 122.967 125.145 123.293 125.101 123.616C125.061 123.921 124.966 124.218 124.823 124.49C124.722 124.675 124.585 124.838 124.42 124.968C124.378 124.999 124.331 125.024 124.282 125.043C123.659 125.246 123.007 125.346 122.352 125.34C121.421 125.324 120.496 125.177 119.606 124.903C119.434 125.84 119.341 126.465 119.313 126.661V126.73C119.306 126.783 119.29 126.835 119.266 126.883L113.171 138.563C114.052 138.488 114.955 138.447 115.889 138.447C119.746 138.423 123.574 139.125 127.172 140.515L131.145 133.924C131.192 133.838 131.265 133.769 131.354 133.726C131.442 133.684 131.542 133.67 131.639 133.686V133.686Z" fill="white"/>
<path d="M113.159 138.54L119.253 126.861C119.278 126.813 119.294 126.761 119.3 126.708V126.639C119.328 126.442 119.422 125.814 119.594 124.88C119.281 124.79 118.988 124.687 118.697 124.568C118.507 125.58 118.407 126.267 118.385 126.486L112.038 138.656C112.409 138.609 112.784 138.571 113.159 138.54Z" fill="#0E101A"/>
<path d="M145.148 109.347C145.198 109.731 145.223 110.118 145.223 110.505C145.215 111.306 145.142 112.104 145.005 112.892C144.892 113.601 144.767 114.185 144.73 114.632C144.73 114.769 144.73 114.922 144.73 115.094C144.73 115.85 144.82 116.968 144.908 118.296C144.995 119.624 145.086 121.167 145.086 122.747C145.108 124.363 144.981 125.977 144.708 127.57C144.424 129.082 143.949 130.425 143.227 131.406C142.407 132.454 141.271 133.209 139.988 133.561C138.669 133.945 137.3 134.129 135.927 134.108C134.918 134.105 133.91 134.034 132.91 133.896C132.522 133.839 132.21 133.786 131.994 133.746L131.716 133.711H131.654H131.635C131.539 133.69 131.438 133.699 131.347 133.738C131.257 133.776 131.18 133.843 131.129 133.927L127.156 140.518C127.453 140.633 127.746 140.752 128.037 140.877L131.763 134.692C133.126 134.942 134.508 135.069 135.893 135.073C137.366 135.096 138.834 134.897 140.247 134.483C141.722 134.071 143.024 133.195 143.961 131.984C144.805 130.831 145.304 129.36 145.607 127.764C145.89 126.113 146.022 124.44 146.001 122.766C146.001 121.151 145.91 119.589 145.823 118.252C145.735 116.915 145.642 115.8 145.642 115.129C145.642 114.975 145.642 114.844 145.657 114.744C145.682 114.401 145.807 113.807 145.923 113.07C146.067 112.233 146.143 111.386 146.151 110.537C146.156 109.806 146.077 109.078 145.917 108.366C145.67 108.681 145.414 109.034 145.148 109.347Z" fill="#0E101A"/>
<path d="M127.184 186.374C124.353 182.538 122.058 178.334 120.362 173.879C119.591 172.076 119.256 170.983 119.25 170.968C119.214 170.849 119.227 170.72 119.285 170.611C119.344 170.501 119.444 170.42 119.562 170.383C119.646 170.358 119.736 170.356 119.82 170.38C119.905 170.403 119.981 170.45 120.04 170.515L140.438 151.588C137.627 148.208 134.431 145.375 130.82 143.295C126.28 140.676 121.121 139.321 115.88 139.371C110.257 139.371 105.734 140.771 102.07 143.21C98.4057 145.65 95.6038 149.145 93.489 153.378C89.2564 161.834 87.8164 173.22 87.8164 184.671C87.8164 206.537 93.0361 228.612 93.6858 231.27C93.7171 231.398 93.7389 231.48 93.7483 231.514L93.7639 231.558C93.7827 231.602 93.8139 231.673 93.8607 231.764C94.0047 232.045 94.1697 232.314 94.3543 232.57C95.1135 233.592 96.0346 234.484 97.0813 235.209C99.8926 237.23 104.937 239.511 113.905 240.388C115.236 240.52 116.636 240.582 118.085 240.582C126.519 240.582 136.637 238.527 144.999 236.337C153.361 234.147 159.911 231.851 161.379 231.324V231.202C161.379 230.905 161.379 230.464 161.357 229.893C161.332 228.75 161.282 227.082 161.179 225.004C160.976 220.84 160.573 215.008 159.761 208.305C159.705 207.836 159.646 207.368 159.586 206.884C158.093 206.523 156.65 206.121 155.257 205.675C141.35 201.686 132.563 193.686 127.184 186.374Z" fill="#0E101A"/>
<path d="M143.971 155.124C144.908 156.558 146.011 158.248 147.285 160.122C145.963 157.686 144.475 155.344 142.831 153.113C142.365 152.488 141.894 151.882 141.406 151.289C141.644 151.601 141.925 152.001 142.262 152.504C142.734 153.203 143.305 154.094 143.971 155.124Z" fill="#0E101A"/>
<path d="M90.7431 157.451C89.7878 160.155 89.038 162.927 88.5003 165.744C87.332 171.717 86.876 178.192 86.876 184.677C86.876 202.17 90.1933 219.762 91.8739 227.575C92.1862 229.012 92.4393 230.117 92.6079 230.833C92.7516 231.442 92.8329 231.77 92.836 231.77V231.804C92.861 231.882 93.5482 233.835 96.5157 235.974C99.4832 238.114 104.706 240.435 113.796 241.325C115.161 241.46 116.592 241.522 118.066 241.522C127.212 241.522 138.176 239.161 146.873 236.805C155.363 234.506 161.682 232.21 161.979 232.101H161.994C162.086 232.069 162.165 232.009 162.22 231.93C162.276 231.851 162.307 231.757 162.307 231.661C162.307 231.661 162.307 231.445 162.307 231.036V230.858C162.14 222.919 161.554 214.995 160.551 207.118C160.223 207.046 159.902 206.965 159.58 206.887C159.639 207.365 159.699 207.824 159.755 208.308C160.567 215.002 160.97 220.843 161.173 225.007C161.276 227.091 161.326 228.756 161.351 229.896C161.351 230.467 161.37 230.908 161.373 231.205V231.326C159.905 231.854 153.32 234.16 144.992 236.34C136.664 238.52 126.506 240.585 118.079 240.585C116.629 240.585 115.23 240.522 113.899 240.391C104.931 239.514 99.8768 237.233 97.0748 235.212C96.0281 234.487 95.107 233.595 94.3478 232.573C94.1632 232.317 93.9982 232.047 93.8543 231.767C93.8074 231.676 93.7762 231.604 93.7575 231.561L93.7418 231.517C93.7418 231.483 93.7106 231.401 93.6794 231.273C93.0296 228.615 87.81 206.53 87.81 184.674C87.81 173.223 89.25 161.837 93.4826 153.381C95.5973 149.151 98.4024 145.656 102.063 143.213C105.724 140.771 110.254 139.374 115.873 139.374C121.114 139.324 126.273 140.679 130.814 143.298C134.425 145.378 137.614 148.211 140.432 151.591C140.382 151.547 140.342 151.494 140.315 151.434C140.287 151.374 140.273 151.309 140.273 151.243C140.272 151.177 140.286 151.111 140.312 151.051C140.339 150.99 140.378 150.936 140.427 150.892C140.476 150.848 140.533 150.814 140.596 150.794C140.659 150.773 140.725 150.766 140.791 150.773C140.857 150.78 140.92 150.801 140.977 150.834C141.034 150.868 141.084 150.913 141.122 150.966H141.138C138.264 147.53 135 144.619 131.282 142.476C130.233 141.872 129.15 141.331 128.037 140.855C127.746 140.73 127.453 140.611 127.156 140.496C123.558 139.106 119.73 138.404 115.873 138.428C114.936 138.428 114.036 138.468 113.156 138.543C112.781 138.575 112.406 138.612 112.04 138.659C108.293 139.068 104.696 140.359 101.545 142.426C98.6797 144.375 96.2512 146.898 94.4134 149.836L94.301 150.014C92.8471 152.355 91.654 154.849 90.7431 157.451V157.451ZM93.5326 231.314L93.5982 231.582C93.6185 231.663 93.606 231.748 93.5635 231.819C93.5211 231.89 93.452 231.942 93.3717 231.962C93.2913 231.982 93.2062 231.97 93.135 231.927C93.0638 231.885 93.0125 231.816 92.9922 231.736C92.9922 231.72 87.0353 208.117 87.0322 184.677C87.0322 183.307 87.054 181.938 87.0978 180.57C87.1002 180.487 87.1355 180.408 87.1959 180.351C87.2562 180.295 87.3367 180.264 87.4195 180.267C87.5023 180.269 87.5808 180.304 87.6376 180.365C87.6945 180.425 87.725 180.505 87.7225 180.588C87.6788 181.948 87.6569 183.311 87.6569 184.677C87.6725 206.54 92.8797 228.634 93.5326 231.298V231.314Z" fill="#0E101A"/>
<path d="M87.7226 180.567C87.725 180.484 87.6945 180.404 87.6377 180.343C87.5809 180.283 87.5024 180.248 87.4196 180.245C87.3367 180.243 87.2563 180.273 87.1959 180.33C87.1356 180.387 87.1003 180.465 87.0978 180.548C87.0541 181.914 87.0322 183.284 87.0322 184.656C87.0322 208.084 92.9891 231.699 92.9922 231.714C93.0125 231.795 93.0639 231.864 93.1351 231.906C93.2063 231.949 93.2914 231.961 93.3718 231.941C93.4521 231.92 93.5211 231.869 93.5636 231.798C93.6061 231.727 93.6185 231.642 93.5982 231.561L93.5326 231.293C92.8798 228.628 87.657 206.534 87.657 184.656C87.6674 183.296 87.6892 181.933 87.7226 180.567Z" fill="white"/>
<path d="M120.04 170.508C120.089 170.56 120.125 170.622 120.146 170.689V170.689V170.73L120.202 170.902C120.252 171.055 120.331 171.283 120.44 171.577C120.655 172.164 120.99 173.02 121.461 174.075C122.768 176.982 124.317 179.773 126.094 182.419C131.655 190.866 139.413 197.638 148.534 202.008C155.866 205.49 164.934 207.814 176.107 207.814C177.019 207.814 177.946 207.799 178.887 207.768C190.242 207.383 199.429 203.735 206.86 198.418C214.291 193.102 219.979 186.108 224.24 179.052C232.583 165.26 235.595 151.204 236.026 148.999L235.995 148.977C235.804 148.855 235.529 148.664 235.179 148.464C234.483 148.04 233.489 147.471 232.321 146.903C229.991 145.765 226.951 144.644 224.199 144.647C223.438 144.641 222.679 144.741 221.944 144.944C218.296 149.792 213.966 156.408 208.981 162.833C203.949 169.315 198.251 175.603 191.857 179.701C187.596 182.425 183.014 184.174 178.128 184.309L177.635 184.315C174.227 184.315 170.947 183.378 167.851 181.816C164.68 180.167 161.749 178.092 159.139 175.65C153.732 170.743 149.209 164.636 145.898 159.75C143.711 156.498 142.037 153.793 141.053 152.388C140.86 152.107 140.652 151.838 140.428 151.582V151.582L120.04 170.508Z" fill="#0E101A"/>
<path d="M140.463 150.916C140.418 150.958 140.381 151.008 140.355 151.064C140.329 151.12 140.314 151.18 140.312 151.241C140.309 151.303 140.319 151.364 140.34 151.422C140.361 151.48 140.393 151.533 140.435 151.578V151.578C140.658 151.835 140.867 152.104 141.06 152.384C142.044 153.79 143.702 156.495 145.905 159.747C149.209 164.635 153.733 170.742 159.127 175.659C161.738 178.098 164.669 180.169 167.839 181.816C170.935 183.378 174.215 184.315 177.622 184.315H178.135C183.02 184.18 187.603 182.44 191.863 179.707C198.258 175.615 203.955 169.327 208.987 162.839C213.985 156.414 218.302 149.798 221.951 144.95C222.685 144.747 223.444 144.647 224.206 144.653C226.952 144.653 229.991 145.771 232.328 146.908C233.496 147.474 234.489 148.042 235.186 148.47C235.536 148.683 235.811 148.861 236.001 148.983L236.032 149.004C235.601 151.191 232.596 165.248 224.234 179.051C219.958 186.114 214.285 193.108 206.854 198.418C199.423 203.728 190.236 207.383 178.881 207.767C177.942 207.799 177.015 207.814 176.101 207.814C164.928 207.814 155.86 205.49 148.528 202.007C139.41 197.637 131.654 190.865 126.094 182.419C124.329 179.777 122.79 176.991 121.493 174.091C121.021 173.032 120.687 172.176 120.471 171.592C120.362 171.298 120.284 171.07 120.234 170.917L120.178 170.745V170.705C120.157 170.637 120.121 170.575 120.072 170.524C120.013 170.459 119.936 170.412 119.852 170.388C119.767 170.365 119.678 170.367 119.594 170.392C119.475 170.428 119.375 170.51 119.317 170.62C119.258 170.729 119.245 170.858 119.281 170.976C119.281 170.992 119.622 172.085 120.393 173.888C120.02 172.914 119.698 171.921 119.428 170.914V170.914C119.416 170.873 119.411 170.83 119.416 170.788C119.421 170.746 119.434 170.705 119.455 170.667C119.476 170.63 119.504 170.598 119.539 170.572C119.573 170.547 119.612 170.528 119.653 170.518C119.694 170.508 119.738 170.507 119.78 170.514C119.822 170.521 119.862 170.537 119.897 170.56C119.933 170.584 119.964 170.614 119.987 170.65C120.011 170.685 120.027 170.725 120.034 170.767L120.053 170.845C120.069 170.898 120.09 170.98 120.118 171.083C120.178 171.295 120.272 171.607 120.4 172.02C120.656 172.819 121.062 173.972 121.649 175.378C123.248 179.154 125.284 182.73 127.715 186.033C133.65 194.082 143.699 202.957 160.33 206.277C160.411 206.293 160.482 206.341 160.529 206.409C160.575 206.478 160.592 206.562 160.577 206.643C160.569 206.683 160.553 206.722 160.53 206.756C160.507 206.79 160.478 206.82 160.444 206.843C160.409 206.866 160.371 206.882 160.33 206.89C160.29 206.898 160.248 206.898 160.208 206.89C158.499 206.549 156.859 206.146 155.282 205.693C156.675 206.139 158.118 206.542 159.611 206.902C159.924 206.98 160.255 207.061 160.583 207.133C165.687 208.252 170.898 208.804 176.123 208.779C177.046 208.779 177.983 208.764 178.934 208.733C190.848 208.333 200.463 204.378 208.147 198.677C219.68 190.128 226.889 177.683 231.228 167.384C235.567 157.085 237.029 148.917 237.035 148.895C237.05 148.807 237.04 148.716 237.006 148.633C236.972 148.55 236.915 148.478 236.841 148.427C236.841 148.427 236.217 147.995 235.217 147.405C234.945 147.246 234.642 147.074 234.314 146.893C233.843 146.637 233.324 146.362 232.752 146.09C230.775 145.131 228.307 144.166 225.83 143.85C225.518 143.81 225.206 143.779 224.878 143.763C224.659 143.763 224.443 143.741 224.225 143.741C223.322 143.734 222.423 143.859 221.557 144.113C221.463 144.142 221.38 144.2 221.32 144.278C216.387 150.813 210.29 160.487 203.052 168.584C199.438 172.629 195.556 176.277 191.379 178.936C187.203 181.594 182.783 183.24 178.11 183.378H177.635C173.037 183.378 168.633 181.575 164.559 178.786C158.446 174.609 153.105 168.228 149.05 162.608C148.425 161.755 147.854 160.924 147.298 160.109C146.023 158.257 144.911 156.551 143.983 155.111C143.318 154.08 142.734 153.19 142.275 152.484C141.937 151.981 141.65 151.578 141.419 151.269C141.322 151.147 141.235 151.041 141.153 150.957H141.138C141.097 150.908 141.047 150.869 140.991 150.84C140.934 150.812 140.872 150.795 140.809 150.791C140.746 150.787 140.683 150.797 140.623 150.818C140.564 150.84 140.509 150.873 140.463 150.916V150.916Z" fill="#0E101A"/>
<path d="M155.254 205.665C156.816 206.118 158.471 206.521 160.18 206.862C160.22 206.87 160.262 206.87 160.302 206.862C160.343 206.854 160.381 206.838 160.416 206.815C160.45 206.792 160.479 206.763 160.502 206.728C160.525 206.694 160.541 206.655 160.549 206.615C160.564 206.534 160.547 206.45 160.501 206.381C160.454 206.313 160.383 206.265 160.302 206.249C143.671 202.929 133.61 194.067 127.687 186.005C125.256 182.702 123.22 179.126 121.621 175.35C121.031 173.944 120.625 172.792 120.372 171.992C120.244 171.592 120.15 171.28 120.091 171.055C120.062 170.952 120.041 170.871 120.025 170.817L120.006 170.739C119.999 170.697 119.983 170.657 119.959 170.622C119.936 170.586 119.905 170.556 119.869 170.532C119.834 170.509 119.794 170.493 119.752 170.486C119.71 170.479 119.667 170.48 119.625 170.49C119.584 170.5 119.545 170.519 119.511 170.544C119.477 170.57 119.448 170.602 119.427 170.64C119.406 170.677 119.393 170.718 119.388 170.76C119.383 170.802 119.388 170.845 119.4 170.886C119.67 171.893 119.992 172.886 120.365 173.86C122.061 178.315 124.356 182.519 127.188 186.355C132.563 193.686 141.35 201.686 155.254 205.665Z" fill="white"/>
<path d="M122.346 124.381C122.869 124.385 123.389 124.309 123.889 124.156C123.931 124.113 123.968 124.065 123.998 124.012C124.053 123.905 124.095 123.792 124.123 123.675C124.195 123.328 124.226 122.973 124.217 122.619C124.217 121.966 124.154 121.207 124.154 120.464C124.147 120.025 124.182 119.587 124.258 119.155C124.327 118.736 124.487 118.337 124.726 117.987C124.901 117.75 125.125 117.554 125.382 117.412C125.781 117.209 126.225 117.109 126.672 117.121C126.861 117.122 127.05 117.134 127.238 117.159C127.879 117.207 128.496 117.422 129.027 117.784C129.43 118.082 129.718 118.51 129.843 118.996C129.917 119.281 129.953 119.575 129.949 119.87C129.942 120.23 129.913 120.589 129.861 120.945C129.818 121.219 129.791 121.495 129.78 121.772C129.78 121.845 129.786 121.917 129.799 121.988C129.804 122.014 129.813 122.04 129.827 122.063V122.063C129.876 122.081 129.928 122.088 129.98 122.085H130.052C130.152 122.088 130.251 122.058 130.333 122C130.386 121.946 130.421 121.876 130.433 121.801C130.454 121.698 130.463 121.593 130.461 121.488C130.423 120.887 130.332 120.29 130.189 119.705C130.022 118.955 129.926 118.192 129.902 117.424C129.871 116.677 130.069 115.939 130.467 115.306C130.729 114.919 131.078 114.598 131.486 114.369C131.872 114.156 132.285 113.994 132.713 113.888C133.557 113.67 134.431 113.576 135.144 113.401C135.551 113.322 135.936 113.157 136.274 112.917C136.425 112.799 136.548 112.65 136.634 112.479C136.753 112.217 136.813 111.931 136.808 111.642C136.81 111.561 136.833 111.482 136.874 111.412C136.915 111.342 136.973 111.284 137.043 111.243C137.113 111.203 137.193 111.182 137.274 111.182C137.355 111.182 137.435 111.203 137.505 111.243C138.117 111.606 138.814 111.802 139.526 111.811C140.144 111.804 140.753 111.661 141.31 111.392C141.933 111.088 142.509 110.697 143.022 110.23C144.18 109.144 145.18 107.9 145.992 106.535C147.066 104.782 147.989 102.941 148.75 101.031C148.594 100.971 148.401 100.902 148.169 100.825C147.526 100.6 146.608 100.3 145.505 100C143.318 99.4037 140.413 98.8071 137.639 98.8102C135.95 98.7676 134.268 99.0596 132.691 99.6692C131.208 100.264 129.988 101.372 129.255 102.793C129.205 102.892 129.121 102.969 129.019 103.012C128.916 103.054 128.802 103.059 128.696 103.024C128.293 102.893 127.871 102.827 127.447 102.827C126.372 102.827 125.26 103.249 124.161 104.005C122.95 104.883 121.876 105.936 120.975 107.129C118.953 109.781 117.356 112.732 116.242 115.875C115.558 117.799 115.177 119.552 115.18 120.726C115.161 121.112 115.225 121.498 115.367 121.857L115.436 121.904L115.905 122.2C116.311 122.444 116.886 122.772 117.567 123.1C118.932 123.74 120.715 124.384 122.346 124.381Z" fill="#0E101A"/>
<path d="M119.603 124.88C120.493 125.154 121.418 125.302 122.349 125.318C123.004 125.324 123.656 125.223 124.279 125.021C124.328 125.002 124.375 124.977 124.417 124.946C124.582 124.816 124.719 124.653 124.82 124.468C124.963 124.195 125.057 123.899 125.098 123.594C125.142 123.271 125.162 122.945 125.157 122.619C125.157 121.913 125.095 121.154 125.095 120.464C125.091 120.122 125.113 119.781 125.16 119.442C125.191 119.236 125.246 119.033 125.323 118.839C125.409 118.61 125.564 118.414 125.766 118.277C126.041 118.116 126.357 118.04 126.675 118.058C126.827 118.059 126.978 118.069 127.128 118.086C127.48 118.122 127.825 118.212 128.15 118.352C128.444 118.473 128.687 118.694 128.834 118.977C128.958 119.257 129.017 119.563 129.005 119.87C128.999 120.184 128.972 120.497 128.924 120.807C128.878 121.118 128.849 121.431 128.837 121.744C128.834 121.887 128.849 122.03 128.881 122.169C128.904 122.279 128.944 122.384 128.999 122.481C129.094 122.65 129.238 122.786 129.412 122.872C129.591 122.954 129.786 122.994 129.983 122.991H130.118C130.319 122.982 130.516 122.933 130.699 122.847C130.956 122.72 131.158 122.503 131.267 122.238C131.363 121.99 131.409 121.726 131.401 121.46C131.364 120.797 131.267 120.138 131.114 119.492C130.957 118.804 130.866 118.102 130.842 117.396C130.814 116.837 130.955 116.283 131.248 115.806C131.407 115.575 131.613 115.379 131.851 115.231C132.334 114.953 132.863 114.764 133.413 114.672C133.863 114.579 134.35 114.51 134.809 114.419C135.511 114.332 136.186 114.093 136.787 113.72C137.085 113.503 137.326 113.216 137.489 112.886C137.569 112.718 137.63 112.542 137.671 112.361C138.257 112.613 138.888 112.745 139.526 112.748C140.306 112.742 141.074 112.557 141.772 112.208C143.057 111.526 144.184 110.582 145.08 109.437L145.149 109.346C145.417 109.034 145.673 108.681 145.923 108.334C146.912 106.924 147.781 105.434 148.522 103.88C149.338 102.193 149.794 100.941 149.797 100.931C149.839 100.817 149.834 100.691 149.785 100.58C149.735 100.469 149.644 100.382 149.531 100.338C148.294 99.8627 147.032 99.4529 145.752 99.1101C143.506 98.5009 140.544 97.8856 137.63 97.8856C135.815 97.8432 134.01 98.1618 132.32 98.8227C130.765 99.4562 129.463 100.585 128.615 102.034C128.233 101.941 127.84 101.894 127.447 101.893C126.55 101.906 125.667 102.12 124.863 102.518C123.398 103.215 122.027 104.417 120.768 105.892C118.844 108.235 117.271 110.845 116.098 113.641C115.552 114.903 115.096 116.201 114.733 117.527C114.435 118.563 114.267 119.633 114.234 120.71C114.203 121.298 114.329 121.884 114.599 122.407C114.632 122.464 114.676 122.513 114.73 122.55C115.503 123.067 116.312 123.528 117.151 123.928C117.62 124.153 118.141 124.378 118.694 124.581C118.997 124.687 119.294 124.79 119.603 124.88ZM115.908 122.185L115.439 121.888L115.371 121.841C115.228 121.482 115.164 121.096 115.183 120.71C115.183 119.536 115.561 117.783 116.245 115.859C117.36 112.716 118.956 109.765 120.978 107.113C121.879 105.92 122.953 104.867 124.164 103.989C125.266 103.233 126.375 102.812 127.45 102.812C127.874 102.811 128.296 102.877 128.699 103.008C128.805 103.043 128.919 103.038 129.022 102.996C129.124 102.954 129.208 102.876 129.259 102.777C129.991 101.357 131.211 100.248 132.695 99.6536C134.276 99.0523 135.961 98.7699 137.652 98.8227C140.426 98.8227 143.324 99.4162 145.517 100.013C146.614 100.325 147.538 100.613 148.182 100.837C148.413 100.917 148.607 100.985 148.763 101.044C147.996 102.949 147.07 104.786 145.992 106.535C145.178 107.895 144.177 109.135 143.018 110.218C142.506 110.684 141.929 111.076 141.307 111.38C140.752 111.653 140.144 111.8 139.526 111.811C138.82 111.804 138.127 111.612 137.518 111.255C137.447 111.215 137.367 111.194 137.286 111.194C137.205 111.194 137.126 111.215 137.055 111.255C136.985 111.296 136.927 111.354 136.886 111.424C136.845 111.494 136.823 111.574 136.821 111.655C136.825 111.943 136.765 112.229 136.646 112.492C136.56 112.663 136.438 112.812 136.287 112.929C135.947 113.168 135.561 113.331 135.153 113.407C134.441 113.585 133.566 113.676 132.723 113.894C132.294 114 131.881 114.162 131.495 114.376C131.087 114.604 130.739 114.925 130.477 115.313C130.075 115.945 129.876 116.685 129.905 117.434C129.929 118.201 130.025 118.965 130.192 119.714C130.335 120.299 130.426 120.896 130.464 121.498C130.467 121.602 130.457 121.707 130.436 121.81C130.425 121.885 130.39 121.955 130.336 122.01C130.254 122.068 130.155 122.097 130.055 122.094H129.983C129.931 122.097 129.879 122.09 129.83 122.072V122.072C129.816 122.049 129.807 122.024 129.802 121.997C129.789 121.926 129.783 121.854 129.783 121.782C129.794 121.505 129.821 121.228 129.864 120.954C129.916 120.598 129.945 120.239 129.952 119.879C129.956 119.584 129.92 119.29 129.846 119.005C129.724 118.515 129.435 118.082 129.03 117.78C128.499 117.419 127.882 117.203 127.241 117.156C127.053 117.131 126.864 117.119 126.675 117.118C126.228 117.106 125.784 117.206 125.385 117.409C125.128 117.551 124.904 117.747 124.729 117.983C124.49 118.334 124.33 118.733 124.261 119.152C124.185 119.584 124.15 120.022 124.158 120.46C124.158 121.204 124.22 121.963 124.22 122.616C124.229 122.97 124.198 123.324 124.126 123.672C124.099 123.789 124.057 123.902 124.001 124.009C123.971 124.061 123.935 124.11 123.892 124.153C123.392 124.306 122.872 124.382 122.349 124.378C120.715 124.378 118.932 123.753 117.57 123.081C116.889 122.756 116.314 122.428 115.908 122.185V122.185Z" fill="#0E101A"/>
<path d="M140.607 245.702C143.565 245.011 145.376 243.928 146.448 242.99C147.048 242.51 147.536 241.904 147.879 241.216C147.909 241.107 147.899 240.989 147.849 240.887C147.8 240.784 147.715 240.703 147.61 240.659C147.505 240.614 147.388 240.61 147.279 240.646C147.171 240.681 147.08 240.755 147.023 240.854V240.854C146.701 241.454 146.253 241.977 145.711 242.388C144.742 243.194 143.106 244.146 140.4 244.777C140.339 244.789 140.28 244.814 140.228 244.849C140.176 244.884 140.131 244.93 140.097 244.982C140.063 245.035 140.04 245.095 140.029 245.156C140.018 245.218 140.02 245.282 140.034 245.343C140.048 245.405 140.075 245.462 140.112 245.513C140.149 245.564 140.196 245.607 140.25 245.639C140.304 245.671 140.364 245.693 140.426 245.701C140.489 245.71 140.552 245.706 140.613 245.689L140.607 245.702Z" fill="#0E101A"/>
<path d="M96.9316 336.067L96.9469 336.097V336.079L96.9316 336.067Z" fill="#0E101A"/>
<path d="M187.756 381.926H188.224V286.8H187.287V381.926H187.756Z" fill="#0E101A"/>
<path d="M106.056 318.989V286.8H105.119V319.595V362.712V381.926H106.056V364.064V318.989Z" fill="#0E101A"/>
<path d="M181.055 381.926H181.524V286.8H180.587V381.926H181.055Z" fill="#0E101A"/>
<path d="M98.415 382.395C98.415 382.519 98.4644 382.638 98.5523 382.726C98.6401 382.814 98.7593 382.863 98.8836 382.863H111.266C111.142 382.863 111.023 382.814 110.935 382.726C110.847 382.638 110.798 382.519 110.797 382.395V381.926H99.3521V286.8H110.788V286.332C110.789 286.208 110.838 286.089 110.925 286.001C111.013 285.913 111.132 285.863 111.257 285.863H98.8836C98.7593 285.863 98.6401 285.913 98.5523 286.001C98.4644 286.088 98.415 286.208 98.415 286.332V382.395Z" fill="#0E101A"/>
<path d="M110.788 286.332V382.395C110.789 382.519 110.838 382.638 110.926 382.726C111.013 382.814 111.132 382.863 111.257 382.863H193.438C193.562 382.863 193.681 382.814 193.769 382.726C193.857 382.638 193.906 382.519 193.906 382.395V286.332C193.906 286.208 193.857 286.088 193.769 286.001C193.681 285.913 193.562 285.863 193.438 285.863H111.266C111.142 285.863 111.023 285.913 110.935 286.001C110.844 286.087 110.791 286.206 110.788 286.332ZM129.793 286.8H192.969V381.926H111.725V286.8H129.793Z" fill="#0E101A"/>
<path d="M240.124 127.195C240.011 127.235 239.918 127.318 239.864 127.425C239.809 127.532 239.798 127.656 239.833 127.771C239.867 127.886 239.945 127.984 240.049 128.043C240.153 128.103 240.276 128.12 240.393 128.092L245.747 126.477H245.778C245.895 126.435 245.991 126.349 246.045 126.237C246.099 126.125 246.105 125.996 246.064 125.879C246.023 125.761 245.936 125.665 245.824 125.612C245.712 125.558 245.583 125.551 245.466 125.593H245.431L240.124 127.195Z" fill="#0E101A"/>
<path d="M240.831 130.856C240.843 130.917 240.867 130.974 240.901 131.025C240.936 131.076 240.98 131.119 241.032 131.153C241.083 131.187 241.141 131.21 241.201 131.221C241.261 131.232 241.323 131.232 241.384 131.219L248.431 129.773H248.452C248.574 129.748 248.681 129.675 248.75 129.572C248.818 129.468 248.843 129.341 248.818 129.22C248.793 129.098 248.721 128.991 248.617 128.922C248.513 128.854 248.387 128.829 248.265 128.854L248.121 128.882L241.196 130.307C241.075 130.332 240.969 130.403 240.9 130.506C240.832 130.609 240.807 130.735 240.831 130.856V130.856Z" fill="#0E101A"/>
<path d="M242.242 134.152C242.256 134.275 242.318 134.388 242.416 134.466C242.513 134.544 242.637 134.58 242.76 134.567L248.299 133.964H248.402C248.463 133.958 248.523 133.939 248.577 133.909C248.631 133.879 248.679 133.839 248.718 133.791C248.757 133.742 248.786 133.687 248.803 133.627C248.82 133.568 248.826 133.506 248.819 133.444C248.812 133.383 248.793 133.323 248.763 133.269C248.734 133.215 248.693 133.167 248.645 133.128C248.597 133.089 248.541 133.06 248.482 133.043C248.422 133.026 248.36 133.02 248.299 133.027V133.027L242.676 133.652C242.552 133.661 242.437 133.718 242.356 133.812C242.274 133.906 242.233 134.028 242.242 134.152V134.152Z" fill="#0E101A"/>
<path d="M243.32 137.64C243.258 137.643 243.198 137.657 243.142 137.683C243.086 137.708 243.035 137.745 242.994 137.79C242.952 137.835 242.919 137.888 242.898 137.946C242.876 138.003 242.866 138.065 242.868 138.126C242.871 138.188 242.885 138.248 242.911 138.304C242.936 138.36 242.973 138.411 243.018 138.452C243.063 138.494 243.116 138.527 243.174 138.548C243.231 138.57 243.293 138.58 243.354 138.578L248.296 138.387H248.39C248.451 138.385 248.512 138.371 248.568 138.346C248.624 138.321 248.675 138.285 248.717 138.24C248.759 138.195 248.792 138.142 248.814 138.085C248.836 138.027 248.846 137.966 248.844 137.904C248.842 137.843 248.828 137.782 248.803 137.726C248.778 137.67 248.742 137.619 248.697 137.577C248.652 137.535 248.599 137.502 248.542 137.48C248.484 137.458 248.423 137.448 248.361 137.45L243.32 137.64Z" fill="#0E101A"/>
<path d="M160.262 38.5803C159.227 41.742 155.825 43.4675 152.663 42.4329C149.502 41.3983 147.778 37.9953 148.812 34.8337C149.847 31.6721 153.249 29.9466 156.411 30.9812C159.572 32.0158 161.296 35.4187 160.262 38.5803Z" fill="#B8D2F0"/>
<path d="M227.48 99.6445C227.48 100.938 226.431 101.987 225.137 101.987C223.843 101.987 222.794 100.938 222.794 99.6445C222.794 98.3505 223.843 97.3015 225.137 97.3015C226.431 97.3015 227.48 98.3505 227.48 99.6445Z" fill="#0E101A"/>
</g>
</svg>
