<svg width="40" height="40" viewBox="0 0 40 40" fill="none" xmlns="http://www.w3.org/2000/svg">
<path d="M38.3887 12.3173C37.3613 9.95039 35.8999 7.80977 34.0451 5.95492C32.1902 4.10008 30.0496 2.63867 27.6827 1.61133C25.2195 0.542109 22.6346 0 20 0C17.3654 0 14.7805 0.542109 12.3173 1.61133C9.95039 2.63867 7.80977 4.10008 5.95492 5.95492C4.10008 7.80977 2.63867 9.95039 1.61133 12.3173C0.542109 14.7805 0 17.3654 0 20C0 22.6346 0.542109 25.2195 1.61133 27.6827C2.63859 30.0496 4.1 32.1902 5.95492 34.0451C7.80977 35.8999 9.95039 37.3613 12.3173 38.3887C14.7805 39.4579 17.3654 40 20 40C22.6346 40 25.2195 39.4579 27.6827 38.3887C30.0496 37.3613 32.1902 35.8999 34.0451 34.0451C35.8999 32.1902 37.3613 30.0496 38.3887 27.6827C39.4579 25.2195 40 22.6346 40 20C40 17.3654 39.4579 14.7805 38.3887 12.3173ZM20 38.4375C10.0059 38.4375 1.5625 29.9941 1.5625 20C1.5625 10.0059 10.0059 1.5625 20 1.5625C29.9941 1.5625 38.4375 10.0059 38.4375 20C38.4375 29.9941 29.9941 38.4375 20 38.4375Z" fill="#FD8C04"/>
<path d="M35.3105 13.5784C34.4613 11.6053 33.2509 9.825 31.713 8.28711C30.175 6.74914 28.3948 5.53875 26.4216 4.68953C24.3709 3.80687 22.2104 3.35938 20 3.35938C16.9952 3.35938 13.8629 4.38547 10.9418 6.32664C10.5824 6.56547 10.4847 7.05039 10.7235 7.40969C10.9623 7.76906 11.4473 7.86672 11.8066 7.62797C14.4706 5.85766 17.3038 4.92188 20 4.92188C28.1732 4.92188 35.0781 11.8268 35.0781 20C35.0781 28.1732 28.1732 35.0781 20 35.0781C11.8268 35.0781 4.92188 28.1732 4.92188 20C4.92188 17.3044 5.85742 14.471 7.62727 11.8065C7.86602 11.447 7.7682 10.9622 7.40883 10.7234C7.0493 10.4847 6.56453 10.5826 6.32578 10.942C4.38516 13.8636 3.35938 16.9958 3.35938 20C3.35938 22.2104 3.80687 24.3709 4.68945 26.4216C5.53867 28.3947 6.74906 30.175 8.28703 31.7129C9.825 33.2509 11.6052 34.4613 13.5784 35.3105C15.6291 36.1931 17.7896 36.6406 20 36.6406C22.2104 36.6406 24.3709 36.1931 26.4216 35.3105C28.3947 34.4613 30.175 33.2509 31.7129 31.713C33.2509 30.175 34.4613 28.3948 35.3105 26.4216C36.1931 24.3709 36.6406 22.2104 36.6406 20C36.6406 17.7896 36.1931 15.6291 35.3105 13.5784Z" fill="#FD8C04"/>
<path d="M8.98438 8.20312C8.55313 8.20312 8.20312 8.55313 8.20312 8.98438C8.20312 9.41562 8.55313 9.76562 8.98438 9.76562C9.41562 9.76562 9.76562 9.41562 9.76562 8.98438C9.76562 8.55313 9.41562 8.20312 8.98438 8.20312Z" fill="#FD8C04"/>
<path d="M22.4727 10.1721C22.2135 9.8933 21.8476 9.7334 21.4691 9.7334H18.531C18.1523 9.7334 17.7865 9.8933 17.5273 10.1721C17.268 10.4509 17.1328 10.8297 17.1565 11.2115L17.8121 21.8478C17.8572 22.5797 18.461 23.153 19.1867 23.153H20.8135C21.5393 23.153 22.1431 22.5797 22.1881 21.8479L22.8438 11.2116C22.8671 10.8297 22.732 10.4509 22.4727 10.1721ZM20.702 21.6416H19.2979L18.657 11.2447H21.3429L20.702 21.6416Z" fill="#FD8C04"/>
<path d="M19.9999 25.0073C18.5649 25.0073 17.3975 26.187 17.3975 27.637C17.3975 29.087 18.565 30.2665 19.9999 30.2665C21.4349 30.2665 22.6023 29.0869 22.6023 27.637C22.6023 26.187 21.4348 25.0073 19.9999 25.0073ZM19.9999 28.7551C19.3896 28.7551 18.8932 28.2534 18.8932 27.6369C18.8932 27.0203 19.3897 26.5186 19.9999 26.5186C20.6102 26.5186 21.1066 27.0202 21.1066 27.6369C21.1066 28.2535 20.6101 28.7551 19.9999 28.7551Z" fill="#FD8C04"/>
</svg>
