<svg width="40" height="40" viewBox="0 0 40 40" fill="none" xmlns="http://www.w3.org/2000/svg">
<path fill-rule="evenodd" clip-rule="evenodd" d="M34.2175 26.6406C34.2175 26.2091 34.5674 25.8594 34.9988 25.8594C35.4302 25.8594 35.78 26.2091 35.78 26.6406V39.2188C35.78 39.6502 35.4302 40 34.9988 40H5.00073C4.56933 40 4.21948 39.6502 4.21948 39.2188V0.78125C4.21948 0.349766 4.56933 0 5.00073 0H25.7421C25.7445 0 25.7468 0.000543007 25.749 0.0010869L25.7522 0.00179688C25.952 0.004375 26.1478 0.0819531 26.2948 0.228984L35.5512 9.48539C35.6983 9.63258 35.7759 9.82867 35.7783 10.0287L35.7791 10.0329L35.7798 10.0361L35.78 10.0378V19.7135C35.78 20.145 35.4301 20.4948 34.9987 20.4948C34.5673 20.4948 34.2175 20.145 34.2175 19.7135V10.8191H25.7424C25.311 10.8191 24.9611 10.4693 24.9611 10.0378V1.5625H5.78198V38.4375H34.2175V26.6406ZM33.1126 9.25656L26.5236 2.66758V9.25656H33.1126Z" fill="#367FD3"/>
<path d="M10.6248 27.0312H29.3748C29.8062 27.0312 30.156 27.381 30.156 27.8125C30.156 28.244 29.8062 28.5938 29.3748 28.5938H10.6248C10.1933 28.5938 9.84351 28.244 9.84351 27.8125C9.84351 27.381 10.1933 27.0312 10.6248 27.0312Z" fill="#367FD3"/>
<path d="M29.3748 22.3438H10.6248C10.1933 22.3438 9.84351 22.6935 9.84351 23.125C9.84351 23.5565 10.1933 23.9062 10.6248 23.9062H29.3748C29.8062 23.9062 30.156 23.5565 30.156 23.125C30.156 22.6935 29.8062 22.3438 29.3748 22.3438Z" fill="#367FD3"/>
<path d="M10.6248 31.7188H29.3748C29.8062 31.7188 30.156 32.0685 30.156 32.5C30.156 32.9315 29.8062 33.2812 29.3748 33.2812H10.6248C10.1933 33.2812 9.84351 32.9315 9.84351 32.5C9.84351 32.0685 10.1933 31.7188 10.6248 31.7188Z" fill="#367FD3"/>
<path d="M29.3748 17.6562H10.6248C10.1933 17.6562 9.84351 18.006 9.84351 18.4375C9.84351 18.869 10.1933 19.2188 10.6248 19.2188H29.3748C29.8062 19.2188 30.156 18.869 30.156 18.4375C30.156 18.006 29.8062 17.6562 29.3748 17.6562Z" fill="#367FD3"/>
<path d="M10.6248 12.9688H29.3748C29.8062 12.9688 30.156 13.3185 30.156 13.75C30.156 14.1815 29.8062 14.5312 29.3748 14.5312H10.6248C10.1933 14.5312 9.84351 14.1815 9.84351 13.75C9.84351 13.3185 10.1933 12.9688 10.6248 12.9688Z" fill="#367FD3"/>
<path d="M15.1796 8.28125H10.6248C10.1933 8.28125 9.84351 8.63102 9.84351 9.0625C9.84351 9.49398 10.1933 9.84375 10.6248 9.84375H15.1796C15.611 9.84375 15.9608 9.49398 15.9608 9.0625C15.9608 8.63102 15.611 8.28125 15.1796 8.28125Z" fill="#367FD3"/>
<path d="M18.23 8.28125H18.2422C18.6736 8.28125 19.0234 8.63102 19.0234 9.0625C19.0234 9.49398 18.6736 9.84375 18.2422 9.84375H18.23C17.7986 9.84375 17.4487 9.49398 17.4487 9.0625C17.4487 8.63102 17.7986 8.28125 18.23 8.28125Z" fill="#367FD3"/>
<path d="M35.551 22.5727C35.4058 22.4273 35.2042 22.3438 34.9988 22.3438C34.7933 22.3438 34.5917 22.4273 34.4464 22.5727C34.3011 22.718 34.2175 22.9195 34.2175 23.125C34.2175 23.3305 34.301 23.532 34.4464 23.6773C34.5918 23.8227 34.7933 23.9062 34.9988 23.9062C35.2042 23.9062 35.4058 23.8227 35.551 23.6773C35.6964 23.532 35.78 23.3305 35.78 23.125C35.78 22.9195 35.6964 22.718 35.551 22.5727Z" fill="#367FD3"/>
</svg>
