<svg width="30" height="31" viewBox="0 0 30 31" fill="none" xmlns="http://www.w3.org/2000/svg">
<path d="M28.7915 9.73801C28.021 7.96279 26.9249 6.35732 25.5338 4.96619C24.1427 3.57506 22.5372 2.479 20.762 1.7085C18.9146 0.906582 16.976 0.5 15 0.5C13.024 0.5 11.0854 0.906582 9.23801 1.7085C7.46279 2.479 5.85732 3.57506 4.46619 4.96619C3.07506 6.35732 1.979 7.96279 1.2085 9.73801C0.406582 11.5854 0 13.524 0 15.5C0 17.476 0.406582 19.4146 1.2085 21.262C1.97895 23.0372 3.075 24.6427 4.46619 26.0338C5.85732 27.4249 7.46279 28.521 9.23801 29.2915C11.0854 30.0934 13.024 30.5 15 30.5C16.976 30.5 18.9146 30.0934 20.762 29.2915C22.5372 28.521 24.1427 27.4249 25.5338 26.0338C26.9249 24.6427 28.021 23.0372 28.7915 21.262C29.5934 19.4146 30 17.476 30 15.5C30 13.524 29.5934 11.5854 28.7915 9.73801ZM15 29.3281C7.50439 29.3281 1.17188 22.9956 1.17188 15.5C1.17188 8.00439 7.50439 1.67188 15 1.67188C22.4956 1.67188 28.8281 8.00439 28.8281 15.5C28.8281 22.9956 22.4956 29.3281 15 29.3281Z" fill="#367FD3"/>
<path d="M26.4829 10.6838C25.846 9.20398 24.9382 7.86875 23.7847 6.71533C22.6312 5.56186 21.2961 4.65406 19.8162 4.01715C18.2782 3.35516 16.6578 3.01953 15 3.01953C12.7464 3.01953 10.3972 3.7891 8.20635 5.24498C7.93682 5.4241 7.86352 5.78779 8.04264 6.05727C8.22176 6.3268 8.58545 6.40004 8.85492 6.22098C10.853 4.89324 12.9779 4.19141 15 4.19141C21.1299 4.19141 26.3086 9.3701 26.3086 15.5C26.3086 21.6299 21.1299 26.8086 15 26.8086C8.8701 26.8086 3.69141 21.6299 3.69141 15.5C3.69141 13.4783 4.39307 11.3533 5.72045 9.35486C5.89951 9.08527 5.82615 8.72164 5.55662 8.54258C5.28697 8.36352 4.9234 8.43693 4.74434 8.70647C3.28887 10.8977 2.51953 13.2468 2.51953 15.5C2.51953 17.1578 2.85516 18.7782 3.51709 20.3162C4.154 21.796 5.0618 23.1313 6.21527 24.2847C7.36875 25.4382 8.70393 26.3459 10.1838 26.9829C11.7218 27.6448 13.3422 27.9805 15 27.9805C16.6578 27.9805 18.2782 27.6448 19.8162 26.9829C21.296 26.346 22.6313 25.4382 23.7847 24.2847C24.9381 23.1312 25.8459 21.7961 26.4829 20.3162C27.1448 18.7782 27.4805 17.1578 27.4805 15.5C27.4805 13.8422 27.1448 12.2218 26.4829 10.6838Z" fill="#367FD3"/>
<path d="M6.73828 6.65234C6.41484 6.65234 6.15234 6.91484 6.15234 7.23828C6.15234 7.56172 6.41484 7.82422 6.73828 7.82422C7.06172 7.82422 7.32422 7.56172 7.32422 7.23828C7.32422 6.91484 7.06172 6.65234 6.73828 6.65234Z" fill="#367FD3"/>
</svg>
