<svg width="30" height="30" viewBox="0 0 30 30" fill="none" xmlns="http://www.w3.org/2000/svg">
<path d="M28.7915 9.23801C28.021 7.46279 26.9249 5.85732 25.5338 4.46619C24.1427 3.07506 22.5372 1.979 20.762 1.2085C18.9146 0.406582 16.976 0 15 0C13.024 0 11.0854 0.406582 9.23801 1.2085C7.46279 1.979 5.85732 3.07506 4.46619 4.46619C3.07506 5.85732 1.979 7.46279 1.2085 9.23801C0.406582 11.0854 0 13.024 0 15C0 16.976 0.406582 18.9146 1.2085 20.762C1.97895 22.5372 3.075 24.1427 4.46619 25.5338C5.85732 26.9249 7.46279 28.021 9.23801 28.7915C11.0854 29.5934 13.024 30 15 30C16.976 30 18.9146 29.5934 20.762 28.7915C22.5372 28.021 24.1427 26.9249 25.5338 25.5338C26.9249 24.1427 28.021 22.5372 28.7915 20.762C29.5934 18.9146 30 16.976 30 15C30 13.024 29.5934 11.0854 28.7915 9.23801ZM15 28.8281C7.50439 28.8281 1.17188 22.4956 1.17188 15C1.17188 7.50439 7.50439 1.17188 15 1.17188C22.4956 1.17188 28.8281 7.50439 28.8281 15C28.8281 22.4956 22.4956 28.8281 15 28.8281Z" fill="#367FD3"/>
<path d="M26.4829 10.1838C25.846 8.70398 24.9382 7.36875 23.7847 6.21533C22.6313 5.06186 21.2961 4.15406 19.8162 3.51715C18.2782 2.85516 16.6578 2.51953 15 2.51953C12.7464 2.51953 10.3972 3.2891 8.20635 4.74498C7.93682 4.9241 7.86352 5.28779 8.04264 5.55727C8.22176 5.8268 8.58545 5.90004 8.85492 5.72098C10.853 4.39324 12.9779 3.69141 15 3.69141C21.1299 3.69141 26.3086 8.8701 26.3086 15C26.3086 21.1299 21.1299 26.3086 15 26.3086C8.8701 26.3086 3.69141 21.1299 3.69141 15C3.69141 12.9783 4.39307 10.8533 5.72045 8.85486C5.89951 8.58527 5.82615 8.22164 5.55662 8.04258C5.28697 7.86352 4.9234 7.93693 4.74434 8.20646C3.28887 10.3977 2.51953 12.7468 2.51953 15C2.51953 16.6578 2.85516 18.2782 3.51709 19.8162C4.154 21.296 5.0618 22.6313 6.21527 23.7847C7.36875 24.9382 8.70393 25.8459 10.1838 26.4829C11.7218 27.1448 13.3422 27.4805 15 27.4805C16.6578 27.4805 18.2782 27.1448 19.8162 26.4829C21.296 25.846 22.6313 24.9382 23.7847 23.7847C24.9381 22.6313 25.8459 21.2961 26.4829 19.8162C27.1448 18.2782 27.4805 16.6578 27.4805 15C27.4805 13.3422 27.1448 11.7218 26.4829 10.1838Z" fill="#367FD3"/>
<path d="M6.73828 6.15234C6.41484 6.15234 6.15234 6.41484 6.15234 6.73828C6.15234 7.06172 6.41484 7.32422 6.73828 7.32422C7.06172 7.32422 7.32422 7.06172 7.32422 6.73828C7.32422 6.41484 7.06172 6.15234 6.73828 6.15234Z" fill="#367FD3"/>
<circle cx="15" cy="15" r="5.25" fill="#C8D9EE"/>
</svg>
