<svg width="40" height="41" viewBox="0 0 40 41" fill="none" xmlns="http://www.w3.org/2000/svg">
<path d="M17.7442 35.3776C17.8681 35.3394 17.9853 35.2711 18.0772 35.1795L39.3089 13.9475C40.2287 13.0277 40.2287 11.5311 39.3089 10.611L30.0578 1.35989C29.1377 0.439781 27.6411 0.440086 26.721 1.35989L5.48956 22.5916C5.39801 22.6831 5.32873 22.8006 5.29119 22.9245L0.0357571 39.6454C-0.122324 40.1441 0.264639 40.6699 0.78527 40.6699H35.9281C36.938 40.6699 36.9395 39.097 35.9281 39.097H5.9104L17.7442 35.3776ZM17.5211 33.5111L16.294 32.284L16.6279 28.5428L21.4283 23.7421C22.1458 23.0246 21.0337 21.9126 20.3162 22.6297L15.5048 27.4411L12.7299 27.9227L13.1693 25.1117L27.8501 10.4309L30.1823 12.7634L24.7364 18.2093C24.0192 18.9267 25.1313 20.0388 25.8488 19.3216L31.2946 13.8758L34.2255 16.8064L17.5211 33.5111ZM23.8621 6.4432L26.7377 9.31888L12.0624 23.9942L8.49798 24.488L7.15765 23.1476L23.8621 6.4432ZM27.8333 2.47195C28.14 2.16525 28.639 2.16555 28.9454 2.47195L38.1968 11.7234C38.5032 12.0298 38.5032 12.5287 38.1968 12.8354L35.3401 15.6922L24.9766 5.3287L27.8333 2.47195ZM6.40661 24.621L7.66241 25.8768C7.83667 26.0511 8.08264 26.1338 8.32648 26.0996L11.4915 25.6614L11.0062 28.7641C10.9254 29.282 11.3987 29.7504 11.9178 29.6604L14.9967 29.1257L14.6949 32.5104C14.6741 32.7424 14.7575 32.9715 14.9219 33.1363L16.0477 34.2618L9.96985 36.1722C8.9707 33.7024 6.96692 31.6977 4.49652 30.6989L6.40661 24.621ZM4.02319 32.2043C6.00805 33.0353 7.63159 34.6622 8.46441 36.6456L1.98766 38.6811L4.02319 32.2043Z" fill="#367FD3"/>
<path d="M39.1146 39.0974C38.6864 39.0974 38.3281 39.4547 38.3281 39.8832C38.3281 40.311 38.6867 40.6696 39.1146 40.6696C39.5293 40.6693 39.8812 40.3312 39.8995 39.9177C39.919 39.4776 39.5555 39.0974 39.1146 39.0974Z" fill="#367FD3"/>
<path d="M23.1341 20.1836C22.7065 20.1836 22.3477 20.5428 22.3477 20.97C22.3477 21.3976 22.7068 21.7565 23.1341 21.7565C23.5491 21.7565 23.9007 21.4183 23.919 21.0045C23.9385 20.5648 23.5754 20.1836 23.1341 20.1836Z" fill="#367FD3"/>
</svg>
