<svg width="437" height="325" viewBox="0 0 437 325" fill="none" xmlns="http://www.w3.org/2000/svg">
<path fill-rule="evenodd" clip-rule="evenodd" d="M394.608 12.728C402.046 18.5897 407.819 26.297 411.352 35.0831C432.247 90.3398 439.642 180.645 436.054 241.033C434.674 250.401 430.863 259.245 425.003 266.684C419.142 274.121 411.434 279.895 402.647 283.428C370.491 296.431 236.741 312.293 236.741 312.293C236.741 312.293 102.99 328.154 68.6836 323.032C59.3149 321.652 50.4709 317.841 43.0332 311.982C35.5944 306.12 29.8216 298.413 26.2886 289.626C5.33954 234.627 -1.43038 144.192 1.6193 83.9516C2.99934 74.5829 6.80925 65.739 12.671 58.302C18.5317 50.8633 26.239 45.0896 35.0251 41.5566C67.1821 28.5529 200.9 12.4169 200.9 12.4169C200.9 12.4169 334.651 -3.44453 368.956 1.67743C378.326 3.05736 387.17 6.86819 394.608 12.728ZM287.069 154.263L183.735 231.686L168.492 103.154L287.069 154.263Z" fill="url(#paint0_linear_396_8605)"/>
<defs>
<linearGradient id="paint0_linear_396_8605" x1="440.305" y1="93.0622" x2="-21.9888" y2="162.345" gradientUnits="userSpaceOnUse">
<stop stop-color="white" stop-opacity="0.38"/>
<stop offset="1" stop-color="white" stop-opacity="0.06"/>
</linearGradient>
</defs>
</svg>
