<svg width="291" height="480" viewBox="0 0 291 480" fill="none" xmlns="http://www.w3.org/2000/svg">
<rect x="0.14502" width="290" height="480" fill="#F5F9FF"/>
<path d="M0.14502 63.3934C21.033 92.8902 55.4298 112.144 94.3237 112.144C156.952 112.144 207.919 62.2215 209.602 0L210.603 0C208.919 62.7738 157.504 113.144 94.3237 113.144C55.5952 113.144 21.2874 94.2178 0.14502 65.1093V63.3934Z" fill="#B8D2F0"/>
<path d="M243.832 68.2588C249.128 68.2588 253.42 63.9663 253.42 58.6711C253.42 53.3759 249.128 49.0833 243.832 49.0833C238.537 49.0833 234.245 53.3759 234.245 58.6711C234.245 63.9663 238.537 68.2588 243.832 68.2588Z" fill="#367FD3"/>
<path d="M192.74 209.062C195.518 209.062 197.771 206.809 197.771 204.031C197.771 201.252 195.518 199 192.74 199C189.961 199 187.709 201.252 187.709 204.031C187.709 206.809 189.961 209.062 192.74 209.062Z" fill="#0E101A"/>
<path d="M126.333 47.9254C127.141 47.9254 127.796 47.2705 127.796 46.4627C127.796 45.6549 127.141 45.0001 126.333 45.0001C125.525 45.0001 124.871 45.6549 124.871 46.4627C124.871 47.2705 125.525 47.9254 126.333 47.9254Z" fill="#0E101A"/>
<path d="M50.4837 148.203C53.8532 148.203 56.5847 145.471 56.5847 142.102C56.5847 138.733 53.8532 136.001 50.4837 136.001C47.1143 136.001 44.3828 138.733 44.3828 142.102C44.3828 145.471 47.1143 148.203 50.4837 148.203Z" fill="#B8D2F0"/>
<path d="M14.9716 172.945C19.9631 173.19 24.8968 173.33 29.7728 173.365C30.0984 173.366 30.4111 173.237 30.6424 173.008C30.8738 172.779 31.005 172.467 31.0073 172.142C31.0083 171.818 30.8817 171.507 30.6551 171.275C30.4284 171.044 30.1199 170.911 29.7961 170.906C24.9772 170.864 20.0766 170.724 15.0943 170.487C14.7683 170.471 14.4495 170.585 14.2075 170.804C13.9656 171.023 13.8204 171.329 13.8037 171.655C13.7879 171.98 13.9019 172.299 14.1208 172.541C14.3398 172.783 14.6458 172.928 14.9716 172.945Z" fill="#0E101A"/>
<path d="M44.5699 173.215C49.6064 173.065 54.5402 172.817 59.3715 172.468C59.5333 172.458 59.6914 172.415 59.8368 172.344C59.9822 172.272 60.1119 172.172 60.2187 172.05C60.3255 171.928 60.4072 171.787 60.4591 171.633C60.511 171.479 60.5321 171.317 60.5212 171.155C60.5101 170.989 60.4653 170.826 60.3893 170.677C60.3134 170.528 60.2079 170.396 60.0794 170.289C59.9508 170.182 59.802 170.103 59.6417 170.055C59.4814 170.008 59.3132 169.993 59.1472 170.013C54.3558 170.348 49.4586 170.593 44.4557 170.746C44.2934 170.752 44.1336 170.789 43.9856 170.855C43.8375 170.922 43.7041 171.018 43.5929 171.136C43.4817 171.254 43.395 171.393 43.3376 171.545C43.2801 171.697 43.2532 171.859 43.2583 172.021C43.2634 172.184 43.3004 172.343 43.3672 172.492C43.434 172.64 43.5294 172.773 43.6477 172.884C43.7661 172.995 43.9052 173.082 44.0572 173.14C44.2091 173.197 44.3709 173.224 44.5332 173.219L44.5699 173.215Z" fill="#0E101A"/>
<path d="M102.886 164.303C102.564 164.367 102.281 164.556 102.099 164.828C101.917 165.101 101.85 165.435 101.914 165.756C101.978 166.078 102.167 166.361 102.439 166.543C102.712 166.726 103.046 166.792 103.367 166.728C107.185 165.971 110.87 165.175 114.456 164.297C114.935 164.18 115.296 163.786 115.376 163.299C115.517 162.433 114.735 161.7 113.879 161.896C110.322 162.708 106.668 163.511 102.886 164.303Z" fill="#0E101A"/>
<path d="M74.0924 171.136L76.1243 170.899C80.4452 170.395 84.6827 169.814 88.7662 169.189C89.0909 169.151 89.3872 168.985 89.59 168.729C89.7928 168.473 89.8854 168.146 89.8475 167.822C89.8096 167.497 89.6444 167.201 89.3881 166.998C89.1317 166.795 88.8053 166.702 88.4807 166.74C84.3957 167.353 80.2072 167.929 75.923 168.429L73.9032 168.664C73.5786 168.702 73.2823 168.867 73.0795 169.124C72.8767 169.38 72.7841 169.706 72.822 170.031C72.8598 170.356 73.0251 170.652 73.2815 170.855C73.5378 171.057 73.8642 171.15 74.1888 171.112L74.0924 171.136Z" fill="#0E101A"/>
<path fill-rule="evenodd" clip-rule="evenodd" d="M102.784 135.292L134.204 153.104L133.496 157.665L133.034 160.3L130.094 178.385C130.04 178.738 130.089 179.099 130.235 179.425C130.38 179.751 130.616 180.028 130.915 180.223C131.214 180.418 131.562 180.524 131.919 180.526C132.276 180.529 132.626 180.429 132.928 180.238L150.078 169.094L157.555 176.82C157.852 177.13 158.249 177.326 158.677 177.374C159.104 177.421 159.534 177.317 159.893 177.08L248.695 118.528C248.76 118.493 248.822 118.454 248.882 118.411C249.034 118.307 249.17 118.183 249.286 118.041L249.351 117.959C249.447 117.816 249.525 117.661 249.582 117.498L249.571 117.4C249.617 117.227 249.642 117.049 249.646 116.87C249.642 116.788 249.633 116.706 249.617 116.626C249.616 116.514 249.603 116.404 249.579 116.295C249.505 116.116 249.406 115.947 249.285 115.796C249.169 115.664 249.035 115.55 248.885 115.458L248.792 115.407C248.637 115.323 248.471 115.259 248.299 115.216L248.213 115.226C248.045 115.197 247.873 115.192 247.703 115.211L103.495 132.033C103.114 132.075 102.756 132.236 102.47 132.492C102.184 132.747 101.985 133.085 101.9 133.459C101.848 133.818 101.905 134.184 102.063 134.51C102.22 134.837 102.471 135.109 102.784 135.292ZM237.386 121.559C232.858 122.768 227.175 124.309 220.746 126.098C204.748 130.52 184.325 136.475 166.63 142.41C156.051 145.952 146.464 149.502 139.394 152.709L139.328 152.739L159.149 173.147L237.386 121.559ZM202.441 127.439C209.75 125.321 216.693 123.369 222.86 121.67L109.523 134.89L136.269 150.059C145.761 145.814 155.479 142.092 165.378 138.909C177.259 134.93 190.308 130.963 202.441 127.439Z" fill="#0E101A"/>
</svg>
