<svg width="670" height="300" viewBox="0 0 670 300" fill="none" xmlns="http://www.w3.org/2000/svg">
<g clip-path="url(#clip0_535_7447)">
<rect width="670" height="300" fill="white"/>
<g opacity="0.5">
<rect width="670" height="300" fill="#F4F8FC"/>
<rect width="670" height="300" fill="url(#paint0_radial_535_7447)" fill-opacity="0.38"/>
<rect width="670" height="300" fill="url(#paint1_linear_535_7447)"/>
</g>
<path d="M20.6817 301.13C20.6817 301.13 65.3363 300.178 69.502 229.759C26.427 240.543 7.92701 302.488 7.92701 302.488L20.6817 301.13Z" fill="white"/>
<path fill-rule="evenodd" clip-rule="evenodd" d="M69.8212 229.375C69.6987 229.273 69.5351 229.236 69.3806 229.274C47.6448 234.716 32.1611 253.044 22.1316 269.912C17.1105 278.357 13.4411 286.461 11.0269 292.454C9.81961 295.451 8.92571 297.921 8.33326 299.643C8.03703 300.504 7.81613 301.178 7.66908 301.637C7.59555 301.867 7.54047 302.043 7.50368 302.162C7.48528 302.222 7.47145 302.267 7.46216 302.298L7.45164 302.333L7.44893 302.342L7.44821 302.344C7.44803 302.345 7.44792 302.345 7.92701 302.488L7.44792 302.345C7.40004 302.505 7.43552 302.679 7.54244 302.808C7.64937 302.936 7.81357 303.003 7.97995 302.985L20.7155 301.629L20.731 301.629C20.7459 301.628 20.7649 301.628 20.7881 301.627C20.8017 301.626 20.8168 301.625 20.8333 301.625C20.9222 301.62 21.0523 301.613 21.221 301.601C21.5582 301.576 22.0497 301.53 22.6746 301.447C23.9242 301.281 25.708 300.964 27.8588 300.362C32.1605 299.159 37.9336 296.814 43.8357 292.247C55.6565 283.101 67.9116 265.112 70.0012 229.789C70.0106 229.63 69.9437 229.476 69.8212 229.375ZM20.6708 300.63C20.6568 300.63 20.6428 300.631 20.6288 300.633L8.63173 301.91C8.77668 301.458 8.99193 300.802 9.27886 299.968C9.86639 298.26 10.7543 295.806 11.9545 292.827C14.3551 286.868 18.0029 278.812 22.9912 270.423C32.8768 253.797 47.9672 235.961 68.961 230.415C66.7681 265.056 54.6963 282.58 43.2238 291.456C37.4415 295.93 31.7906 298.224 27.5894 299.399C25.4888 299.987 23.7514 300.295 22.5427 300.456C21.9384 300.536 21.4664 300.58 21.1475 300.603C20.9881 300.615 20.8669 300.622 20.7866 300.626C20.7465 300.628 20.7166 300.629 20.6972 300.629L20.6761 300.63L20.6708 300.63Z" fill="#0E101A"/>
<path d="M9.57976 300.987L9.65824 300.979C25.628 295.842 41.1424 276.784 51.3542 261.699C58.2004 251.526 64.3758 240.917 69.8411 229.94C69.8863 229.849 69.8938 229.745 69.8618 229.649C69.8299 229.553 69.7613 229.474 69.6709 229.428C69.5806 229.383 69.4759 229.376 69.3801 229.408C69.2842 229.44 69.205 229.508 69.1597 229.599C63.7121 240.549 57.554 251.131 50.7249 261.277C40.5707 276.262 25.1897 295.185 9.44316 300.253C9.39569 300.268 9.35164 300.292 9.31355 300.324C9.27546 300.356 9.2441 300.395 9.22128 300.439C9.19846 300.484 9.18463 300.532 9.18061 300.581C9.17658 300.631 9.18244 300.681 9.19783 300.728C9.22366 300.808 9.27523 300.876 9.3444 300.923C9.41357 300.97 9.49639 300.992 9.57976 300.987Z" fill="#0E101A"/>
<path d="M25.6382 227.238C25.6382 227.238 33.6768 282.591 11.6072 302.106L-7.12626 304.017C-7.12626 304.017 1.30148 237.795 25.6382 227.238Z" fill="#B8D2F0" stroke="#0E101A" stroke-linecap="round" stroke-linejoin="round"/>
<path d="M25.6386 227.238C25.6386 227.238 15.7456 292.226 1.78327 303.092L25.6386 227.238Z" fill="#B8D2F0"/>
<path d="M1.80728 303.467C1.87727 303.46 1.94387 303.434 1.99952 303.391C15.9347 292.554 25.6034 229.954 26.011 227.294C26.0258 227.195 26.0008 227.094 25.9414 227.014C25.8821 226.934 25.7933 226.881 25.6946 226.866C25.5959 226.851 25.4953 226.876 25.4151 226.935C25.3348 226.995 25.2814 227.083 25.2666 227.182C25.1677 227.831 15.2389 292.146 1.53744 302.796C1.49835 302.827 1.46563 302.864 1.44115 302.907C1.41667 302.95 1.40092 302.998 1.39478 303.047C1.38864 303.096 1.39225 303.146 1.4054 303.193C1.41855 303.241 1.44097 303.286 1.47139 303.325C1.51064 303.375 1.56208 303.414 1.62085 303.439C1.67962 303.464 1.74378 303.474 1.80728 303.467Z" fill="#0E101A"/>
<path d="M537.963 41.9602C543.259 41.9602 547.551 37.6676 547.551 32.3724C547.551 27.0773 543.259 22.7847 537.963 22.7847C532.668 22.7847 528.376 27.0773 528.376 32.3724C528.376 37.6676 532.668 41.9602 537.963 41.9602Z" fill="#367FD3"/>
<path d="M63.0185 93.6855C65.7969 93.6855 68.0493 91.4332 68.0493 88.6548C68.0493 85.8764 65.7969 83.624 63.0185 83.624C60.2401 83.624 57.9877 85.8764 57.9877 88.6548C57.9877 91.4332 60.2401 93.6855 63.0185 93.6855Z" fill="#0E101A"/>
<path d="M183.789 110.546C184.597 110.546 185.251 109.891 185.251 109.083C185.251 108.275 184.597 107.62 183.789 107.62C182.981 107.62 182.326 108.275 182.326 109.083C182.326 109.891 182.981 110.546 183.789 110.546Z" fill="#0E101A"/>
<path d="M619.899 250C623.268 250 626 247.268 626 243.899C626 240.53 623.268 237.798 619.899 237.798C616.53 237.798 613.798 240.53 613.798 243.899C613.798 247.268 616.53 250 619.899 250Z" fill="#B8D2F0"/>
<circle cx="286.87" cy="-0.294006" r="49.0092" stroke="#B8D2F0"/>
<path d="M278.483 61.9559C282.303 62.7559 286.22 63.5492 290.233 64.3359C290.364 64.3608 290.499 64.3597 290.63 64.3325C290.761 64.3052 290.885 64.2525 290.996 64.1773C291.106 64.1021 291.201 64.0059 291.274 63.8941C291.347 63.7823 291.398 63.6572 291.423 63.5259C291.448 63.3945 291.447 63.2596 291.419 63.1287C291.392 62.9978 291.34 62.8736 291.264 62.7631C291.189 62.6526 291.093 62.558 290.981 62.4847C290.869 62.4114 290.744 62.3608 290.613 62.3359C286.613 61.5559 282.703 60.7559 278.893 59.9659C278.644 59.9355 278.393 59.9996 278.19 60.1453C277.986 60.2909 277.845 60.5077 277.793 60.7527C277.742 60.9978 277.784 61.2532 277.912 61.4685C278.039 61.6839 278.243 61.8435 278.483 61.9159V61.9559Z" fill="#0E101A"/>
<path d="M302.063 66.506C306.063 67.1727 310.026 67.7493 313.953 68.236C314.215 68.2671 314.479 68.193 314.687 68.03C314.895 67.867 315.03 67.6283 315.063 67.366C315.094 67.1051 315.021 66.8424 314.86 66.6347C314.699 66.427 314.463 66.2909 314.203 66.256C310.323 65.7693 306.386 65.196 302.393 64.536C302.132 64.4926 301.864 64.5545 301.648 64.7083C301.433 64.862 301.287 65.0949 301.243 65.356C301.199 65.6172 301.261 65.8849 301.415 66.1005C301.569 66.3161 301.802 66.4619 302.063 66.506Z" fill="#0E101A"/>
<path d="M184.843 42.8058C188.713 43.2158 192.643 43.7558 196.653 44.3858C196.784 44.4068 196.918 44.4018 197.048 44.3709C197.177 44.3401 197.299 44.2841 197.407 44.2061C197.514 44.1281 197.606 44.0296 197.675 43.9163C197.745 43.803 197.792 43.6771 197.813 43.5458C197.834 43.4145 197.829 43.2803 197.798 43.151C197.767 43.0216 197.711 42.8996 197.633 42.7919C197.555 42.6841 197.456 42.5928 197.343 42.5232C197.23 42.4535 197.104 42.4068 196.973 42.3858C192.973 41.7458 188.973 41.2058 185.063 40.7858C184.797 40.7566 184.532 40.834 184.323 41.0009C184.115 41.1678 183.982 41.4106 183.953 41.6758C183.923 41.941 184.001 42.207 184.168 42.4151C184.335 42.6233 184.577 42.7566 184.843 42.7858V42.8058Z" fill="#0E101A"/>
<path d="M161.103 41.9559C163.203 41.8559 165.309 41.8059 167.423 41.8059C169.273 41.8059 171.123 41.8059 172.983 41.9159C173.248 41.9265 173.507 41.8313 173.702 41.6513C173.897 41.4713 174.012 41.2211 174.023 40.9559C174.033 40.6907 173.938 40.4321 173.758 40.2371C173.578 40.042 173.328 39.9265 173.063 39.9159C171.173 39.8059 169.293 39.8059 167.423 39.8059C165.283 39.8059 163.146 39.8559 161.013 39.9559C160.877 39.9557 160.743 39.9832 160.618 40.0365C160.493 40.0899 160.381 40.168 160.287 40.2663C160.194 40.3645 160.121 40.4807 160.074 40.6079C160.027 40.735 160.006 40.8704 160.013 41.0059C160.019 41.1409 160.052 41.2732 160.111 41.3949C160.17 41.5166 160.253 41.6251 160.355 41.7139C160.457 41.8027 160.575 41.8699 160.704 41.9115C160.833 41.9531 160.968 41.9682 161.103 41.9559Z" fill="#0E101A"/>
<path d="M137.643 45.346C141.485 44.3931 145.373 43.6355 149.293 43.076C149.553 43.0365 149.788 42.8955 149.945 42.6839C150.103 42.4723 150.17 42.2071 150.133 41.946C150.096 41.6835 149.956 41.4464 149.744 41.287C149.532 41.1276 149.265 41.0589 149.003 41.096C145.083 41.656 141.136 42.426 137.163 43.406C137.031 43.4333 136.906 43.4868 136.795 43.5635C136.685 43.6402 136.591 43.7384 136.519 43.8523C136.447 43.9661 136.399 44.0933 136.378 44.2262C136.356 44.359 136.362 44.4949 136.394 44.6255C136.427 44.7561 136.485 44.8789 136.566 44.9865C136.647 45.094 136.749 45.1841 136.865 45.2514C136.982 45.3187 137.111 45.3617 137.244 45.378C137.378 45.3943 137.513 45.3834 137.643 45.346Z" fill="#0E101A"/>
<path d="M325.893 69.5058C329.966 69.8591 333.966 70.1225 337.893 70.2958C338.024 70.3025 338.156 70.2833 338.279 70.2392C338.403 70.195 338.517 70.1269 338.615 70.0387C338.712 69.9504 338.792 69.8438 338.848 69.7249C338.904 69.606 338.936 69.4772 338.943 69.3458C338.95 69.2103 338.929 69.0749 338.881 68.9478C338.834 68.8206 338.762 68.7044 338.668 68.6061C338.575 68.5079 338.462 68.4298 338.337 68.3764C338.213 68.3231 338.078 68.2956 337.943 68.2958C334.049 68.1158 330.079 67.8525 326.033 67.5058C325.901 67.4946 325.769 67.5095 325.644 67.5494C325.518 67.5893 325.401 67.6536 325.301 67.7386C325.2 67.8236 325.117 67.9275 325.056 68.0446C324.996 68.1616 324.959 68.2895 324.948 68.4208C324.937 68.5521 324.951 68.6844 324.991 68.81C325.031 68.9356 325.096 69.0521 325.181 69.1528C325.266 69.2536 325.369 69.3366 325.487 69.3972C325.604 69.4577 325.731 69.4946 325.863 69.5058H325.893Z" fill="#0E101A"/>
<path d="M208.403 46.4659C212.213 47.2059 216.103 48.0159 220.103 48.8859C220.355 48.9269 220.613 48.8697 220.825 48.7262C221.036 48.5827 221.185 48.3637 221.24 48.1142C221.295 47.8647 221.252 47.6036 221.121 47.3845C220.989 47.1654 220.779 47.0049 220.533 46.9359C216.533 46.0659 212.613 45.2459 208.783 44.5059C208.518 44.4555 208.243 44.5126 208.02 44.6645C207.797 44.8164 207.643 45.0507 207.593 45.3159C207.543 45.5811 207.6 45.8555 207.751 46.0787C207.903 46.3019 208.138 46.4555 208.403 46.5059V46.4659Z" fill="#0E101A"/>
<path d="M255.113 56.8059C258.899 57.6659 262.796 58.5392 266.803 59.4259C266.931 59.4538 267.064 59.456 267.194 59.4323C267.324 59.4087 267.447 59.3597 267.558 59.2881C267.668 59.2166 267.764 59.1239 267.838 59.0154C267.913 58.9069 267.965 58.7847 267.993 58.6559C268.049 58.3973 268.001 58.1269 267.859 57.9038C267.716 57.6808 267.491 57.5233 267.233 57.4659C263.233 56.5859 259.339 55.7159 255.553 54.8559C255.294 54.7993 255.024 54.8475 254.801 54.99C254.578 55.1324 254.42 55.3575 254.363 55.6159C254.306 55.873 254.353 56.1422 254.493 56.365C254.634 56.5879 254.856 56.7463 255.113 56.8059Z" fill="#0E101A"/>
<path d="M231.783 51.486L243.483 54.166C243.611 54.1956 243.744 54.1996 243.873 54.1779C244.003 54.1562 244.127 54.1092 244.238 54.0396C244.35 53.9699 244.446 53.879 244.523 53.772C244.599 53.665 244.653 53.5441 244.683 53.416C244.713 53.288 244.717 53.1554 244.695 53.0258C244.673 52.8962 244.626 52.7721 244.557 52.6607C244.487 52.5493 244.396 52.4526 244.289 52.3763C244.182 52.3 244.061 52.2456 243.933 52.216C239.933 51.296 236.053 50.396 232.263 49.536C232.133 49.5025 231.998 49.4953 231.866 49.515C231.733 49.5347 231.606 49.5807 231.492 49.6505C231.377 49.7203 231.278 49.8123 231.2 49.9211C231.122 50.03 231.067 50.1534 231.037 50.284C231.008 50.4147 231.005 50.55 231.028 50.6818C231.052 50.8136 231.102 50.9393 231.176 51.0514C231.249 51.1635 231.344 51.2598 231.455 51.3344C231.566 51.4091 231.691 51.4606 231.823 51.486H231.783Z" fill="#0E101A"/>
<path d="M115.203 53.0859C118.963 51.4392 122.65 49.9859 126.263 48.7259C126.513 48.6396 126.719 48.4573 126.836 48.2192C126.952 47.9811 126.969 47.7065 126.883 47.4559C126.843 47.328 126.778 47.2094 126.692 47.107C126.606 47.0047 126.5 46.9207 126.38 46.8601C126.261 46.7995 126.131 46.7634 125.997 46.7541C125.864 46.7448 125.729 46.7624 125.603 46.8059C121.936 48.0859 118.203 49.5592 114.403 51.2259C114.282 51.2781 114.172 51.3537 114.08 51.4484C113.989 51.5431 113.917 51.655 113.868 51.7777C113.82 51.9004 113.796 52.0314 113.799 52.1633C113.801 52.2951 113.83 52.4252 113.883 52.5459C113.933 52.6688 114.007 52.7804 114.101 52.8742C114.195 52.9681 114.307 53.0423 114.43 53.0926C114.553 53.1428 114.684 53.1681 114.817 53.167C114.95 53.1659 115.081 53.1383 115.203 53.0859Z" fill="#0E101A"/>
<path d="M373.733 67.8058C373.468 67.8271 373.222 67.9528 373.049 68.1553C372.877 68.3579 372.792 68.6206 372.813 68.8858C372.834 69.1511 372.96 69.397 373.162 69.5695C373.365 69.7421 373.628 69.8271 373.893 69.8058C377.041 69.5543 380.086 69.2594 383.058 68.8888C383.456 68.8393 383.784 68.5563 383.894 68.1713C384.089 67.4864 383.527 66.8222 382.819 66.8992C379.876 67.2192 376.856 67.5235 373.733 67.8058Z" fill="#0E101A"/>
<path d="M349.883 70.606H351.543C355.073 70.606 358.543 70.536 361.893 70.416C362.158 70.416 362.412 70.3107 362.6 70.1231C362.787 69.9356 362.893 69.6812 362.893 69.416C362.893 69.1508 362.787 68.8964 362.6 68.7089C362.412 68.5214 362.158 68.416 361.893 68.416C358.543 68.526 355.113 68.596 351.613 68.596H349.963C349.697 68.596 349.443 68.7014 349.256 68.8889C349.068 69.0764 348.963 69.3308 348.963 69.596C348.963 69.8612 349.068 70.1156 349.256 70.3031C349.443 70.4907 349.697 70.596 349.963 70.596L349.883 70.606Z" fill="#0E101A"/>
<path d="M99.1929 61.1658C100.953 60.1658 102.7 59.2125 104.433 58.3058C104.552 58.2466 104.659 58.1641 104.746 58.0632C104.833 57.9623 104.899 57.845 104.94 57.7182C104.981 57.5914 104.996 57.4576 104.985 57.3248C104.974 57.192 104.936 57.0628 104.874 56.9448C104.812 56.8268 104.727 56.7224 104.624 56.6377C104.521 56.553 104.402 56.4897 104.275 56.4516C104.147 56.4135 104.013 56.4014 103.88 56.4158C103.748 56.4303 103.619 56.4711 103.503 56.5358C101.753 57.4558 99.9929 58.4158 98.2029 59.4158C97.9708 59.5484 97.801 59.7678 97.7307 60.0257C97.6603 60.2835 97.6953 60.5588 97.8279 60.7908C97.9605 61.0229 98.1799 61.1928 98.4377 61.2631C98.6956 61.3334 98.9708 61.2984 99.2029 61.1658H99.1929Z" fill="#0E101A"/>
<path fill-rule="evenodd" clip-rule="evenodd" d="M400.027 61.7238L376.377 44.4138C376.142 44.2368 375.965 43.9939 375.869 43.716C375.773 43.4382 375.762 43.138 375.837 42.8538C375.941 42.5604 376.133 42.3065 376.388 42.1273C376.642 41.9482 376.946 41.8526 377.257 41.8538H495.067C495.206 41.854 495.344 41.8742 495.477 41.9138H495.547C495.681 41.9643 495.809 42.0315 495.927 42.1138L495.997 42.1638C496.109 42.252 496.206 42.3565 496.287 42.4738C496.37 42.6074 496.434 42.7521 496.477 42.9038C496.487 42.9935 496.487 43.084 496.477 43.1738C496.482 43.2403 496.482 43.3072 496.477 43.3738C496.457 43.5176 496.42 43.6586 496.367 43.7938V43.8738C496.306 43.9998 496.228 44.1175 496.137 44.2238L496.077 44.2838C495.97 44.3869 495.849 44.4745 495.717 44.5438C495.665 44.573 495.61 44.5986 495.555 44.6205L418.477 83.4637C418.166 83.6211 417.809 83.6643 417.469 83.5857C417.129 83.5071 416.828 83.3118 416.617 83.0337L411.317 76.1037L409.457 73.6737L398.18 79.2622L398.177 79.2739L409.457 73.6737L411.317 76.1037L396.447 83.4739C396.186 83.5992 395.894 83.6469 395.607 83.6111C395.32 83.5754 395.049 83.4577 394.826 83.2722C394.604 83.0867 394.44 82.8412 394.353 82.5649C394.266 82.2886 394.261 81.9932 394.337 81.7139L398.407 67.4139L399.027 65.3339L400.027 61.7238ZM495.537 44.6271C495.423 44.6757 495.301 44.7083 495.177 44.7237L493.914 44.8891L495.227 44.7038C495.333 44.6906 495.438 44.6648 495.537 44.6271ZM486.155 45.9999C482.392 46.549 477.667 47.2569 472.317 48.0938C459.007 50.1538 441.987 53.0338 427.167 56.1538C418.307 58.0138 410.247 59.9738 404.247 61.8938C404.228 61.8996 404.209 61.9054 404.191 61.9112L418.247 80.2237L486.155 45.9999ZM401.713 62.6278C401.653 62.6263 401.592 62.6213 401.533 62.6126C401.292 62.5778 401.064 62.4856 400.867 62.3438L400.697 62.2138L400.795 62.342L400.797 62.3437C400.994 62.4855 401.222 62.5777 401.463 62.6125C401.546 62.6246 401.63 62.6296 401.713 62.6278ZM457.437 47.4538C463.527 46.4338 469.307 45.5138 474.437 44.7238H381.847L401.977 59.4638C410.027 56.935 418.209 54.8486 426.487 53.2138C436.437 51.1238 447.327 49.1538 457.437 47.4538Z" fill="#0E101A"/>
</g>
<defs>
<radialGradient id="paint0_radial_535_7447" cx="0" cy="0" r="1" gradientUnits="userSpaceOnUse" gradientTransform="translate(225.358 121.553) rotate(20.0108) scale(261.814 494.335)">
<stop stop-color="#4E84D1"/>
<stop offset="1" stop-color="#F2F5F9"/>
</radialGradient>
<linearGradient id="paint1_linear_535_7447" x1="335" y1="0" x2="335" y2="263.24" gradientUnits="userSpaceOnUse">
<stop stop-color="white" stop-opacity="0"/>
<stop offset="1" stop-color="white"/>
</linearGradient>
<clipPath id="clip0_535_7447">
<rect width="670" height="300" fill="white"/>
</clipPath>
</defs>
</svg>
