<svg width="310" height="441" viewBox="0 0 310 441" fill="none" xmlns="http://www.w3.org/2000/svg">
<path fill-rule="evenodd" clip-rule="evenodd" d="M208.913 418.484C208.664 418.871 208.409 419.501 208.19 420.5C207.779 422.371 207.607 424.084 207.495 425.204C207.487 425.284 207.48 425.362 207.472 425.436C207.444 425.712 207.419 425.946 207.394 426.127C207.382 426.218 207.369 426.297 207.354 426.364C207.341 426.428 207.324 426.491 207.3 426.542C207.288 426.567 207.269 426.603 207.236 426.634C207.199 426.668 207.136 426.704 207.055 426.693C206.984 426.683 206.938 426.642 206.915 426.617C206.89 426.591 206.871 426.561 206.858 426.535C206.806 426.438 206.755 426.271 206.7 426.05C206.674 425.947 206.736 425.843 206.839 425.817C206.915 425.798 206.993 425.827 207.038 425.887C207.055 425.747 207.072 425.583 207.09 425.397C207.098 425.323 207.106 425.245 207.114 425.164C207.226 424.044 207.399 422.311 207.815 420.417C208.039 419.397 208.306 418.718 208.591 418.276C208.877 417.832 209.189 417.616 209.501 417.555C209.808 417.495 210.074 417.595 210.253 417.698C210.343 417.75 210.415 417.805 210.465 417.848C210.491 417.869 210.51 417.888 210.524 417.901C210.531 417.908 210.537 417.914 210.541 417.918L210.546 417.923L210.548 417.925L210.548 417.925L210.548 417.925C210.549 417.926 210.549 417.926 210.408 418.056L210.549 417.926C210.621 418.003 210.616 418.125 210.539 418.197C210.461 418.269 210.34 418.265 210.268 418.187C210.268 418.187 210.268 418.187 210.268 418.187L210.268 418.187L210.267 418.186C210.265 418.184 210.262 418.181 210.257 418.177C210.249 418.168 210.235 418.156 210.217 418.14C210.18 418.109 210.127 418.068 210.061 418.03C209.927 417.953 209.758 417.896 209.574 417.932C209.395 417.967 209.161 418.099 208.913 418.484ZM210.268 418.187C210.268 418.187 210.268 418.187 210.268 418.187L210.268 418.187ZM206.953 426.379C206.952 426.38 206.952 426.38 206.953 426.379L206.953 426.379Z" fill="#72AAEA"/>
<path fill-rule="evenodd" clip-rule="evenodd" d="M209.569 420.666C209.609 420.764 209.562 420.876 209.464 420.916L206.682 422.056C206.584 422.096 206.472 422.049 206.432 421.951C206.392 421.853 206.439 421.741 206.537 421.701L209.319 420.561C209.417 420.521 209.529 420.568 209.569 420.666Z" fill="#72AAEA"/>
<path fill-rule="evenodd" clip-rule="evenodd" d="M211.862 419.452C211.862 419.452 211.862 419.452 211.862 419.452L211.862 419.454L211.859 419.46C211.856 419.466 211.852 419.475 211.846 419.487C211.836 419.511 211.82 419.547 211.8 419.593C211.761 419.687 211.708 419.822 211.651 419.99C211.537 420.326 211.412 420.787 211.363 421.289C211.265 422.295 211.47 423.426 212.631 424.103C212.722 424.156 212.753 424.274 212.7 424.365C212.646 424.457 212.529 424.488 212.437 424.434C211.092 423.65 210.875 422.33 210.981 421.252C211.034 420.712 211.168 420.221 211.287 419.867C211.347 419.69 211.404 419.546 211.446 419.445C211.467 419.395 211.485 419.356 211.497 419.329C211.503 419.315 211.508 419.304 211.511 419.297L211.515 419.289L211.516 419.286L211.517 419.286C211.517 419.286 211.517 419.285 211.69 419.369L211.517 419.285C211.563 419.19 211.678 419.15 211.773 419.196C211.869 419.242 211.908 419.357 211.862 419.452Z" fill="#72AAEA"/>
<path fill-rule="evenodd" clip-rule="evenodd" d="M212.014 420.422C212.077 420.336 212.197 420.318 212.282 420.38L214.251 421.815C214.336 421.878 214.355 421.998 214.293 422.083C214.23 422.169 214.11 422.188 214.025 422.125L212.056 420.69C211.971 420.628 211.952 420.508 212.014 420.422Z" fill="#72AAEA"/>
<path fill-rule="evenodd" clip-rule="evenodd" d="M213.814 419.739C213.904 419.796 213.931 419.914 213.874 420.004L212.336 422.456C212.279 422.546 212.161 422.573 212.071 422.516C211.982 422.46 211.954 422.342 212.011 422.252L213.549 419.8C213.606 419.71 213.724 419.683 213.814 419.739Z" fill="#72AAEA"/>
<path fill-rule="evenodd" clip-rule="evenodd" d="M127.209 6.69483C126.852 8.87181 128.327 10.9261 130.504 11.2833C132.681 11.6405 134.735 10.1652 135.092 7.98824C135.45 5.81126 133.974 3.75693 131.797 3.39976C129.62 3.04259 127.566 4.51784 127.209 6.69483ZM130.442 11.662C128.056 11.2705 126.439 9.01881 126.83 6.6327C127.222 4.2466 129.473 2.62963 131.86 3.02111C134.246 3.41259 135.863 5.66426 135.471 8.05037C135.08 10.4365 132.828 12.0534 130.442 11.662Z" fill="#72AAEA"/>
<path fill-rule="evenodd" clip-rule="evenodd" d="M135.946 4.616C133.537 5.11012 131.986 7.46286 132.48 9.871C132.974 12.2791 135.327 13.8308 137.735 13.3366C140.143 12.8425 141.695 10.4898 141.201 8.08165C140.706 5.67351 138.354 4.12188 135.946 4.616ZM132.104 9.94813C131.567 7.33239 133.253 4.77682 135.868 4.24011C138.484 3.7034 141.04 5.38878 141.576 8.00452C142.113 10.6203 140.428 13.1758 137.812 13.7125C135.196 14.2492 132.641 12.5639 132.104 9.94813Z" fill="#72AAEA"/>
<path fill-rule="evenodd" clip-rule="evenodd" d="M135.146 5.55032C135.182 5.65013 135.13 5.75989 135.03 5.79548L133.104 6.48233C133.004 6.51792 132.894 6.46586 132.859 6.36605C132.823 6.26625 132.875 6.15649 132.975 6.1209L134.901 5.43405C135.001 5.39846 135.111 5.45052 135.146 5.55032Z" fill="#72AAEA"/>
<path fill-rule="evenodd" clip-rule="evenodd" d="M135.415 6.34348C135.451 6.44313 135.399 6.55312 135.3 6.58914L132.529 7.59064C132.43 7.62667 132.32 7.57509 132.284 7.47544C132.248 7.37579 132.299 7.2658 132.399 7.22978L135.169 6.22828C135.269 6.19225 135.379 6.24383 135.415 6.34348Z" fill="#72AAEA"/>
<path fill-rule="evenodd" clip-rule="evenodd" d="M135.517 7.29979C135.555 7.39869 135.506 7.5097 135.407 7.54774L132.314 8.73727C132.215 8.7753 132.104 8.72597 132.066 8.62707C132.028 8.52817 132.078 8.41716 132.176 8.37912L135.269 7.1896C135.368 7.15156 135.479 7.2009 135.517 7.29979Z" fill="#72AAEA"/>
<path fill-rule="evenodd" clip-rule="evenodd" d="M135.294 8.59749C135.338 8.69386 135.295 8.80769 135.199 8.85175L132.379 10.141C132.282 10.1851 132.169 10.1427 132.125 10.0463C132.08 9.94995 132.123 9.83611 132.219 9.79206L135.04 8.50277C135.136 8.45871 135.25 8.50112 135.294 8.59749Z" fill="#72AAEA"/>
<path fill-rule="evenodd" clip-rule="evenodd" d="M134.798 9.60849C134.838 9.70633 134.792 9.81862 134.694 9.8593L132.553 10.7495C132.455 10.7902 132.343 10.7439 132.302 10.646C132.262 10.5482 132.308 10.4359 132.406 10.3952L134.547 9.50499C134.645 9.46431 134.757 9.51065 134.798 9.60849Z" fill="#72AAEA"/>
<path fill-rule="evenodd" clip-rule="evenodd" d="M132.831 1.7429C132.702 1.81443 132.569 1.87675 132.44 1.9231C132.222 2.00141 131.97 2.05007 131.763 1.96827C131.652 1.92406 131.56 1.84386 131.503 1.72717C131.448 1.61514 131.43 1.4818 131.44 1.33533C131.459 1.03643 131.578 0.812019 131.762 0.663177C131.941 0.518505 132.164 0.459633 132.373 0.450513C132.582 0.441375 132.792 0.481208 132.963 0.551348C133.049 0.586502 133.13 0.631367 133.196 0.686031C133.251 0.730761 133.304 0.78829 133.338 0.859431C133.404 0.78139 133.52 0.768425 133.602 0.83103C133.685 0.894871 133.701 1.01365 133.639 1.09775C133.639 1.09776 133.639 1.09778 133.639 1.09779L133.639 1.0978L133.638 1.09818L133.637 1.10003L133.631 1.10794C133.626 1.11504 133.618 1.12568 133.609 1.13941C133.589 1.1669 133.561 1.20665 133.529 1.25508C133.463 1.35242 133.381 1.48252 133.309 1.61711C133.235 1.75478 133.18 1.88406 133.159 1.98266C133.149 2.03155 133.15 2.05624 133.152 2.06697C133.233 2.12548 133.256 2.23789 133.202 2.32414C133.146 2.41405 133.028 2.44149 132.938 2.38543C132.744 2.26452 132.755 2.04109 132.784 1.90369C132.795 1.85137 132.811 1.79729 132.831 1.7429ZM133.067 1.12324C133.015 1.16522 132.958 1.20747 132.899 1.2489C132.71 1.37963 132.5 1.49384 132.311 1.5619C132.11 1.63371 131.974 1.63902 131.905 1.61158C131.879 1.60117 131.861 1.58595 131.847 1.55804C131.831 1.52547 131.816 1.46504 131.823 1.36017C131.836 1.1564 131.911 1.03594 132.003 0.961631C132.1 0.883147 132.236 0.840573 132.389 0.833865C132.542 0.827175 132.698 0.857131 132.817 0.906303C132.877 0.930805 132.923 0.957977 132.954 0.983219C132.985 1.00858 132.992 1.02433 132.992 1.02524C132.992 1.02528 132.992 1.02529 132.992 1.02528C133.006 1.06688 133.033 1.10052 133.067 1.12324ZM133.154 2.07391C133.154 2.0741 133.153 2.07298 133.152 2.06995C133.154 2.0722 133.154 2.07371 133.154 2.07391Z" fill="#72AAEA"/>
<path fill-rule="evenodd" clip-rule="evenodd" d="M140.774 2.04243C140.87 2.08835 140.91 2.20299 140.864 2.29848L140.301 3.46982C140.44 3.40121 140.597 3.36324 140.766 3.39231L140.767 3.39251C141.026 3.43877 141.203 3.58854 141.276 3.79514C141.344 3.9909 141.309 4.20798 141.212 4.38598C141.114 4.56624 140.946 4.72328 140.724 4.79688C140.498 4.87154 140.233 4.85491 139.953 4.71638C139.858 4.6693 139.82 4.55418 139.867 4.45925C139.914 4.36433 140.029 4.32554 140.124 4.37263C140.324 4.472 140.485 4.47168 140.603 4.43255C140.725 4.39235 140.819 4.30549 140.875 4.20324C140.931 4.09872 140.939 3.99468 140.914 3.9222C140.892 3.86064 140.838 3.79515 140.7 3.77035C140.607 3.75451 140.5 3.78442 140.375 3.87036C140.251 3.9562 140.129 4.08507 140.02 4.22687C139.911 4.36725 139.82 4.51226 139.756 4.62306C139.725 4.67821 139.7 4.72426 139.683 4.75623C139.675 4.7722 139.669 4.78461 139.665 4.79283L139.66 4.80194L139.659 4.80398L139.659 4.80433C139.613 4.89973 139.498 4.93983 139.403 4.8939C139.307 4.84796 139.267 4.73335 139.313 4.63787L139.313 4.63723L140.518 2.1322C140.564 2.0367 140.679 1.99651 140.774 2.04243Z" fill="#72AAEA"/>
<path fill-rule="evenodd" clip-rule="evenodd" d="M238.973 341.367C239.046 341.29 239.168 341.286 239.245 341.359L241.136 343.147C241.213 343.22 241.217 343.341 241.144 343.418C241.071 343.495 240.95 343.499 240.873 343.426L238.981 341.638C238.904 341.565 238.901 341.444 238.973 341.367Z" fill="#72AAEA"/>
<path fill-rule="evenodd" clip-rule="evenodd" d="M241.111 340.871C241.199 340.93 241.223 341.049 241.164 341.137L239.579 343.505C239.52 343.593 239.401 343.616 239.313 343.557C239.225 343.498 239.201 343.379 239.26 343.291L240.845 340.924C240.904 340.835 241.023 340.812 241.111 340.871Z" fill="#72AAEA"/>
<path fill-rule="evenodd" clip-rule="evenodd" d="M244.941 340.936C244.978 341.035 244.927 341.146 244.828 341.183L242.933 341.889C242.833 341.926 242.723 341.875 242.686 341.776C242.649 341.677 242.699 341.566 242.799 341.529L244.694 340.823C244.793 340.786 244.904 340.837 244.941 340.936Z" fill="#72AAEA"/>
<path fill-rule="evenodd" clip-rule="evenodd" d="M245.527 338.904C245.597 338.825 245.718 338.817 245.798 338.887L246.949 339.904C247.028 339.974 247.036 340.096 246.966 340.175C246.895 340.254 246.774 340.262 246.695 340.192L245.544 339.175C245.464 339.105 245.457 338.984 245.527 338.904Z" fill="#72AAEA"/>
<path fill-rule="evenodd" clip-rule="evenodd" d="M247.758 337.623C247.86 337.653 247.918 337.759 247.888 337.861L246.43 342.865C246.401 342.966 246.294 343.025 246.192 342.995C246.091 342.965 246.032 342.859 246.062 342.757L247.52 337.753C247.55 337.652 247.656 337.593 247.758 337.623Z" fill="#72AAEA"/>
<path fill-rule="evenodd" clip-rule="evenodd" d="M281.164 427.353C281.2 427.329 281.243 427.317 281.286 427.32L288.028 427.792C288.125 427.799 288.202 427.877 288.206 427.974L288.628 436.523C288.632 436.588 288.602 436.651 288.548 436.688L283.598 440.226C283.562 440.252 283.518 440.265 283.473 440.262L277.364 439.817C277.274 439.81 277.201 439.741 277.188 439.652L275.991 431.041C275.981 430.969 276.012 430.898 276.072 430.856L281.164 427.353ZM281.326 427.707L276.387 431.105L277.547 439.445L283.432 439.874L288.24 436.437L287.832 428.163L281.326 427.707Z" fill="#72AAEA"/>
<path fill-rule="evenodd" clip-rule="evenodd" d="M282.197 435.92C282.233 435.894 282.278 435.881 282.323 435.885L288.451 436.341C288.557 436.349 288.636 436.441 288.628 436.547C288.62 436.653 288.528 436.732 288.423 436.724L282.364 436.273L277.49 439.781C277.404 439.843 277.284 439.824 277.222 439.738C277.16 439.652 277.18 439.532 277.266 439.47L282.197 435.92Z" fill="#72AAEA"/>
<path fill-rule="evenodd" clip-rule="evenodd" d="M281.25 427.321C281.355 427.308 281.45 427.383 281.463 427.488L282.499 436.053C282.512 436.158 282.437 436.254 282.332 436.266C282.227 436.279 282.131 436.204 282.118 436.099L281.082 427.534C281.07 427.429 281.145 427.333 281.25 427.321Z" fill="#72AAEA"/>
<path fill-rule="evenodd" clip-rule="evenodd" d="M288.169 427.869C288.232 427.954 288.214 428.074 288.129 428.137L283.022 431.947C282.983 431.977 282.934 431.99 282.885 431.984L276.159 431.205C276.054 431.193 275.978 431.098 275.99 430.993C276.002 430.887 276.098 430.812 276.203 430.824L282.854 431.594L287.9 427.83C287.985 427.766 288.105 427.784 288.169 427.869Z" fill="#72AAEA"/>
<path fill-rule="evenodd" clip-rule="evenodd" d="M282.894 431.602C283 431.595 283.091 431.674 283.099 431.78L283.678 440.057C283.686 440.163 283.606 440.254 283.5 440.262C283.394 440.269 283.303 440.189 283.295 440.084L282.716 431.807C282.709 431.701 282.788 431.609 282.894 431.602Z" fill="#72AAEA"/>
<path fill-rule="evenodd" clip-rule="evenodd" d="M42.1853 325.282C42.2692 325.111 42.4756 325.04 42.6464 325.124L48.944 328.218C49.1148 328.302 49.1853 328.508 49.1014 328.679C49.0175 328.85 48.811 328.92 48.6402 328.836L42.3426 325.743C42.1718 325.659 42.1014 325.452 42.1853 325.282Z" fill="#72AAEA"/>
<path fill-rule="evenodd" clip-rule="evenodd" d="M46.8506 322.739C47.0341 322.789 47.1421 322.979 47.0917 323.162L45.2865 329.742C45.2362 329.926 45.0466 330.034 44.8631 329.984C44.6796 329.933 44.5717 329.744 44.622 329.56L46.4273 322.98C46.4776 322.797 46.6672 322.689 46.8506 322.739Z" fill="#72AAEA"/>
<path fill-rule="evenodd" clip-rule="evenodd" d="M47.6346 319.86L47.4043 319.604C47.2628 319.731 47.2512 319.949 47.3785 320.09C47.5052 320.231 47.722 320.243 47.8636 320.117L47.8667 320.115C47.8703 320.111 47.8768 320.106 47.886 320.099C47.9043 320.085 47.9326 320.064 47.9686 320.041C48.0427 319.993 48.1389 319.944 48.2416 319.918C48.3421 319.893 48.4376 319.892 48.5277 319.926C48.6158 319.96 48.7342 320.039 48.8592 320.237C48.9599 320.396 49.0013 320.626 48.9769 320.923C48.9528 321.217 48.8676 321.538 48.758 321.845C48.6491 322.15 48.5209 322.428 48.4192 322.63C48.3686 322.731 48.325 322.812 48.2943 322.868C48.279 322.895 48.267 322.917 48.259 322.931L48.2501 322.946L48.2481 322.95L48.2478 322.95L48.2477 322.95C48.2477 322.95 48.2477 322.95 48.2477 322.95C48.1731 323.076 48.1863 323.236 48.2806 323.348C48.3751 323.46 48.53 323.5 48.6669 323.448L51.1956 322.483C51.3734 322.415 51.4625 322.216 51.3947 322.038C51.3269 321.861 51.1278 321.771 50.95 321.839L49.2444 322.49C49.2995 322.361 49.355 322.222 49.4069 322.077C49.5272 321.74 49.6328 321.355 49.6636 320.98C49.6941 320.607 49.6545 320.205 49.4417 319.869C49.2532 319.57 49.0254 319.378 48.7705 319.282C48.5176 319.186 48.2733 319.2 48.0732 319.25C47.8754 319.3 47.7101 319.388 47.598 319.46C47.5409 319.496 47.4948 319.53 47.4621 319.556C47.4457 319.568 47.4325 319.579 47.4228 319.587L47.4109 319.598L47.4069 319.601L47.4054 319.603L47.4048 319.603L47.4045 319.603C47.4044 319.603 47.4043 319.604 47.6346 319.86Z" fill="#72AAEA"/>
<path fill-rule="evenodd" clip-rule="evenodd" d="M52.3265 421.707C49.9625 422.653 48.8124 425.336 49.7577 427.7C50.7031 430.064 53.386 431.214 55.75 430.268C58.1141 429.323 59.2642 426.64 58.3188 424.276C57.3734 421.912 54.6906 420.762 52.3265 421.707ZM49.5483 427.783C48.5567 425.304 49.763 422.49 52.2428 421.498C54.7225 420.506 57.5366 421.713 58.5282 424.192C59.5198 426.672 58.3135 429.486 55.8338 430.478C53.354 431.469 50.54 430.263 49.5483 427.783Z" fill="#72AAEA"/>
<path fill-rule="evenodd" clip-rule="evenodd" d="M57.5065 419.313C56.8925 419.777 56.1368 420.527 55.3161 421.49C55.2757 421.538 55.2045 421.543 55.1571 421.503C55.1097 421.462 55.104 421.391 55.1444 421.344C55.9701 420.374 56.738 419.611 57.3707 419.133C57.6864 418.895 57.9741 418.724 58.2225 418.635C58.468 418.548 58.6998 418.534 58.8786 418.652L58.8786 418.652C59.0143 418.742 59.0921 418.891 59.1287 419.068C59.1651 419.246 59.1631 419.463 59.1302 419.712C59.0643 420.209 58.8707 420.854 58.5715 421.602C57.9725 423.098 56.941 425.025 55.6199 427.03L55.6198 427.03C54.2986 429.034 52.9345 430.741 51.7952 431.882C51.2262 432.451 50.709 432.884 50.278 433.14C50.0627 433.268 49.8634 433.356 49.6859 433.392C49.5079 433.428 49.3407 433.415 49.2047 433.325L49.2046 433.325C49.0259 433.207 48.9476 432.988 48.9311 432.728C48.9143 432.465 48.9586 432.133 49.0533 431.749C49.243 430.979 49.6422 429.973 50.2078 428.832C50.2355 428.777 50.3031 428.754 50.3589 428.782C50.4147 428.809 50.4375 428.877 50.4098 428.933C49.8477 430.066 49.4564 431.056 49.2723 431.803C49.18 432.177 49.1415 432.483 49.1562 432.714C49.171 432.947 49.2381 433.077 49.3289 433.137C49.3981 433.183 49.4981 433.2 49.6407 433.171C49.7839 433.142 49.9587 433.068 50.1627 432.946C50.5702 432.704 51.0721 432.286 51.6356 431.722C52.7613 430.595 54.1161 428.901 55.4315 426.906C56.747 424.909 57.7703 422.996 58.3621 421.518C58.6584 420.778 58.8443 420.152 58.9066 419.682C58.9378 419.447 58.9372 419.257 58.9077 419.114C58.8784 418.971 58.8232 418.886 58.7542 418.841C58.6634 418.781 58.518 418.77 58.2979 418.848C58.0806 418.925 57.8141 419.081 57.5065 419.313Z" fill="#72AAEA"/>
<path fill-rule="evenodd" clip-rule="evenodd" d="M46.0449 424.67C45.928 424.757 45.8743 424.843 45.8622 424.925L45.8621 424.925C45.8466 425.028 45.8936 425.158 46.0442 425.317C46.1932 425.474 46.4283 425.643 46.7448 425.816C47.3766 426.163 48.3082 426.518 49.4515 426.848C49.5113 426.865 49.5458 426.927 49.5286 426.987C49.5114 427.047 49.4489 427.082 49.389 427.064C48.2385 426.733 47.289 426.372 46.6363 426.014C46.3106 425.835 46.0526 425.654 45.8806 425.472C45.7102 425.293 45.6084 425.096 45.6391 424.891C45.663 424.73 45.7646 424.597 45.9103 424.489C46.0557 424.38 46.2538 424.29 46.4928 424.215C46.9712 424.065 47.6383 423.968 48.4422 423.923C50.0518 423.834 52.234 423.956 54.6085 424.307C56.983 424.658 59.107 425.174 60.6219 425.726C61.3785 426.001 61.9888 426.287 62.4031 426.57C62.61 426.711 62.7735 426.854 62.8813 427C62.9893 427.146 63.0478 427.303 63.0239 427.464C62.9911 427.687 62.8112 427.856 62.5631 427.983C62.3115 428.113 61.9633 428.214 61.5402 428.289C60.6925 428.44 59.5163 428.492 58.1401 428.44C58.0778 428.438 58.0293 428.385 58.0316 428.323C58.034 428.261 58.0864 428.212 58.1486 428.215C59.5172 428.266 60.6754 428.214 61.5007 428.067C61.9141 427.994 62.2371 427.898 62.4599 427.783C62.6863 427.666 62.7841 427.545 62.8008 427.431L62.8008 427.431C62.813 427.349 62.7866 427.251 62.7 427.134C62.6131 427.017 62.4722 426.89 62.2761 426.756C61.8843 426.489 61.294 426.21 60.5448 425.938C59.048 425.393 56.9397 424.88 54.5755 424.53C52.2113 424.18 50.045 424.06 48.4546 424.148C47.6585 424.192 47.0128 424.288 46.5604 424.43C46.3339 424.502 46.1621 424.582 46.0449 424.67Z" fill="#72AAEA"/>
<path fill-rule="evenodd" clip-rule="evenodd" d="M48.3679 417.68C48.2217 417.635 48.1302 417.648 48.0739 417.684C48.0307 417.712 47.9924 417.764 47.9679 417.855C47.9431 417.947 47.9349 418.072 47.9472 418.231C47.9716 418.548 48.0753 418.975 48.2538 419.496C48.6103 420.535 49.2564 421.92 50.1209 423.48C50.1511 423.534 50.1314 423.603 50.0769 423.633C50.0224 423.663 49.9538 423.644 49.9236 423.589C49.0559 422.023 48.4029 420.626 48.0405 419.569C47.8595 419.042 47.7488 418.593 47.7223 418.248C47.709 418.076 47.7162 417.923 47.75 417.797C47.784 417.67 47.8474 417.562 47.9514 417.495L47.9514 417.495C48.088 417.406 48.2584 417.411 48.4342 417.465C48.6113 417.519 48.8134 417.629 49.0345 417.784C49.4777 418.094 50.0199 418.599 50.6245 419.255C51.835 420.568 53.3105 422.504 54.7654 424.752C56.2214 427 57.3847 429.139 58.088 430.781C58.4392 431.601 58.6779 432.302 58.7795 432.833C58.8302 433.098 58.8481 433.327 58.8253 433.511C58.8026 433.694 58.7367 433.851 58.6001 433.939L58.6001 433.939C58.4205 434.055 58.1827 434.012 57.9381 433.899C57.6864 433.782 57.3891 433.573 57.0581 433.29C56.3947 432.722 55.5749 431.836 54.6821 430.723C54.6431 430.675 54.6508 430.604 54.6994 430.565C54.748 430.526 54.8189 430.534 54.8579 430.582C55.7469 431.689 56.5567 432.564 57.2048 433.119C57.5296 433.397 57.8086 433.59 58.0329 433.694C58.2643 433.802 58.4024 433.798 58.4777 433.75C58.5339 433.713 58.5826 433.635 58.6015 433.483C58.6202 433.333 58.6066 433.13 58.558 432.875C58.4609 432.368 58.2294 431.684 57.8806 430.869C57.1838 429.243 56.0274 427.115 54.5761 424.875L54.5761 424.875C53.126 422.634 51.6581 420.709 50.4587 419.408C49.8583 418.756 49.3289 418.265 48.9052 417.969C48.6929 417.82 48.5129 417.725 48.3679 417.68Z" fill="#72AAEA"/>
<path d="M59.4817 420.79C59.2449 421.149 58.7645 421.248 58.4058 421.011C58.0472 420.774 57.948 420.294 58.1848 419.935C58.4216 419.577 58.902 419.477 59.2607 419.714C59.6193 419.951 59.7163 420.431 59.4817 420.79Z" fill="#72AAEA"/>
<path d="M56.9127 432.674C56.6759 433.032 56.1955 433.132 55.8369 432.895C55.4783 432.658 55.379 432.178 55.6158 431.819C55.8527 431.46 56.3331 431.361 56.6917 431.598C57.0481 431.835 57.1473 432.315 56.9127 432.674Z" fill="#72AAEA"/>
<path d="M52.7673 424.615C52.5305 424.974 52.0501 425.073 51.6915 424.836C51.3329 424.599 51.2336 424.119 51.4704 423.76C51.7073 423.402 52.1877 423.303 52.5463 423.539C52.9049 423.776 53.0041 424.257 52.7673 424.615Z" fill="#72AAEA"/>
<path fill-rule="evenodd" clip-rule="evenodd" d="M15.0011 175.012C15.0021 174.936 15.0432 174.868 15.1088 174.833L19.4414 172.556C19.507 172.522 19.5873 172.526 19.652 172.568L23.9247 175.31C23.9895 175.352 24.0289 175.424 24.0279 175.501L23.9627 180.527C23.9617 180.604 23.9206 180.672 23.855 180.706L19.5224 182.983C19.4567 183.018 19.3763 183.013 19.3116 182.972L15.0406 180.224C14.9759 180.182 14.9366 180.109 14.9376 180.033L15.0011 175.012ZM15.4212 175.158L15.3607 179.933L19.4225 182.547L23.5427 180.381L23.6047 175.601L19.5414 172.993L15.4212 175.158Z" fill="#72AAEA"/>
<path fill-rule="evenodd" clip-rule="evenodd" d="M14.3146 191.179C14.2574 191.074 14.2937 190.945 14.3957 190.891L18.7446 188.604C18.8106 188.57 18.8912 188.574 18.9562 188.616L23.2413 191.372C23.3418 191.437 23.3748 191.57 23.3151 191.669C23.2554 191.768 23.1256 191.796 23.0251 191.731L18.845 189.043L14.6026 191.274C14.5007 191.327 14.3717 191.285 14.3146 191.179Z" fill="#72AAEA"/>
<path fill-rule="evenodd" clip-rule="evenodd" d="M6.31339 174.743C6.31432 174.667 6.35539 174.598 6.42111 174.564L10.7536 172.287C10.8193 172.252 10.8997 172.257 10.9645 172.298L15.2355 175.046C15.3002 175.088 15.3394 175.161 15.3385 175.237L15.2749 180.258C15.2739 180.334 15.2329 180.402 15.1672 180.437L10.8347 182.714C10.769 182.748 10.6886 182.744 10.6239 182.702L6.35497 179.958C6.29024 179.916 6.25095 179.844 6.25188 179.768L6.31339 174.743ZM6.73346 174.889L6.67497 179.667L10.7347 182.277L14.8549 180.112L14.9153 175.337L10.8535 172.723L6.73346 174.889Z" fill="#72AAEA"/>
<path fill-rule="evenodd" clip-rule="evenodd" d="M10.9337 167.383C10.9346 167.307 10.9757 167.239 11.0414 167.204L15.3739 164.928C15.4396 164.893 15.5198 164.897 15.5846 164.939L19.8572 167.681C19.922 167.723 19.9614 167.795 19.9604 167.872L19.8952 172.899C19.8942 172.975 19.8532 173.043 19.7875 173.077L15.455 175.354C15.3893 175.389 15.3089 175.384 15.2441 175.343L10.9731 172.595C10.9084 172.553 10.8691 172.48 10.8701 172.404L10.9337 167.383ZM11.3537 167.529L11.2932 172.304L15.355 174.918L19.4752 172.752L19.5372 167.972L15.474 165.364L11.3537 167.529Z" fill="#72AAEA"/>
<path d="M15.523 175.754C15.8436 175.586 15.958 175.181 15.7786 174.849C15.5991 174.518 15.1937 174.386 14.8731 174.554C14.5525 174.723 14.4381 175.128 14.6175 175.459C14.797 175.791 15.2024 175.923 15.523 175.754Z" fill="#72AAEA"/>
<path d="M2.05973 172.651C2.38034 172.482 2.49475 172.077 2.31528 171.746C2.1358 171.414 1.7304 171.282 1.40979 171.451C1.08918 171.619 0.974764 172.025 1.15424 172.356C1.33372 172.687 1.73912 172.819 2.05973 172.651Z" fill="#72AAEA"/>
<path d="M22.5546 191.767C22.3756 191.437 22.4905 191.03 22.8101 190.862C23.1298 190.694 23.5367 190.826 23.7156 191.157C23.8945 191.487 23.7797 191.894 23.46 192.062C23.1404 192.23 22.7335 192.097 22.5546 191.767Z" fill="#72AAEA"/>
<path d="M14.8227 191.771C15.1433 191.603 15.2577 191.197 15.0783 190.866C14.8988 190.534 14.4934 190.402 14.1728 190.571C13.8522 190.739 13.7377 191.145 13.9172 191.476C14.0967 191.807 14.5021 191.94 14.8227 191.771Z" fill="#72AAEA"/>
<path d="M24.1413 165.61C23.9623 165.279 24.0772 164.873 24.3968 164.705C24.7165 164.537 25.1234 164.669 25.3023 165C25.4813 165.33 25.3664 165.737 25.0468 165.905C24.7292 166.077 24.3223 165.944 24.1413 165.61Z" fill="#72AAEA"/>
<path d="M19.1808 189.448C19.5014 189.279 19.6158 188.874 19.4363 188.543C19.2568 188.211 18.8514 188.079 18.5308 188.248C18.2102 188.416 18.0958 188.821 18.2753 189.153C18.4548 189.484 18.8602 189.616 19.1808 189.448Z" fill="#72AAEA"/>
<path d="M19.2898 168.197C19.1109 167.866 19.2257 167.46 19.5454 167.292C19.865 167.124 20.2719 167.256 20.4509 167.587C20.6298 167.917 20.515 168.324 20.1953 168.492C19.8777 168.664 19.4708 168.531 19.2898 168.197Z" fill="#72AAEA"/>
<path d="M18.685 183.087C18.506 182.757 18.6209 182.35 18.9405 182.182C19.2602 182.014 19.6671 182.147 19.846 182.477C20.0249 182.808 19.9101 183.214 19.5905 183.382C19.2708 183.55 18.8639 183.418 18.685 183.087Z" fill="#72AAEA"/>
<path fill-rule="evenodd" clip-rule="evenodd" d="M19.6917 167.981C19.6341 167.873 19.6709 167.742 19.7739 167.687L24.612 165.118C24.715 165.063 24.8452 165.106 24.9028 165.213C24.9604 165.321 24.9236 165.452 24.8206 165.507L19.9825 168.076C19.8795 168.131 19.7493 168.088 19.6917 167.981Z" fill="#72AAEA"/>
<path fill-rule="evenodd" clip-rule="evenodd" d="M19.2099 182.571C19.3254 182.581 19.4147 182.684 19.4093 182.801L19.1306 188.868C19.1252 188.985 19.0272 189.071 18.9117 189.061C18.7961 189.051 18.7068 188.948 18.7122 188.831L18.991 182.764C18.9963 182.647 19.0943 182.561 19.2099 182.571Z" fill="#72AAEA"/>
<path fill-rule="evenodd" clip-rule="evenodd" d="M1.55005 171.89C1.60613 171.79 1.73358 171.758 1.83472 171.819L6.66186 174.73C6.763 174.791 6.79953 174.921 6.74346 175.021C6.68738 175.121 6.55993 175.153 6.45879 175.092L1.63166 172.182C1.53051 172.121 1.49398 171.99 1.55005 171.89Z" fill="#72AAEA"/>
<path fill-rule="evenodd" clip-rule="evenodd" d="M22.1368 31.3837C19.2343 31.3837 16.8837 33.7345 16.8837 36.633C16.8837 37.296 17.0059 37.9288 17.2315 38.5132L17.232 38.5143C17.55 39.3538 18.0828 40.0903 18.7604 40.6568L18.7608 40.6572C19.5531 41.3235 20.5448 41.7602 21.6366 41.8639C21.7993 41.8786 21.966 41.8861 22.1368 41.8861C23.525 41.8861 24.7906 41.3458 25.7309 40.4573L25.7317 40.4566C26.7494 39.5055 27.3861 38.1436 27.3861 36.633C27.3861 35.4889 27.0197 34.4305 26.3978 33.568L26.3975 33.5676C25.8905 32.8608 25.2095 32.2871 24.4173 31.9058L24.4166 31.9054C23.7249 31.5688 22.9516 31.3837 22.1368 31.3837ZM16.5 36.633C16.5 33.5224 19.0226 31 22.1368 31C23.0102 31 23.8407 31.1985 24.5841 31.5602C25.434 31.9694 26.1649 32.585 26.7092 33.3438C27.3765 34.2694 27.7698 35.4058 27.7698 36.633C27.7698 38.2533 27.0866 39.7154 25.9941 40.7366C24.9852 41.6897 23.6263 42.2698 22.1368 42.2698C21.9547 42.2698 21.7763 42.2619 21.6014 42.246L21.6007 42.2459C20.4287 42.1347 19.364 41.6658 18.514 40.951C17.7874 40.3434 17.2153 39.5531 16.8733 38.6508C16.631 38.0228 16.5 37.3434 16.5 36.633Z" fill="#72AAEA"/>
<path fill-rule="evenodd" clip-rule="evenodd" d="M25.8628 36.9667C25.5056 36.9667 25.2181 37.2557 25.2181 37.6152C25.2181 37.9735 25.5083 38.2637 25.8666 38.2637C26.2249 38.2637 26.5151 37.9735 26.5151 37.6152C26.5151 37.258 26.2222 36.9667 25.8628 36.9667ZM24.8344 37.6152C24.8344 37.0461 25.2914 36.583 25.8628 36.583C26.4319 36.583 26.8988 37.0438 26.8988 37.6152C26.8988 38.1855 26.4368 38.6474 25.8666 38.6474C25.2963 38.6474 24.8344 38.1855 24.8344 37.6152Z" fill="#72AAEA"/>
<path fill-rule="evenodd" clip-rule="evenodd" d="M17.2946 38.6712C17.5955 39.3921 18.0565 40.0315 18.6312 40.5447C18.8207 40.3368 18.9367 40.0604 18.9367 39.7561C18.9367 39.1065 18.409 38.5781 17.7548 38.5781C17.5901 38.5781 17.4342 38.6108 17.2946 38.6712ZM16.9512 38.419C17.1861 38.2728 17.4632 38.1943 17.7548 38.1943C18.6202 38.1943 19.3204 38.8938 19.3204 39.7561C19.3204 40.2377 19.1012 40.6668 18.7602 40.951C18.689 41.0104 18.5854 41.0103 18.5143 40.9508C17.7874 40.3431 17.2152 39.5525 16.8732 38.6499C16.8407 38.5642 16.8734 38.4675 16.9512 38.419Z" fill="#72AAEA"/>
<path fill-rule="evenodd" clip-rule="evenodd" d="M23.8367 39.5302C22.6921 39.5302 21.7646 40.4607 21.7646 41.6061C21.7646 41.6976 21.7705 41.7873 21.7824 41.8752C21.8985 41.8826 22.0166 41.8862 22.1368 41.8862C23.4726 41.8862 24.6949 41.386 25.6231 40.5565C25.265 39.9433 24.6 39.5302 23.8367 39.5302ZM21.3809 41.6061C21.3809 40.2497 22.4793 39.1465 23.8367 39.1465C24.8028 39.1465 25.6352 39.7047 26.0346 40.5118C26.072 40.5874 26.0557 40.6785 25.9944 40.7364C24.9855 41.6897 23.6265 42.2699 22.1368 42.2699C21.9547 42.2699 21.7762 42.262 21.6014 42.2461C21.5175 42.2385 21.4484 42.177 21.431 42.0946C21.3975 41.9354 21.3809 41.7725 21.3809 41.6061Z" fill="#72AAEA"/>
<path fill-rule="evenodd" clip-rule="evenodd" d="M20.8168 32.163C20.2319 32.163 19.7577 32.6372 19.7577 33.2221C19.7577 33.807 20.2319 34.2811 20.8168 34.2811C21.4017 34.2811 21.8758 33.807 21.8758 33.2221C21.8758 32.6372 21.4017 32.163 20.8168 32.163ZM19.374 33.2221C19.374 32.4252 20.0199 31.7793 20.8168 31.7793C21.6136 31.7793 22.2595 32.4252 22.2595 33.2221C22.2595 34.0189 21.6136 34.6649 20.8168 34.6649C20.0199 34.6649 19.374 34.0189 19.374 33.2221Z" fill="#72AAEA"/>
<path fill-rule="evenodd" clip-rule="evenodd" d="M21.3963 36.3876C21.1838 36.3876 21.0087 36.5627 21.0087 36.7752C21.0087 36.9877 21.1838 37.1627 21.3963 37.1627C21.6088 37.1627 21.7839 36.9877 21.7839 36.7752C21.7839 36.5627 21.6088 36.3876 21.3963 36.3876ZM20.625 36.7752C20.625 36.3507 20.9719 36.0039 21.3963 36.0039C21.8207 36.0039 22.1676 36.3507 22.1676 36.7752C22.1676 37.1996 21.8207 37.5465 21.3963 37.5465C20.9719 37.5465 20.625 37.1996 20.625 36.7752Z" fill="#72AAEA"/>
<path fill-rule="evenodd" clip-rule="evenodd" d="M24.4082 31.5647C24.4625 31.5349 24.5279 31.5331 24.5838 31.56C25.4339 31.9692 26.1649 32.5849 26.7094 33.3439C26.7447 33.3933 26.7547 33.4564 26.7362 33.5142C26.7177 33.572 26.673 33.6177 26.6156 33.6373C26.4464 33.6952 26.2637 33.7205 26.0815 33.7205C25.0924 33.7205 24.2972 32.9203 24.2972 31.9324C24.2972 31.856 24.3015 31.7833 24.31 31.7105C24.3173 31.6489 24.3538 31.5946 24.4082 31.5647ZM24.6853 32.0443C24.7418 32.7689 25.3431 33.3368 26.0815 33.3368C26.1276 33.3368 26.1729 33.3348 26.2172 33.3308C25.7962 32.8097 25.2759 32.3718 24.6853 32.0443Z" fill="#72AAEA"/>
<path fill-rule="evenodd" clip-rule="evenodd" d="M296.545 271.049C296.647 271.077 296.706 271.183 296.678 271.285L295.36 276.037L298.227 279.174C298.299 279.252 298.293 279.374 298.215 279.445C298.137 279.517 298.016 279.511 297.944 279.433L295.005 276.217C294.96 276.169 294.944 276.1 294.962 276.037L296.308 271.183C296.337 271.08 296.442 271.021 296.545 271.049Z" fill="#72AAEA"/>
<path fill-rule="evenodd" clip-rule="evenodd" d="M298.027 273.083C298.095 273.002 298.216 272.991 298.297 273.059L301.658 275.872C301.74 275.94 301.75 276.061 301.682 276.142C301.614 276.224 301.493 276.234 301.412 276.166L298.051 273.354C297.969 273.286 297.959 273.165 298.027 273.083Z" fill="#72AAEA"/>
<path fill-rule="evenodd" clip-rule="evenodd" d="M300.56 272.338C300.658 272.378 300.705 272.49 300.665 272.588L299.211 276.161C299.171 276.259 299.059 276.306 298.961 276.266C298.863 276.226 298.816 276.114 298.856 276.016L300.31 272.444C300.35 272.346 300.462 272.298 300.56 272.338Z" fill="#72AAEA"/>
<path fill-rule="evenodd" clip-rule="evenodd" d="M302.846 275.436C302.952 275.432 303.04 275.516 303.043 275.622L302.851 275.627C303.043 275.622 303.043 275.622 303.043 275.622L303.043 275.622L303.043 275.623L303.043 275.626L303.044 275.636C303.044 275.644 303.044 275.656 303.044 275.671C303.044 275.701 303.043 275.744 303.041 275.796C303.037 275.898 303.027 276.037 303.001 276.183C302.976 276.327 302.935 276.487 302.863 276.625C302.792 276.762 302.679 276.901 302.5 276.955C302.398 276.985 302.291 276.927 302.261 276.826C302.231 276.724 302.288 276.617 302.39 276.587C302.429 276.575 302.476 276.539 302.522 276.449C302.568 276.36 302.601 276.243 302.623 276.117C302.645 275.993 302.654 275.872 302.658 275.78C302.66 275.734 302.66 275.697 302.66 275.671C302.66 275.658 302.66 275.648 302.66 275.642L302.66 275.635L302.66 275.633C302.66 275.633 302.66 275.633 302.66 275.633M302.846 275.436C302.74 275.439 302.657 275.527 302.66 275.633L302.846 275.436Z" fill="#72AAEA"/>
<path fill-rule="evenodd" clip-rule="evenodd" d="M303.123 271.975C303.186 271.89 303.307 271.872 303.392 271.935L305.422 273.443C305.507 273.507 305.524 273.627 305.461 273.712C305.398 273.797 305.278 273.815 305.193 273.751L303.163 272.243C303.078 272.18 303.06 272.06 303.123 271.975Z" fill="#72AAEA"/>
<path fill-rule="evenodd" clip-rule="evenodd" d="M306.111 270.665C306.213 270.694 306.273 270.799 306.244 270.901L304.241 278.115C304.213 278.217 304.107 278.277 304.005 278.249C303.903 278.221 303.843 278.115 303.871 278.013L305.874 270.799C305.903 270.697 306.009 270.637 306.111 270.665Z" fill="#72AAEA"/>
<path fill-rule="evenodd" clip-rule="evenodd" d="M306.032 268.2C306.111 268.13 306.233 268.138 306.303 268.217L309.557 271.901C309.602 271.953 309.617 272.025 309.594 272.09L308.205 276.119C308.171 276.22 308.062 276.273 307.961 276.238C307.861 276.204 307.808 276.095 307.843 275.994L309.195 272.071L306.015 268.471C305.945 268.392 305.953 268.271 306.032 268.2Z" fill="#72AAEA"/>
<path fill-rule="evenodd" clip-rule="evenodd" d="M287.684 13.2774C287.751 13.2636 287.82 13.2864 287.866 13.3373L293.576 19.7108C293.612 19.7512 293.629 19.8049 293.624 19.8587C293.618 19.9126 293.59 19.9616 293.546 19.9936L283.128 27.6334C283.061 27.6828 282.969 27.6829 282.902 27.6336C282.834 27.5842 282.806 27.4968 282.833 27.4176L287.541 13.4042C287.563 13.3395 287.618 13.2912 287.684 13.2774ZM287.8 13.8387L283.39 26.966L293.149 19.8093L287.8 13.8387Z" fill="#72AAEA"/>
<path fill-rule="evenodd" clip-rule="evenodd" d="M292.258 18.247C292.327 18.3271 292.318 18.4482 292.238 18.5176L291.099 19.5041L292.177 20.7365C292.246 20.8163 292.238 20.9375 292.159 21.0073C292.079 21.077 291.958 21.0689 291.888 20.9892L290.683 19.6116C290.649 19.5732 290.632 19.5229 290.636 19.472C290.639 19.4211 290.663 19.3737 290.702 19.3402L291.987 18.2275C292.067 18.1581 292.188 18.1668 292.258 18.247Z" fill="#72AAEA"/>
<path fill-rule="evenodd" clip-rule="evenodd" d="M264.047 194.44C264.111 194.408 264.186 194.413 264.245 194.454L271.47 199.53C271.526 199.57 271.557 199.637 271.551 199.705C271.544 199.774 271.502 199.834 271.439 199.862L264.052 203.216C263.992 203.243 263.923 203.238 263.868 203.201C263.813 203.165 263.78 203.103 263.781 203.037L263.942 194.607C263.944 194.536 263.984 194.472 264.047 194.44ZM264.319 194.975L264.171 202.741L270.975 199.651L264.319 194.975Z" fill="#72AAEA"/>
<path fill-rule="evenodd" clip-rule="evenodd" d="M264.045 194.441C264.139 194.392 264.255 194.428 264.304 194.522L267.823 201.233C267.872 201.327 267.836 201.443 267.742 201.492C267.648 201.541 267.532 201.505 267.483 201.411L263.964 194.7C263.915 194.606 263.951 194.49 264.045 194.441Z" fill="#72AAEA"/>
<path fill-rule="evenodd" clip-rule="evenodd" d="M267.861 199.657C267.955 199.611 268.069 199.65 268.116 199.744L268.692 200.891C268.739 200.986 268.701 201.101 268.606 201.148C268.512 201.196 268.396 201.158 268.349 201.063L267.858 200.085L267.173 200.417C267.077 200.463 266.962 200.423 266.916 200.328C266.87 200.232 266.91 200.118 267.005 200.071L267.861 199.657Z" fill="#72AAEA"/>
<path fill-rule="evenodd" clip-rule="evenodd" d="M284.46 72.5357C284.593 72.6816 284.582 72.9075 284.436 73.0402C280.41 76.7042 278.739 82.5547 280.661 88.0145C282.702 93.8018 288.162 97.4031 293.971 97.3474C294.168 97.3455 294.33 97.5039 294.332 97.7011C294.334 97.8983 294.175 98.0598 293.978 98.0616C287.873 98.1202 282.133 94.3359 279.988 88.2519L279.988 88.2517C277.967 82.5117 279.725 76.3623 283.956 72.5119C284.102 72.3792 284.327 72.3898 284.46 72.5357Z" fill="#72AAEA"/>
<path fill-rule="evenodd" clip-rule="evenodd" d="M307.511 87.66C307.698 87.7238 307.798 87.9269 307.734 88.1135C306.328 92.2196 303.122 95.6681 298.715 97.2273C298.529 97.2931 298.325 97.1957 298.259 97.0098C298.193 96.8238 298.291 96.6198 298.477 96.554C302.67 95.0704 305.72 91.7904 307.058 87.8822C307.122 87.6956 307.325 87.5961 307.511 87.66Z" fill="#72AAEA"/>
<path fill-rule="evenodd" clip-rule="evenodd" d="M307.016 78.7378C304.453 71.4594 296.478 67.6359 289.2 70.1989C289.014 70.2644 288.81 70.1667 288.745 69.9807C288.679 69.7946 288.777 69.5907 288.963 69.5252C296.613 66.8311 304.996 70.8503 307.69 78.5005C307.755 78.6865 307.658 78.8905 307.472 78.956C307.286 79.0215 307.082 78.9238 307.016 78.7378Z" fill="#72AAEA"/>
<path fill-rule="evenodd" clip-rule="evenodd" d="M300.614 72.6975C300.724 72.534 300.946 72.4908 301.11 72.6011C303.342 74.1066 305.135 76.3178 306.097 79.0574C308.484 85.8294 304.922 93.247 298.158 95.6339L298.157 95.634C293.082 97.4189 287.64 95.8685 284.225 92.1234C284.092 91.9777 284.103 91.7518 284.248 91.6189C284.394 91.486 284.62 91.4964 284.753 91.6422C287.981 95.1828 293.124 96.6466 297.92 94.9603C304.313 92.7043 307.679 85.6937 305.423 79.2945L305.423 79.2941C304.514 76.7052 302.821 74.6164 300.711 73.1933C300.547 73.083 300.504 72.8611 300.614 72.6975Z" fill="#72AAEA"/>
<path fill-rule="evenodd" clip-rule="evenodd" d="M289.758 71.7838C292.16 70.9369 294.644 70.8816 296.934 71.4853L289.758 71.7838ZM289.52 71.1102C292.061 70.2144 294.691 70.1554 297.116 70.7946C297.306 70.8449 297.42 71.0402 297.37 71.231C297.32 71.4217 297.124 71.5355 296.934 71.4853M289.52 71.1102L289.52 71.1103L289.52 71.1102ZM289.758 71.7839C283.365 74.0398 279.999 81.0504 282.254 87.4497C282.32 87.6357 282.222 87.8396 282.036 87.9052C281.85 87.9708 281.646 87.8731 281.581 87.6871C279.194 80.9151 282.756 73.4972 289.52 71.1103" fill="#72AAEA"/>
<path fill-rule="evenodd" clip-rule="evenodd" d="M288.822 75.2654C288.99 75.1616 289.21 75.2135 289.314 75.3812L294.142 83.1883C294.221 83.3147 294.212 83.4763 294.122 83.5941L289.722 89.3083C289.601 89.4646 289.377 89.4938 289.221 89.3734C289.064 89.2531 289.035 89.0288 289.156 88.8726L293.405 83.354L288.706 75.757C288.603 75.5892 288.654 75.3691 288.822 75.2654Z" fill="#72AAEA"/>
</svg>
