<svg width="541" height="206" viewBox="0 0 541 206" fill="none" xmlns="http://www.w3.org/2000/svg">
<path fill-rule="evenodd" clip-rule="evenodd" d="M177.038 34.0731C176.566 34.8058 176.084 35.9971 175.669 37.8848C174.892 41.4243 174.568 44.6631 174.356 46.782C174.341 46.934 174.326 47.0802 174.312 47.2203C174.26 47.7423 174.213 48.1855 174.165 48.5277C174.141 48.6988 174.116 48.8499 174.089 48.9759C174.064 49.0959 174.032 49.2162 173.987 49.3125C173.965 49.3593 173.927 49.4273 173.865 49.4858C173.795 49.5513 173.676 49.6184 173.523 49.5977C173.389 49.5795 173.301 49.5017 173.258 49.4549C173.211 49.4044 173.176 49.3475 173.15 49.299C173.053 49.1155 172.957 48.8 172.851 48.3821C172.802 48.1878 172.92 47.9905 173.114 47.9414C173.259 47.9048 173.406 47.9611 173.491 48.0727C173.522 47.8085 173.555 47.499 173.59 47.1473C173.605 47.0068 173.619 46.8599 173.634 46.7069C173.846 44.5883 174.174 41.3115 174.96 37.7292C175.384 35.7998 175.89 34.5147 176.428 33.6799C176.969 32.8405 177.56 32.4317 178.149 32.3166C178.73 32.203 179.233 32.3909 179.571 32.5861C179.742 32.6848 179.879 32.7895 179.973 32.8699C180.021 32.9103 180.058 32.9451 180.085 32.9707C180.098 32.9835 180.108 32.9941 180.116 33.0019L180.125 33.0117L180.129 33.015L180.13 33.0162L180.13 33.0167C180.13 33.0169 180.131 33.0171 179.865 33.2642L180.131 33.0171C180.267 33.1639 180.259 33.3935 180.112 33.5299C179.965 33.6661 179.737 33.658 179.6 33.5122C179.6 33.512 179.6 33.5118 179.599 33.5116L179.6 33.5119L179.597 33.5091C179.594 33.5058 179.588 33.4999 179.58 33.492C179.563 33.476 179.537 33.4519 179.503 33.4226C179.434 33.3638 179.333 33.2866 179.208 33.2147C178.955 33.0689 178.635 32.9611 178.288 33.0288C177.949 33.0952 177.507 33.345 177.038 34.0731ZM179.599 33.5116C179.599 33.5116 179.599 33.5116 179.599 33.5116ZM173.33 49.0036C173.329 49.0068 173.329 49.0064 173.33 49.0035Z" fill="#3D8FEC"/>
<path fill-rule="evenodd" clip-rule="evenodd" d="M178.278 38.1995C178.353 38.3849 178.265 38.5968 178.079 38.6728L172.818 40.8281C172.633 40.904 172.421 40.8153 172.345 40.6299C172.269 40.4444 172.358 40.2325 172.543 40.1566L177.804 38.0013C177.99 37.9253 178.202 38.014 178.278 38.1995Z" fill="#3D8FEC"/>
<path fill-rule="evenodd" clip-rule="evenodd" d="M182.615 35.9044C182.615 35.9044 182.615 35.9043 182.615 35.9044L182.614 35.9071L182.608 35.9191C182.603 35.9301 182.595 35.9471 182.585 35.9698C182.564 36.0151 182.534 36.0831 182.497 36.1713C182.424 36.3478 182.322 36.6046 182.215 36.9218C182 37.5578 181.764 38.4288 181.671 39.3786C181.484 41.2808 181.873 43.4196 184.068 44.7001C184.241 44.8011 184.299 45.0233 184.198 45.1964C184.097 45.3695 183.875 45.4279 183.702 45.3269C181.158 43.8426 180.749 41.3479 180.949 39.3078C181.049 38.2864 181.302 37.3591 181.528 36.6895C181.641 36.3539 181.749 36.0811 181.828 35.8912C181.868 35.7962 181.901 35.7218 181.924 35.6706C181.935 35.6449 181.945 35.6251 181.951 35.6113L181.959 35.5953L181.961 35.5908L181.961 35.5894C181.961 35.5892 181.962 35.5886 182.288 35.7465L181.962 35.5886C182.049 35.4082 182.266 35.3326 182.446 35.4198C182.627 35.5069 182.702 35.724 182.615 35.9044Z" fill="#3D8FEC"/>
<path fill-rule="evenodd" clip-rule="evenodd" d="M182.903 37.7388C183.021 37.5769 183.248 37.5413 183.409 37.6594L187.132 40.3734C187.294 40.4915 187.33 40.7185 187.212 40.8804C187.094 41.0423 186.867 41.0779 186.705 40.9598L182.982 38.2458C182.82 38.1277 182.784 37.9007 182.903 37.7388Z" fill="#3D8FEC"/>
<path fill-rule="evenodd" clip-rule="evenodd" d="M186.306 36.447C186.476 36.5535 186.527 36.7774 186.42 36.9472L183.51 41.5843C183.404 41.7541 183.18 41.8053 183.01 41.6988C182.84 41.5923 182.789 41.3683 182.896 41.1986L185.806 36.5614C185.912 36.3917 186.136 36.3404 186.306 36.447Z" fill="#3D8FEC"/>
<path fill-rule="evenodd" clip-rule="evenodd" d="M228.673 31.0374C228.044 34.8739 230.643 38.4943 234.48 39.1238C238.316 39.7532 241.937 37.1534 242.566 33.3168C243.196 29.4802 240.596 25.8598 236.759 25.2304C232.923 24.6009 229.302 27.2008 228.673 31.0374ZM234.37 39.7911C230.165 39.1012 227.316 35.133 228.006 30.9279C228.696 26.7228 232.664 23.8732 236.869 24.5631C241.074 25.253 243.924 29.2212 243.234 33.4263C242.544 37.6314 238.576 40.481 234.37 39.7911Z" fill="#3D8FEC"/>
<path fill-rule="evenodd" clip-rule="evenodd" d="M244.07 27.3733C239.826 28.2441 237.091 32.3904 237.962 36.6343C238.833 40.8783 242.979 43.6127 247.223 42.742C251.467 41.8712 254.202 37.7248 253.331 33.4809C252.46 29.237 248.314 26.5025 244.07 27.3733ZM237.3 36.7703C236.354 32.1605 239.324 27.6567 243.934 26.7109C248.544 25.765 253.047 28.7352 253.993 33.345C254.939 37.9548 251.969 42.4585 247.359 43.4044C242.749 44.3503 238.246 41.3801 237.3 36.7703Z" fill="#3D8FEC"/>
<path fill-rule="evenodd" clip-rule="evenodd" d="M242.661 29.021C242.724 29.1969 242.632 29.3903 242.457 29.453L239.062 30.6635C238.886 30.7262 238.693 30.6344 238.63 30.4585C238.567 30.2827 238.659 30.0892 238.835 30.0265L242.229 28.816C242.405 28.7533 242.599 28.8451 242.661 29.021Z" fill="#3D8FEC"/>
<path fill-rule="evenodd" clip-rule="evenodd" d="M243.134 30.4194C243.198 30.595 243.107 30.7888 242.931 30.8523L238.049 32.6173C237.873 32.6808 237.679 32.5899 237.616 32.4143C237.552 32.2386 237.643 32.0448 237.819 31.9813L242.701 30.2164C242.877 30.1529 243.071 30.2438 243.134 30.4194Z" fill="#3D8FEC"/>
<path fill-rule="evenodd" clip-rule="evenodd" d="M243.315 32.1029C243.382 32.2772 243.295 32.4728 243.12 32.5398L237.67 34.6362C237.496 34.7032 237.3 34.6163 237.233 34.442C237.166 34.2677 237.253 34.072 237.427 34.005L242.878 31.9087C243.052 31.8416 243.248 31.9286 243.315 32.1029Z" fill="#3D8FEC"/>
<path fill-rule="evenodd" clip-rule="evenodd" d="M242.921 34.3905C242.999 34.5603 242.924 34.7609 242.754 34.8386L237.784 37.1107C237.614 37.1883 237.413 37.1136 237.336 36.9438C237.258 36.7739 237.333 36.5733 237.503 36.4957L242.473 34.2235C242.643 34.1459 242.843 34.2206 242.921 34.3905Z" fill="#3D8FEC"/>
<path fill-rule="evenodd" clip-rule="evenodd" d="M242.047 36.1724C242.118 36.3448 242.037 36.5427 241.864 36.6144L238.091 38.1833C237.918 38.255 237.72 38.1733 237.649 38.0009C237.577 37.8285 237.659 37.6306 237.831 37.5589L241.605 35.99C241.777 35.9183 241.975 36 242.047 36.1724Z" fill="#3D8FEC"/>
<path fill-rule="evenodd" clip-rule="evenodd" d="M238.58 22.3111C238.353 22.4372 238.12 22.547 237.892 22.6287C237.507 22.7667 237.063 22.8525 236.699 22.7083C236.503 22.6304 236.341 22.4891 236.24 22.2834C236.143 22.086 236.112 21.851 236.129 21.5929C236.163 21.0661 236.372 20.6706 236.697 20.4083C237.012 20.1534 237.405 20.0496 237.773 20.0335C238.141 20.0174 238.513 20.0876 238.814 20.2112C238.964 20.2732 239.107 20.3523 239.225 20.4486C239.321 20.5274 239.415 20.6288 239.474 20.7542C239.59 20.6166 239.795 20.5938 239.939 20.7041C240.085 20.8166 240.114 21.026 240.004 21.1742C240.004 21.1742 240.004 21.1742 240.004 21.1742L240.004 21.1743L240.003 21.1749L240.001 21.1782L239.991 21.1921C239.982 21.2046 239.968 21.2234 239.951 21.2476C239.916 21.296 239.867 21.3661 239.81 21.4514C239.695 21.623 239.55 21.8523 239.423 22.0895C239.293 22.3321 239.196 22.5599 239.159 22.7337C239.141 22.8198 239.143 22.8634 239.146 22.8823C239.289 22.9854 239.33 23.1835 239.235 23.3355C239.136 23.4939 238.928 23.5423 238.769 23.4435C238.428 23.2304 238.447 22.8367 238.498 22.5945C238.517 22.5023 238.545 22.407 238.58 22.3111ZM238.996 21.2191C238.905 21.2931 238.805 21.3675 238.7 21.4405C238.367 21.6709 237.998 21.8722 237.663 21.9922C237.31 22.1187 237.07 22.1281 236.948 22.0797C236.902 22.0614 236.871 22.0345 236.847 21.9854C236.819 21.928 236.792 21.8215 236.804 21.6367C236.827 21.2775 236.96 21.0653 237.122 20.9343C237.293 20.796 237.532 20.7209 237.802 20.7091C238.072 20.6973 238.346 20.7501 238.557 20.8368C238.662 20.88 238.742 20.9278 238.797 20.9723C238.852 21.017 238.864 21.0448 238.865 21.0464C238.865 21.0465 238.865 21.0465 238.865 21.0465C238.889 21.1198 238.937 21.1791 238.996 21.2191ZM239.15 22.8945C239.15 22.8948 239.149 22.8928 239.147 22.8875C239.15 22.8915 239.151 22.8941 239.15 22.8945Z" fill="#3D8FEC"/>
<path fill-rule="evenodd" clip-rule="evenodd" d="M252.579 22.8384C252.747 22.9193 252.818 23.1213 252.737 23.2896L251.745 25.3539C251.99 25.233 252.268 25.1661 252.564 25.2173L252.566 25.2176C253.022 25.2992 253.335 25.5631 253.463 25.9272C253.584 26.2722 253.521 26.6548 253.351 26.9685C253.179 27.2861 252.883 27.5629 252.49 27.6926C252.092 27.8242 251.625 27.7949 251.133 27.5507C250.965 27.4678 250.897 27.2649 250.98 27.0976C251.063 26.9303 251.266 26.862 251.433 26.9449C251.786 27.1201 252.069 27.1195 252.278 27.0505C252.492 26.9797 252.659 26.8266 252.756 26.6464C252.856 26.4622 252.87 26.2789 252.825 26.1511C252.787 26.0426 252.691 25.9272 252.448 25.8835C252.285 25.8556 252.096 25.9083 251.876 26.0598C251.657 26.211 251.443 26.4382 251.249 26.6881C251.058 26.9355 250.898 27.191 250.786 27.3863C250.73 27.4835 250.686 27.5646 250.657 27.621C250.642 27.6491 250.631 27.671 250.624 27.6855L250.616 27.7015L250.614 27.7051L250.614 27.7057C250.533 27.8739 250.331 27.9445 250.162 27.8636C249.994 27.7826 249.923 27.5806 250.004 27.4124L250.005 27.4113L252.128 22.9966C252.209 22.8283 252.411 22.7574 252.579 22.8384Z" fill="#3D8FEC"/>
<path fill-rule="evenodd" clip-rule="evenodd" d="M470.822 118.742C470.986 118.569 471.259 118.561 471.433 118.725L475.693 122.752C475.867 122.916 475.875 123.19 475.711 123.363C475.547 123.536 475.273 123.544 475.1 123.38L470.839 119.353C470.666 119.189 470.658 118.915 470.822 118.742Z" fill="#3D8FEC"/>
<path fill-rule="evenodd" clip-rule="evenodd" d="M475.637 117.625C475.835 117.758 475.888 118.027 475.756 118.225L472.186 123.557C472.054 123.756 471.785 123.809 471.587 123.676C471.389 123.543 471.335 123.275 471.468 123.077L475.038 117.744C475.17 117.546 475.439 117.493 475.637 117.625Z" fill="#3D8FEC"/>
<path fill-rule="evenodd" clip-rule="evenodd" d="M484.263 117.772C484.346 117.996 484.232 118.245 484.008 118.328L479.739 119.918C479.515 120.002 479.267 119.888 479.183 119.664C479.1 119.441 479.214 119.192 479.437 119.109L483.707 117.518C483.93 117.435 484.179 117.549 484.263 117.772Z" fill="#3D8FEC"/>
<path fill-rule="evenodd" clip-rule="evenodd" d="M485.582 113.196C485.74 113.017 486.013 113 486.192 113.158L488.785 115.448C488.963 115.606 488.98 115.879 488.822 116.058C488.664 116.237 488.391 116.254 488.212 116.096L485.62 113.805C485.441 113.647 485.424 113.374 485.582 113.196Z" fill="#3D8FEC"/>
<path fill-rule="evenodd" clip-rule="evenodd" d="M490.607 110.309C490.836 110.376 490.968 110.616 490.901 110.845L487.617 122.115C487.55 122.344 487.31 122.476 487.081 122.409C486.852 122.342 486.721 122.102 486.787 121.873L490.071 110.603C490.138 110.374 490.378 110.243 490.607 110.309Z" fill="#3D8FEC"/>
<path fill-rule="evenodd" clip-rule="evenodd" d="M414.38 94.6554C414.422 94.6265 414.473 94.6127 414.524 94.6162L422.452 95.1713C422.566 95.1792 422.656 95.2711 422.662 95.3852L423.158 105.439C423.162 105.516 423.126 105.589 423.064 105.634L417.243 109.794C417.2 109.825 417.148 109.84 417.095 109.836L409.911 109.312C409.805 109.305 409.719 109.224 409.704 109.118L408.296 98.9923C408.285 98.9077 408.322 98.8237 408.392 98.7753L414.38 94.6554ZM414.571 95.0719L408.763 99.0681L410.126 108.875L417.047 109.38L422.701 105.338L422.221 95.6074L414.571 95.0719Z" fill="#3D8FEC"/>
<path fill-rule="evenodd" clip-rule="evenodd" d="M415.595 104.73C415.638 104.699 415.69 104.684 415.743 104.688L422.95 105.225C423.074 105.235 423.167 105.343 423.158 105.467C423.149 105.591 423.04 105.685 422.916 105.675L415.791 105.144L410.06 109.27C409.958 109.343 409.817 109.32 409.745 109.219C409.672 109.118 409.695 108.977 409.796 108.904L415.595 104.73Z" fill="#3D8FEC"/>
<path fill-rule="evenodd" clip-rule="evenodd" d="M414.481 94.6173C414.605 94.6023 414.717 94.6905 414.732 94.8142L415.95 104.886C415.965 105.01 415.877 105.122 415.753 105.137C415.63 105.152 415.517 105.064 415.502 104.94L414.284 94.8684C414.269 94.7447 414.357 94.6322 414.481 94.6173Z" fill="#3D8FEC"/>
<path fill-rule="evenodd" clip-rule="evenodd" d="M422.617 95.2613C422.692 95.3612 422.671 95.5026 422.571 95.5771L416.565 100.058C416.519 100.092 416.461 100.108 416.404 100.101L408.494 99.1852C408.37 99.1709 408.281 99.0589 408.296 98.9351C408.31 98.8114 408.422 98.7226 408.546 98.737L416.367 99.6427L422.301 95.2154C422.401 95.1409 422.543 95.1614 422.617 95.2613Z" fill="#3D8FEC"/>
<path fill-rule="evenodd" clip-rule="evenodd" d="M416.415 99.652C416.539 99.6433 416.647 99.737 416.655 99.8613L417.337 109.595C417.345 109.719 417.252 109.827 417.127 109.836C417.003 109.844 416.895 109.751 416.887 109.626L416.205 99.8928C416.197 99.7685 416.29 99.6607 416.415 99.652Z" fill="#3D8FEC"/>
<path fill-rule="evenodd" clip-rule="evenodd" d="M228.744 124.571C228.843 124.371 229.085 124.288 229.286 124.386L236.692 128.025C236.893 128.123 236.976 128.366 236.877 128.567C236.778 128.768 236.536 128.851 236.335 128.752L228.929 125.114C228.728 125.015 228.645 124.772 228.744 124.571Z" fill="#3D8FEC"/>
<path fill-rule="evenodd" clip-rule="evenodd" d="M234.23 121.58C234.446 121.639 234.573 121.862 234.514 122.078L232.391 129.816C232.332 130.032 232.109 130.159 231.893 130.1C231.677 130.04 231.55 129.818 231.609 129.602L233.732 121.864C233.792 121.648 234.014 121.521 234.23 121.58Z" fill="#3D8FEC"/>
<path fill-rule="evenodd" clip-rule="evenodd" d="M235.152 118.195L234.881 117.894C234.715 118.043 234.701 118.3 234.851 118.466C235 118.632 235.255 118.646 235.421 118.498L235.425 118.495C235.429 118.491 235.437 118.485 235.448 118.476C235.469 118.46 235.503 118.435 235.545 118.408C235.632 118.352 235.745 118.294 235.866 118.264C235.984 118.234 236.097 118.234 236.202 118.273C236.306 118.312 236.445 118.406 236.592 118.638C236.711 118.826 236.759 119.096 236.731 119.446C236.702 119.791 236.602 120.169 236.473 120.53C236.345 120.889 236.194 121.215 236.075 121.453C236.015 121.572 235.964 121.667 235.928 121.733C235.91 121.765 235.896 121.79 235.886 121.807L235.876 121.825L235.874 121.829L235.873 121.829L235.873 121.829C235.873 121.829 235.873 121.829 235.873 121.829C235.785 121.978 235.801 122.165 235.912 122.297C236.023 122.429 236.205 122.476 236.366 122.414L239.34 121.28C239.549 121.2 239.654 120.966 239.574 120.757C239.494 120.548 239.26 120.443 239.051 120.523L237.045 121.288C237.11 121.137 237.175 120.974 237.236 120.803C237.378 120.406 237.502 119.954 237.538 119.512C237.574 119.074 237.528 118.602 237.277 118.206C237.056 117.855 236.788 117.628 236.488 117.515C236.19 117.403 235.903 117.419 235.668 117.478C235.435 117.537 235.241 117.641 235.109 117.725C235.042 117.768 234.988 117.808 234.949 117.838C234.93 117.853 234.915 117.865 234.903 117.875L234.889 117.887L234.884 117.891L234.883 117.893L234.882 117.893L234.882 117.894C234.881 117.894 234.881 117.894 235.152 118.195Z" fill="#3D8FEC"/>
<path fill-rule="evenodd" clip-rule="evenodd" d="M186.584 174.818C180.702 177.171 177.84 183.846 180.193 189.729C182.545 195.611 189.221 198.473 195.103 196.121C200.985 193.768 203.847 187.093 201.495 181.21C199.142 175.328 192.467 172.466 186.584 174.818ZM179.671 189.937C177.204 183.767 180.206 176.765 186.376 174.297C192.546 171.83 199.548 174.832 202.016 181.002C204.483 187.172 201.482 194.174 195.311 196.642C189.141 199.109 182.139 196.107 179.671 189.937Z" fill="#3D8FEC"/>
<path fill-rule="evenodd" clip-rule="evenodd" d="M199.474 168.861C197.946 170.014 196.066 171.88 194.023 174.277C193.923 174.395 193.746 174.41 193.628 174.309C193.51 174.209 193.496 174.032 193.596 173.914C195.651 171.502 197.561 169.601 199.136 168.413C199.921 167.82 200.637 167.393 201.255 167.174C201.866 166.957 202.443 166.923 202.888 167.217L202.888 167.217C203.225 167.44 203.419 167.809 203.51 168.252C203.601 168.693 203.596 169.234 203.514 169.852C203.35 171.089 202.868 172.695 202.124 174.555C200.633 178.278 198.067 183.073 194.779 188.062L194.779 188.062C191.492 193.048 188.097 197.297 185.262 200.134C183.846 201.552 182.56 202.628 181.487 203.266C180.952 203.584 180.455 203.802 180.014 203.892C179.571 203.983 179.155 203.95 178.817 203.726L178.816 203.726C178.372 203.432 178.177 202.888 178.136 202.241C178.094 201.586 178.204 200.76 178.44 199.804C178.912 197.888 179.905 195.384 181.313 192.547C181.381 192.408 181.55 192.352 181.689 192.42C181.827 192.489 181.884 192.658 181.815 192.797C180.416 195.617 179.443 198.079 178.985 199.938C178.755 200.869 178.659 201.632 178.696 202.205C178.733 202.786 178.9 203.108 179.126 203.258C179.298 203.372 179.546 203.415 179.902 203.342C180.258 203.27 180.693 203.085 181.2 202.783C182.214 202.18 183.463 201.141 184.865 199.738C187.666 196.934 191.037 192.717 194.311 187.753C197.584 182.786 200.13 178.025 201.603 174.346C202.34 172.505 202.802 170.948 202.958 169.778C203.035 169.193 203.034 168.721 202.96 168.365C202.887 168.01 202.75 167.798 202.578 167.685C202.352 167.535 201.991 167.509 201.443 167.703C200.902 167.895 200.239 168.283 199.474 168.861Z" fill="#3D8FEC"/>
<path fill-rule="evenodd" clip-rule="evenodd" d="M170.954 182.19C170.663 182.406 170.529 182.62 170.499 182.824L170.499 182.825C170.46 183.082 170.577 183.406 170.952 183.801C171.323 184.192 171.908 184.611 172.695 185.043C174.268 185.906 176.585 186.79 179.43 187.609C179.579 187.652 179.665 187.808 179.622 187.957C179.579 188.106 179.424 188.191 179.275 188.149C176.412 187.324 174.05 186.426 172.425 185.535C171.615 185.09 170.973 184.639 170.545 184.188C170.121 183.741 169.868 183.25 169.944 182.742C170.004 182.341 170.256 182.009 170.619 181.74C170.981 181.471 171.474 181.246 172.068 181.059C173.259 180.685 174.919 180.443 176.919 180.332C180.924 180.111 186.354 180.413 192.262 181.288C198.171 182.162 203.456 183.446 207.225 184.818C209.108 185.503 210.627 186.215 211.658 186.918C212.172 187.269 212.579 187.626 212.847 187.989C213.116 188.352 213.262 188.743 213.202 189.143C213.121 189.697 212.673 190.118 212.056 190.436C211.43 190.758 210.563 191.01 209.51 191.197C207.401 191.572 204.474 191.701 201.05 191.572C200.895 191.566 200.774 191.435 200.78 191.281C200.786 191.126 200.916 191.005 201.071 191.011C204.477 191.139 207.359 191.01 209.412 190.644C210.441 190.461 211.244 190.222 211.799 189.937C212.362 189.647 212.605 189.344 212.647 189.061L212.647 189.061C212.677 188.857 212.612 188.614 212.396 188.323C212.18 188.031 211.829 187.714 211.341 187.382C210.367 186.717 208.898 186.024 207.033 185.345C203.309 183.989 198.063 182.714 192.18 181.843C186.298 180.972 180.907 180.674 176.95 180.893C174.969 181.002 173.362 181.241 172.237 181.595C171.673 181.772 171.246 181.973 170.954 182.19Z" fill="#3D8FEC"/>
<path fill-rule="evenodd" clip-rule="evenodd" d="M176.735 164.798C176.371 164.686 176.143 164.716 176.003 164.807C175.896 164.876 175.8 165.005 175.739 165.233C175.678 165.463 175.657 165.773 175.688 166.167C175.748 166.956 176.006 168.021 176.451 169.316C177.338 171.902 178.945 175.347 181.097 179.229C181.172 179.365 181.123 179.535 180.987 179.61C180.852 179.686 180.681 179.637 180.606 179.501C178.447 175.605 176.822 172.127 175.92 169.498C175.47 168.185 175.194 167.069 175.128 166.211C175.095 165.782 175.113 165.402 175.197 165.088C175.282 164.771 175.44 164.503 175.698 164.336L175.698 164.336C176.038 164.116 176.462 164.127 176.9 164.261C177.34 164.397 177.843 164.671 178.393 165.056C179.496 165.828 180.845 167.084 182.35 168.716C185.362 171.984 189.033 176.801 192.653 182.395C196.276 187.988 199.171 193.31 200.921 197.395C201.795 199.436 202.389 201.18 202.641 202.502C202.768 203.161 202.812 203.732 202.755 204.189C202.699 204.643 202.535 205.034 202.195 205.254L202.195 205.254C201.748 205.543 201.157 205.437 200.548 205.154C199.922 204.864 199.182 204.344 198.358 203.639C196.708 202.225 194.668 200.02 192.446 197.253C192.349 197.132 192.368 196.955 192.489 196.858C192.61 196.761 192.787 196.78 192.884 196.901C195.096 199.656 197.11 201.831 198.723 203.213C199.531 203.905 200.226 204.386 200.784 204.645C201.36 204.912 201.703 204.904 201.89 204.783C202.03 204.692 202.152 204.498 202.198 204.12C202.245 203.746 202.211 203.24 202.09 202.607C201.849 201.344 201.273 199.642 200.405 197.616C198.671 193.568 195.793 188.275 192.182 182.7L192.182 182.7C188.574 177.125 184.922 172.334 181.937 169.096C180.443 167.475 179.126 166.254 178.072 165.516C177.543 165.146 177.095 164.909 176.735 164.798Z" fill="#3D8FEC"/>
<path d="M204.389 172.535C203.799 173.428 202.604 173.675 201.712 173.085C200.819 172.496 200.572 171.301 201.162 170.408C201.751 169.516 202.946 169.269 203.839 169.858C204.731 170.448 204.972 171.643 204.389 172.535Z" fill="#3D8FEC"/>
<path d="M197.996 202.105C197.407 202.998 196.212 203.245 195.319 202.655C194.427 202.066 194.18 200.871 194.769 199.978C195.359 199.086 196.554 198.839 197.446 199.428C198.333 200.018 198.58 201.213 197.996 202.105Z" fill="#3D8FEC"/>
<path d="M187.681 182.054C187.092 182.946 185.896 183.193 185.004 182.604C184.112 182.014 183.865 180.819 184.454 179.927C185.043 179.034 186.239 178.787 187.131 179.377C188.023 179.966 188.27 181.161 187.681 182.054Z" fill="#3D8FEC"/>
<path fill-rule="evenodd" clip-rule="evenodd" d="M24.6177 52.3122C24.6223 52.173 24.6935 52.0616 24.8044 52.0198L32.1189 49.2655C32.2298 49.2237 32.3635 49.2579 32.4697 49.3552L39.4854 55.774C39.5918 55.8714 39.6546 56.0173 39.6499 56.1567L39.3419 65.3422C39.3372 65.4813 39.266 65.5927 39.1552 65.6344L31.8407 68.3888C31.7297 68.4306 31.5958 68.3963 31.4895 68.2988L24.4768 61.8699C24.3706 61.7725 24.308 61.6268 24.3126 61.4877L24.6177 52.3122ZM25.3123 52.7169L25.0222 61.4428L31.6913 67.5567L38.6474 64.9374L38.9403 56.2017L32.2685 50.0975L25.3123 52.7169Z" fill="#3D8FEC"/>
<path fill-rule="evenodd" clip-rule="evenodd" d="M20.1905 80.2406C20.0978 80.019 20.1649 79.7846 20.3405 79.7168L27.8308 76.8264C27.9444 76.7826 28.0813 76.8185 28.1901 76.9207L35.3606 83.6574C35.5288 83.8153 35.5794 84.0807 35.4737 84.2502C35.368 84.4196 35.1461 84.4289 34.9779 84.271L27.9831 77.6994L20.6764 80.5189C20.5008 80.5867 20.2833 80.4621 20.1905 80.2406Z" fill="#3D8FEC"/>
<path fill-rule="evenodd" clip-rule="evenodd" d="M9.39326 51.8991C9.39784 51.7599 9.46902 51.6484 9.57997 51.6066L16.8943 48.8524C17.0052 48.8106 17.1391 48.8449 17.2454 48.9424L24.2579 55.3709C24.3642 55.4683 24.4268 55.614 24.4221 55.7531L24.117 64.9282C24.1124 65.0674 24.0412 65.1788 23.9303 65.2206L16.616 67.9748C16.5051 68.0165 16.3713 67.9823 16.265 67.8849L9.2558 61.464C9.14952 61.3666 9.08688 61.221 9.09145 61.0819L9.39326 51.8991ZM10.0879 52.3036L9.80089 61.0365L16.4666 67.1428L23.4225 64.5235L23.7126 55.7981L17.0436 49.6845L10.0879 52.3036Z" fill="#3D8FEC"/>
<path fill-rule="evenodd" clip-rule="evenodd" d="M19.1346 39.2651C19.1392 39.126 19.2104 39.0145 19.3213 38.9728L26.6358 36.2184C26.7466 36.1767 26.8803 36.2109 26.9866 36.3081L34.0022 42.727C34.1087 42.8244 34.1714 42.9703 34.1668 43.1096L33.8587 52.2951C33.8541 52.4342 33.7829 52.5456 33.672 52.5874L26.3575 55.3417C26.2465 55.3835 26.1127 55.3492 26.0064 55.2517L18.9937 48.8229C18.8874 48.7255 18.8249 48.5798 18.8295 48.4407L19.1346 39.2651ZM19.8292 39.6698L19.539 48.3957L26.2082 54.5096L33.1642 51.8903L33.4572 43.1547L26.7854 37.0504L19.8292 39.6698Z" fill="#3D8FEC"/>
<path d="M25.5304 55.5583C26.0678 55.3574 26.2734 54.6628 25.9896 54.0069C25.7058 53.3509 25.0402 52.982 24.5028 53.1829C23.9654 53.3837 23.7598 54.0783 24.0435 54.7343C24.3273 55.3902 24.993 55.7592 25.5304 55.5583Z" fill="#3D8FEC"/>
<path d="M2.5267 50.3135C3.0641 50.1126 3.26969 49.418 2.98593 48.762C2.70216 48.1061 2.03648 47.7372 1.49908 47.938C0.961686 48.1389 0.756069 48.8335 1.03984 49.4895C1.3236 50.1454 1.9893 50.5143 2.5267 50.3135Z" fill="#3D8FEC"/>
<path d="M34.4314 82.6302C34.1485 81.9762 34.3548 81.279 34.8906 81.0787C35.4264 80.8785 36.0946 81.2488 36.3775 81.9028C36.6604 82.5567 36.454 83.2539 35.9182 83.4542C35.3824 83.6544 34.7143 83.2842 34.4314 82.6302Z" fill="#3D8FEC"/>
<path d="M20.7878 83.0015C21.3252 82.8006 21.5308 82.106 21.2471 81.4501C20.9633 80.7941 20.2976 80.4252 19.7602 80.6261C19.2228 80.8269 19.0172 81.5215 19.301 82.1775C19.5847 82.8335 20.2504 83.2024 20.7878 83.0015Z" fill="#3D8FEC"/>
<path d="M42.956 37.8103C42.6731 37.1563 42.8795 36.4591 43.4152 36.2588C43.951 36.0586 44.6192 36.4288 44.9021 37.0828C45.185 37.7368 44.9786 38.434 44.4429 38.6343C43.9103 38.842 43.2422 38.4718 42.956 37.8103Z" fill="#3D8FEC"/>
<path d="M28.9636 78.9977C29.501 78.7968 29.7066 78.1022 29.4228 77.4462C29.1391 76.7903 28.4734 76.4214 27.936 76.6222C27.3986 76.8231 27.193 77.5177 27.4768 78.1736C27.7605 78.8296 28.4262 79.1985 28.9636 78.9977Z" fill="#3D8FEC"/>
<path d="M33.8545 42.2677C33.5716 41.6137 33.7779 40.9166 34.3137 40.7163C34.8495 40.516 35.5177 40.8863 35.8006 41.5403C36.0835 42.1943 35.8771 42.8915 35.3414 43.0917C34.8088 43.2995 34.1407 42.9292 33.8545 42.2677Z" fill="#3D8FEC"/>
<path d="M29.5266 67.7814C29.2437 67.1274 29.4501 66.4302 29.9859 66.2299C30.5217 66.0297 31.1898 66.3999 31.4727 67.0539C31.7557 67.7079 31.5493 68.4051 31.0135 68.6054C30.4777 68.8056 29.8096 68.4354 29.5266 67.7814Z" fill="#3D8FEC"/>
<path fill-rule="evenodd" clip-rule="evenodd" d="M34.5643 41.8784C34.4731 41.5955 34.5534 41.2955 34.7438 41.2084L43.6871 37.1149C43.8775 37.0277 44.1059 37.1864 44.1972 37.4693C44.2884 37.7523 44.2081 38.0523 44.0177 38.1394L35.0744 42.2329C34.884 42.32 34.6556 42.1614 34.5643 41.8784Z" fill="#3D8FEC"/>
<path fill-rule="evenodd" clip-rule="evenodd" d="M29.8623 67.0358C30.0488 67.0892 30.1886 67.2953 30.1747 67.496L29.45 77.9272C29.436 78.1279 29.2736 78.2473 29.0871 78.1939C28.9007 78.1404 28.7608 77.9344 28.7748 77.7336L29.4995 67.3024C29.5134 67.1017 29.6759 66.9823 29.8623 67.0358Z" fill="#3D8FEC"/>
<path fill-rule="evenodd" clip-rule="evenodd" d="M1.81805 48.0045C1.91328 47.8484 2.12088 47.8328 2.28174 47.9698L9.95882 54.5052C10.1197 54.6422 10.1729 54.8797 10.0777 55.0358C9.98243 55.1919 9.77483 55.2074 9.61397 55.0705L1.93688 48.535C1.77602 48.3981 1.72282 48.1605 1.81805 48.0045Z" fill="#3D8FEC"/>
<path fill-rule="evenodd" clip-rule="evenodd" d="M102.919 1.05383C95.8232 1.05383 90.0765 6.80103 90.0765 13.8872C90.0765 15.5082 90.3752 17.0551 90.9268 18.4838L90.9279 18.4866C91.7054 20.5389 93.008 22.3396 94.6645 23.7245L94.6656 23.7254C96.6024 25.3546 99.0271 26.4221 101.696 26.6756C102.094 26.7117 102.502 26.7299 102.919 26.7299C106.313 26.7299 109.407 25.4091 111.706 23.2369L111.708 23.2351C114.196 20.9099 115.753 17.5804 115.753 13.8872C115.753 11.0902 114.857 8.50259 113.336 6.39394L113.336 6.393C112.096 4.66501 110.431 3.2623 108.495 2.33016L108.493 2.32928C106.802 1.50642 104.911 1.05383 102.919 1.05383ZM89.1384 13.8872C89.1384 6.2825 95.3056 0.115723 102.919 0.115723C105.054 0.115723 107.085 0.601083 108.902 1.4853C110.98 2.48561 112.767 3.99076 114.098 5.84594C115.729 8.10876 116.691 10.8869 116.691 13.8872C116.691 17.8484 115.02 21.4231 112.349 23.9197C109.883 26.2499 106.561 27.668 102.919 27.668C102.474 27.668 102.038 27.6486 101.61 27.6098L101.608 27.6096C98.7433 27.3376 96.1402 26.1914 94.0622 24.4438C92.2858 22.9585 90.8871 21.0261 90.0511 18.8203C89.4586 17.285 89.1384 15.624 89.1384 13.8872Z" fill="#3D8FEC"/>
<path fill-rule="evenodd" clip-rule="evenodd" d="M112.028 14.7027C111.155 14.7027 110.452 15.4092 110.452 16.2881C110.452 17.1641 111.161 17.8735 112.038 17.8735C112.914 17.8735 113.623 17.1641 113.623 16.2881C113.623 15.4148 112.907 14.7027 112.028 14.7027ZM109.514 16.2881C109.514 14.8967 110.631 13.7646 112.028 13.7646C113.42 13.7646 114.561 14.8911 114.561 16.2881C114.561 17.6823 113.432 18.8116 112.038 18.8116C110.643 18.8116 109.514 17.6822 109.514 16.2881Z" fill="#3D8FEC"/>
<path fill-rule="evenodd" clip-rule="evenodd" d="M91.0808 18.8704C91.8163 20.633 92.9434 22.1962 94.3483 23.4508C94.8118 22.9426 95.0953 22.2668 95.0953 21.5228C95.0953 19.9346 93.8051 18.6428 92.2059 18.6428C91.8031 18.6428 91.422 18.7228 91.0808 18.8704ZM90.2412 18.254C90.8155 17.8964 91.493 17.7047 92.2059 17.7047C94.3215 17.7047 96.0334 19.4148 96.0334 21.5228C96.0334 22.7003 95.4975 23.7494 94.6638 24.4441C94.4896 24.5893 94.2366 24.5891 94.0627 24.4437C92.2857 22.958 90.8865 21.025 90.0505 18.8183C89.9711 18.6088 90.051 18.3724 90.2412 18.254Z" fill="#3D8FEC"/>
<path fill-rule="evenodd" clip-rule="evenodd" d="M107.075 20.9694C104.277 20.9694 102.009 23.2443 102.009 26.0445C102.009 26.2682 102.024 26.4874 102.053 26.7025C102.336 26.7204 102.625 26.7294 102.919 26.7294C106.185 26.7294 109.173 25.5063 111.442 23.4785C110.567 21.9793 108.941 20.9694 107.075 20.9694ZM101.071 26.0445C101.071 22.7283 103.757 20.0313 107.075 20.0313C109.437 20.0313 111.472 21.396 112.449 23.3693C112.54 23.554 112.5 23.7767 112.35 23.9182C109.884 26.249 106.561 27.6675 102.919 27.6675C102.474 27.6675 102.038 27.6481 101.61 27.6093C101.405 27.5906 101.236 27.4403 101.194 27.2388C101.112 26.8496 101.071 26.4513 101.071 26.0445Z" fill="#3D8FEC"/>
<path fill-rule="evenodd" clip-rule="evenodd" d="M99.692 2.95753C98.262 2.95753 97.1028 4.11675 97.1028 5.54671C97.1028 6.97668 98.262 8.13589 99.692 8.13589C101.122 8.13589 102.281 6.97668 102.281 5.54671C102.281 4.11675 101.122 2.95753 99.692 2.95753ZM96.1647 5.54671C96.1647 3.59864 97.7439 2.01942 99.692 2.01942C101.64 2.01942 103.219 3.59864 103.219 5.54671C103.219 7.49478 101.64 9.074 99.692 9.074C97.7439 9.074 96.1647 7.49478 96.1647 5.54671Z" fill="#3D8FEC"/>
<path fill-rule="evenodd" clip-rule="evenodd" d="M101.109 13.2866C100.589 13.2866 100.161 13.7145 100.161 14.2341C100.161 14.7537 100.589 15.1816 101.109 15.1816C101.628 15.1816 102.056 14.7537 102.056 14.2341C102.056 13.7145 101.628 13.2866 101.109 13.2866ZM99.2229 14.2341C99.2229 13.1964 100.071 12.3485 101.109 12.3485C102.146 12.3485 102.994 13.1964 102.994 14.2341C102.994 15.2718 102.146 16.1197 101.109 16.1197C100.071 16.1197 99.2229 15.2718 99.2229 14.2341Z" fill="#3D8FEC"/>
<path fill-rule="evenodd" clip-rule="evenodd" d="M108.472 1.49627C108.605 1.42326 108.765 1.41895 108.901 1.48469C110.98 2.48505 112.767 3.99047 114.098 5.84605C114.184 5.96661 114.209 6.12097 114.163 6.26229C114.118 6.40361 114.009 6.51521 113.869 6.56324C113.455 6.70475 113.008 6.76673 112.563 6.76673C110.145 6.76673 108.201 4.81038 108.201 2.39515C108.201 2.20838 108.211 2.0306 108.232 1.85253C108.25 1.70199 108.339 1.56928 108.472 1.49627ZM109.149 2.66881C109.288 4.44031 110.758 5.82863 112.563 5.82863C112.676 5.82863 112.786 5.8237 112.895 5.81381C111.865 4.53994 110.593 3.46939 109.149 2.66881Z" fill="#3D8FEC"/>
<path fill-rule="evenodd" clip-rule="evenodd" d="M463.548 169.001C463.668 169.034 463.738 169.159 463.705 169.279L462.155 174.867L465.527 178.556C465.611 178.648 465.605 178.791 465.513 178.875C465.421 178.959 465.278 178.953 465.194 178.861L461.737 175.079C461.685 175.022 461.666 174.941 461.686 174.867L463.27 169.158C463.304 169.038 463.428 168.968 463.548 169.001Z" fill="#3D8FEC"/>
<path fill-rule="evenodd" clip-rule="evenodd" d="M465.291 171.393C465.371 171.298 465.513 171.285 465.609 171.365L469.562 174.673C469.657 174.753 469.67 174.895 469.59 174.991C469.51 175.086 469.368 175.099 469.272 175.019L465.319 171.711C465.224 171.631 465.211 171.489 465.291 171.393Z" fill="#3D8FEC"/>
<path fill-rule="evenodd" clip-rule="evenodd" d="M468.27 170.517C468.386 170.564 468.441 170.695 468.394 170.811L466.684 175.012C466.637 175.127 466.505 175.183 466.39 175.136C466.274 175.089 466.219 174.957 466.266 174.842L467.976 170.641C468.023 170.525 468.155 170.47 468.27 170.517Z" fill="#3D8FEC"/>
<path fill-rule="evenodd" clip-rule="evenodd" d="M470.958 174.16C471.083 174.156 471.187 174.254 471.19 174.378L470.965 174.385C471.19 174.378 471.19 174.378 471.19 174.378L471.19 174.379L471.19 174.38L471.191 174.383L471.191 174.395C471.191 174.405 471.191 174.419 471.191 174.437C471.191 174.472 471.19 174.523 471.188 174.583C471.183 174.703 471.171 174.867 471.141 175.039C471.111 175.208 471.063 175.397 470.979 175.559C470.895 175.72 470.762 175.883 470.551 175.946C470.432 175.982 470.306 175.914 470.27 175.794C470.235 175.675 470.303 175.549 470.422 175.514C470.468 175.5 470.523 175.457 470.578 175.351C470.632 175.247 470.671 175.109 470.696 174.961C470.722 174.816 470.733 174.673 470.737 174.565C470.739 174.511 470.74 174.467 470.74 174.437C470.74 174.422 470.74 174.41 470.74 174.402L470.739 174.394L470.739 174.392C470.739 174.392 470.739 174.392 470.739 174.392M470.958 174.16C470.834 174.164 470.736 174.268 470.739 174.392Z" fill="#3D8FEC"/>
<path fill-rule="evenodd" clip-rule="evenodd" d="M471.285 170.09C471.359 169.99 471.5 169.969 471.6 170.044L473.987 171.817C474.087 171.891 474.108 172.033 474.034 172.133C473.96 172.233 473.818 172.254 473.718 172.179L471.331 170.406C471.231 170.332 471.21 170.19 471.285 170.09Z" fill="#3D8FEC"/>
<path fill-rule="evenodd" clip-rule="evenodd" d="M474.798 168.55C474.918 168.583 474.988 168.708 474.955 168.828L472.599 177.311C472.566 177.431 472.441 177.501 472.321 177.468C472.201 177.435 472.131 177.31 472.164 177.19L474.52 168.707C474.553 168.587 474.678 168.517 474.798 168.55Z" fill="#3D8FEC"/>
<path fill-rule="evenodd" clip-rule="evenodd" d="M474.705 165.651C474.799 165.569 474.941 165.578 475.024 165.671L478.85 170.003C478.904 170.064 478.921 170.149 478.895 170.226L477.261 174.964C477.22 175.082 477.092 175.145 476.974 175.104C476.856 175.063 476.794 174.935 476.834 174.817L478.425 170.203L474.686 165.97C474.603 165.877 474.612 165.734 474.705 165.651Z" fill="#3D8FEC"/>
<path fill-rule="evenodd" clip-rule="evenodd" d="M418.096 1.94667C418.226 1.91981 418.361 1.96427 418.45 2.0634L429.579 14.4859C429.649 14.5645 429.683 14.6692 429.672 14.7742C429.661 14.8792 429.606 14.9746 429.521 15.037L409.216 29.9276C409.085 30.024 408.906 30.0241 408.774 29.928C408.643 29.8318 408.588 29.6615 408.64 29.507L417.817 2.19382C417.859 2.06765 417.966 1.97353 418.096 1.94667ZM418.322 3.04074L409.725 28.6268L428.747 14.6778L418.322 3.04074Z" fill="#3D8FEC"/>
<path fill-rule="evenodd" clip-rule="evenodd" d="M427.01 11.6338C427.145 11.7899 427.128 12.0261 426.972 12.1612L424.751 14.0841L426.852 16.4861C426.988 16.6416 426.972 16.8778 426.816 17.0138C426.661 17.1498 426.425 17.134 426.289 16.9785L423.94 14.2936C423.875 14.2187 423.842 14.1208 423.849 14.0215C423.856 13.9222 423.902 13.8298 423.977 13.7647L426.483 11.5958C426.639 11.4606 426.875 11.4776 427.01 11.6338Z" fill="#3D8FEC"/>
<path fill-rule="evenodd" clip-rule="evenodd" d="M520.569 169.5C520.739 169.414 520.941 169.429 521.096 169.538L540.406 183.105C540.556 183.211 540.639 183.389 540.622 183.572C540.604 183.755 540.491 183.915 540.323 183.991L520.583 192.954C520.423 193.027 520.236 193.012 520.089 192.915C519.942 192.819 519.855 192.653 519.858 192.477L520.289 169.948C520.292 169.758 520.4 169.586 520.569 169.5ZM521.296 170.931L520.899 191.684L539.082 183.428L521.296 170.931Z" fill="#3D8FEC"/>
<path fill-rule="evenodd" clip-rule="evenodd" d="M520.564 169.504C520.815 169.372 521.125 169.469 521.256 169.72L530.66 187.655C530.791 187.906 530.695 188.216 530.444 188.347C530.193 188.479 529.883 188.382 529.752 188.131L520.348 170.196C520.216 169.945 520.313 169.635 520.564 169.504Z" fill="#3D8FEC"/>
<path fill-rule="evenodd" clip-rule="evenodd" d="M530.761 183.442C531.013 183.32 531.317 183.423 531.443 183.674L532.981 186.74C533.108 186.993 533.006 187.301 532.753 187.428C532.5 187.555 532.191 187.453 532.064 187.2L530.753 184.586L528.921 185.473C528.666 185.596 528.36 185.49 528.236 185.235C528.113 184.98 528.219 184.673 528.474 184.55L530.761 183.442Z" fill="#3D8FEC"/>
<path fill-rule="evenodd" clip-rule="evenodd" d="M496.496 37.8705C496.652 38.0421 496.64 38.3077 496.468 38.4638C491.733 42.7726 489.769 49.6527 492.029 56.0735C494.429 62.8793 500.85 67.1144 507.681 67.0489C507.913 67.0467 508.103 67.2329 508.105 67.4648C508.107 67.6968 507.921 67.8866 507.689 67.8888C500.509 67.9577 493.759 63.5073 491.237 56.3526L491.237 56.3524C488.86 49.6022 490.927 42.3705 495.903 37.8426C496.074 37.6864 496.34 37.6989 496.496 37.8705Z" fill="#3D8FEC"/>
<path fill-rule="evenodd" clip-rule="evenodd" d="M523.604 55.6558C523.824 55.7309 523.941 55.9697 523.866 56.1892C522.213 61.0179 518.442 65.0733 513.26 66.907C513.041 66.9843 512.801 66.8698 512.724 66.6511C512.646 66.4325 512.761 66.1925 512.98 66.1151C517.911 64.3704 521.498 60.5131 523.071 55.9172C523.146 55.6977 523.385 55.5807 523.604 55.6558Z" fill="#3D8FEC"/>
<path fill-rule="evenodd" clip-rule="evenodd" d="M523.022 45.1638C520.008 36.6045 510.63 32.108 502.071 35.1221C501.852 35.1992 501.612 35.0843 501.535 34.8655C501.458 34.6467 501.573 34.4069 501.792 34.3298C510.788 31.1616 520.646 35.8882 523.814 44.8847C523.891 45.1035 523.776 45.3434 523.558 45.4204C523.339 45.4974 523.099 45.3825 523.022 45.1638Z" fill="#3D8FEC"/>
<path fill-rule="evenodd" clip-rule="evenodd" d="M515.493 38.0612C515.623 37.8688 515.884 37.8181 516.076 37.9477C518.702 39.7182 520.81 42.3185 521.941 45.5403C524.748 53.5041 520.559 62.2272 512.604 65.0341L512.604 65.0343C506.635 67.1333 500.235 65.31 496.22 60.9059C496.063 60.7345 496.076 60.4688 496.247 60.3126C496.418 60.1563 496.684 60.1685 496.84 60.3399C500.637 64.5036 506.685 66.2251 512.325 64.242C519.843 61.5889 523.801 53.3446 521.149 45.8191L521.149 45.8187C520.079 42.7741 518.088 40.3177 515.607 38.6442C515.414 38.5145 515.363 38.2535 515.493 38.0612Z" fill="#3D8FEC"/>
<path fill-rule="evenodd" clip-rule="evenodd" d="M502.726 36.9868C505.551 35.9908 508.472 35.9258 511.165 36.6357ZM502.447 36.1947C505.435 35.1411 508.528 35.0718 511.379 35.8235C511.603 35.8826 511.737 36.1124 511.678 36.3366C511.619 36.5609 511.389 36.6948 511.165 36.6357M502.447 36.1947L502.446 36.1947ZM502.726 36.9869C495.208 39.6399 491.249 47.8843 493.902 55.4097C493.979 55.6285 493.864 55.8684 493.646 55.9455C493.427 56.0226 493.187 55.9077 493.11 55.689C490.303 47.7251 494.492 39.0017 502.446 36.1947" fill="#3D8FEC"/>
<path fill-rule="evenodd" clip-rule="evenodd" d="M501.626 41.0802C501.823 40.9582 502.082 41.0192 502.204 41.2165L507.883 50.3976C507.974 50.5462 507.965 50.7363 507.858 50.8747L502.684 57.5947C502.542 57.7784 502.279 57.8127 502.095 57.6712C501.911 57.5297 501.877 57.266 502.018 57.0822L507.015 50.5924L501.49 41.6583C501.368 41.461 501.429 41.2022 501.626 41.0802Z" fill="#3D8FEC"/>
</svg>
