<svg width="200" height="58" viewBox="0 0 200 58" fill="none" xmlns="http://www.w3.org/2000/svg">
<path d="M193.157 57.9423H6.83333C3.05556 57.9423 0 54.8775 0 51.1089V6.97005C0 3.19227 3.06482 0.136719 6.83333 0.136719H193.167C196.944 0.136719 200 3.20153 200 6.97005V51.1089C200 54.8867 196.935 57.9423 193.157 57.9423Z" fill="white"/>
<path d="M66.3322 16.2476L65.4896 19.0161H63.6562L66.7766 9.27539H69.0451L72.2118 19.0161H70.3044L69.4248 16.2569H66.3322V16.2476ZM69.1192 14.905L68.3507 12.5069C68.1655 11.9143 68.0081 11.2476 67.86 10.6828H67.8322C67.684 11.2476 67.5451 11.9235 67.3692 12.5069L66.6192 14.905H69.1192Z" fill="black"/>
<path d="M74.8698 11.9707L76.0087 15.5448C76.2124 16.1651 76.3513 16.73 76.4902 17.304H76.5365C76.6661 16.73 76.8235 16.1744 77.0179 15.5448L78.1476 11.9707H80.0087L77.3235 19.0077H75.5735L72.9531 11.9707H74.8698Z" fill="black"/>
<path d="M87.088 17.3223C87.088 17.9612 87.1157 18.5815 87.1991 19.0167H85.5972L85.4676 18.2389H85.4213C85.0046 18.7852 84.2639 19.1741 83.338 19.1741C81.9213 19.1741 81.125 18.1463 81.125 17.0815C81.125 15.3223 82.6991 14.4056 85.3009 14.4241V14.313C85.3009 13.85 85.1157 13.0815 83.8657 13.0815C83.1713 13.0815 82.4491 13.2945 81.9769 13.6L81.6343 12.4426C82.1528 12.1278 83.0694 11.8223 84.1806 11.8223C86.4398 11.8223 87.088 13.2575 87.088 14.8037V17.3223ZM85.3565 15.5723C84.0972 15.5537 82.9028 15.8223 82.9028 16.8871C82.9028 17.5815 83.3472 17.8963 83.912 17.8963C84.6343 17.8963 85.1435 17.4334 85.3102 16.9241C85.3565 16.7945 85.3565 16.6649 85.3565 16.5352V15.5723Z" fill="black"/>
<path d="M90.4893 10.9611C89.8967 10.9611 89.5078 10.5259 89.5078 10.0074C89.5078 9.46108 89.9152 9.03516 90.5078 9.03516C91.1189 9.03516 91.4893 9.45182 91.5078 10.0074C91.5078 10.5259 91.1189 10.9611 90.5078 10.9611H90.4893ZM89.6097 19.0166V11.9796H91.3874V19.0166H89.6097Z" fill="black"/>
<path d="M93.9453 8.73828H95.7231V19.0161H93.9453V8.73828Z" fill="black"/>
<path d="M103.76 17.3223C103.76 17.9612 103.788 18.5815 103.871 19.0167H102.269L102.139 18.2389H102.093C101.677 18.7852 100.936 19.1741 100.01 19.1741C98.5932 19.1741 97.7969 18.1463 97.7969 17.0815C97.7969 15.3223 99.3709 14.4056 101.973 14.4241V14.313C101.973 13.85 101.788 13.0815 100.547 13.0815C99.8524 13.0815 99.1302 13.2945 98.658 13.6L98.3154 12.4426C98.8339 12.1278 99.7506 11.8223 100.862 11.8223C103.112 11.8223 103.769 13.2575 103.769 14.8037V17.3223H103.76ZM102.019 15.5723C100.76 15.5537 99.5654 15.8223 99.5654 16.8871C99.5654 17.5815 100.01 17.8963 100.575 17.8963C101.297 17.8963 101.806 17.4334 101.973 16.9241C102.019 16.7945 102.019 16.6649 102.019 16.5352V15.5723Z" fill="black"/>
<path d="M106.266 8.73828H108.044V12.942H108.072C108.507 12.2661 109.276 11.8124 110.331 11.8124C112.054 11.8124 113.276 13.2475 113.267 15.3864C113.267 17.9142 111.665 19.1735 110.072 19.1735C109.165 19.1735 108.35 18.8216 107.85 17.9605H107.822L107.729 19.0161H106.211C106.239 18.5346 106.266 17.7568 106.266 17.0531V8.73828ZM108.044 16.1087C108.044 16.2568 108.063 16.3957 108.091 16.5253C108.276 17.2475 108.896 17.7661 109.665 17.7661C110.776 17.7661 111.461 16.8864 111.461 15.4512C111.461 14.2105 110.868 13.192 109.683 13.192C108.961 13.192 108.294 13.7105 108.109 14.4883C108.081 14.6179 108.054 14.7753 108.054 14.9512V16.1087H108.044Z" fill="black"/>
<path d="M115.359 8.73828H117.137V19.0161H115.359V8.73828Z" fill="black"/>
<path d="M120.962 15.9884C121.008 17.2569 121.999 17.8125 123.128 17.8125C123.952 17.8125 124.526 17.6829 125.082 17.4977L125.341 18.7106C124.73 18.9699 123.897 19.1551 122.887 19.1551C120.6 19.1551 119.258 17.7569 119.258 15.5995C119.258 13.6458 120.443 11.8125 122.702 11.8125C124.989 11.8125 125.739 13.6921 125.739 15.2384C125.739 15.5718 125.712 15.831 125.684 15.9884H120.962ZM124.054 14.7477C124.073 14.0995 123.776 13.0255 122.591 13.0255C121.489 13.0255 121.026 14.0255 120.962 14.7477H124.054Z" fill="black"/>
<path d="M134.504 19.1736C132.523 19.1736 130.977 17.8125 130.977 15.544C130.977 13.2292 132.495 11.8125 134.615 11.8125C136.708 11.8125 138.115 13.2847 138.115 15.4236C138.115 18.0069 136.291 19.1644 134.514 19.1644H134.504V19.1736ZM134.56 17.8866C135.569 17.8866 136.282 16.9051 136.282 15.4699C136.282 14.3681 135.791 13.0995 134.578 13.0995C133.319 13.0995 132.81 14.331 132.81 15.4977C132.81 16.8588 133.486 17.8866 134.541 17.8866H134.56Z" fill="black"/>
<path d="M140.212 14.0723C140.212 13.2667 140.184 12.5815 140.156 11.9797H141.703L141.786 13.0352H141.832C142.147 12.4889 142.916 11.8223 144.091 11.8223C145.323 11.8223 146.591 12.6186 146.591 14.8408V19.0167H144.814V15.0352C144.814 14.026 144.434 13.2575 143.471 13.2575C142.767 13.2575 142.277 13.7667 142.082 14.2945C142.027 14.4426 141.999 14.6556 141.999 14.8593V19.0167H140.221V14.0723H140.212Z" fill="black"/>
<path d="M154.773 10.1641V11.9696H156.468V13.303H154.773V16.3955C154.773 17.2659 155.005 17.6918 155.681 17.6918C155.996 17.6918 156.172 17.6733 156.375 17.6178L156.403 18.9604C156.144 19.0622 155.662 19.1455 155.116 19.1455C154.449 19.1455 153.922 18.9326 153.588 18.5715C153.199 18.1641 153.023 17.5159 153.023 16.59V13.2937H152.023V11.9604H153.023V10.6455L154.773 10.1641Z" fill="black"/>
<path d="M158.447 8.73828H160.225V12.9327H160.252C160.465 12.5994 160.771 12.3216 161.132 12.1364C161.493 11.9327 161.91 11.8216 162.363 11.8216C163.558 11.8216 164.817 12.6179 164.817 14.8679V19.0161H163.039V15.0531C163.039 14.0438 162.66 13.2568 161.678 13.2568C160.984 13.2568 160.493 13.7198 160.289 14.2568C160.234 14.4142 160.215 14.6087 160.215 14.7938V19.0161H158.438V8.73828H158.447Z" fill="black"/>
<path d="M168.602 15.9884C168.648 17.2569 169.639 17.8125 170.769 17.8125C171.593 17.8125 172.167 17.6829 172.723 17.4977L172.982 18.7106C172.371 18.9699 171.537 19.1551 170.528 19.1551C168.241 19.1551 166.898 17.7569 166.898 15.5995C166.898 13.6458 168.084 11.8125 170.343 11.8125C172.63 11.8125 173.38 13.6921 173.38 15.2384C173.38 15.5718 173.352 15.831 173.324 15.9884H168.602ZM171.695 14.7477C171.713 14.0995 171.417 13.0255 170.232 13.0255C169.13 13.0255 168.667 14.0255 168.602 14.7477H171.695Z" fill="black"/>
<path d="M44.2159 28.4609C44.1696 23.6368 48.1604 21.2942 48.3455 21.1831C46.0863 17.8868 42.577 17.4331 41.3455 17.3961C38.4011 17.0905 35.5492 19.1553 34.0492 19.1553C32.5215 19.1553 30.2066 17.4239 27.7252 17.4702C24.5215 17.5257 21.5307 19.3776 19.8826 22.2479C16.4937 28.1183 19.0215 36.7387 22.2715 41.4887C23.9011 43.8128 25.7992 46.4053 28.2807 46.3128C30.7066 46.2109 31.6141 44.7665 34.5492 44.7665C37.4566 44.7665 38.3085 46.3127 40.8455 46.2572C43.4566 46.2109 45.0955 43.9239 46.6604 41.5813C48.54 38.9146 49.29 36.2942 49.327 36.1646C49.2715 36.1553 44.2715 34.2387 44.2159 28.4609Z" fill="black"/>
<path d="M39.4308 14.2844C40.7364 12.6455 41.6345 10.4233 41.3845 8.16406C39.4956 8.2474 37.1252 9.46962 35.7641 11.0715C34.5604 12.4789 33.4771 14.7937 33.7549 16.9604C35.8938 17.1178 38.0697 15.8863 39.4308 14.2844Z" fill="black"/>
<path d="M79.3516 45.9417H75.9627L74.1108 40.1084H67.6664L65.8979 45.9417H62.6016L68.9905 26.0898H72.9349L79.3516 45.9417ZM73.5553 37.6639L71.8793 32.4787C71.7034 31.951 71.3701 30.701 70.8793 28.738H70.8238C70.6293 29.5806 70.3145 30.8306 69.8793 32.4787L68.2312 37.6639H73.5553Z" fill="black"/>
<path d="M95.787 38.6079C95.787 41.043 95.1296 42.969 93.8148 44.3764C92.6389 45.6356 91.1759 46.256 89.4259 46.256C87.537 46.256 86.1852 45.5801 85.3611 44.2282H85.3056V51.7653H82.1204V36.3393C82.1204 34.8116 82.0833 33.2375 82 31.6264H84.7963L84.9722 33.8949H85.037C86.0926 32.1819 87.7037 31.3301 89.8704 31.3301C91.5556 31.3301 92.9722 31.9967 94.0926 33.3301C95.2222 34.6727 95.787 36.4319 95.787 38.6079ZM92.5463 38.7282C92.5463 37.3393 92.2315 36.1819 91.6018 35.2838C90.9167 34.3393 89.9907 33.8671 88.8333 33.8671C88.0463 33.8671 87.3333 34.1264 86.6944 34.6449C86.0556 35.1727 85.6389 35.8486 85.4444 36.6912C85.3426 37.0801 85.2963 37.4042 85.2963 37.6634V40.0523C85.2963 41.0893 85.6111 41.969 86.25 42.6819C86.8889 43.4042 87.7222 43.756 88.7407 43.756C89.9352 43.756 90.8704 43.3023 91.537 42.3764C92.213 41.4597 92.5463 40.2375 92.5463 38.7282Z" fill="black"/>
<path d="M112.247 38.6079C112.247 41.043 111.589 42.969 110.274 44.3764C109.098 45.6356 107.635 46.256 105.885 46.256C104.006 46.256 102.645 45.5801 101.821 44.2282H101.765V51.7653H98.5891V36.3393C98.5891 34.8116 98.5521 33.2375 98.4688 31.6264H101.265L101.441 33.8949H101.506C102.561 32.1819 104.172 31.3301 106.33 31.3301C108.015 31.3301 109.422 31.9967 110.552 33.3301C111.682 34.6727 112.247 36.4319 112.247 38.6079ZM109.006 38.7282C109.006 37.3393 108.691 36.1819 108.061 35.2838C107.376 34.3393 106.45 33.8671 105.293 33.8671C104.506 33.8671 103.793 34.1264 103.154 34.6449C102.515 35.1727 102.098 35.8486 101.904 36.6912C101.802 37.0801 101.756 37.4042 101.756 37.6634V40.0523C101.756 41.0893 102.071 41.969 102.709 42.6819C103.348 43.4042 104.172 43.756 105.2 43.756C106.395 43.756 107.33 43.3023 107.997 42.3764C108.672 41.4597 109.006 40.2375 109.006 38.7282Z" fill="black"/>
<path d="M130.66 40.3773C130.66 42.0625 130.077 43.4421 128.891 44.4977C127.595 45.6551 125.799 46.2384 123.484 46.2384C121.345 46.2384 119.632 45.831 118.336 45.0069L119.077 42.3588C120.475 43.2014 122.003 43.6273 123.679 43.6273C124.873 43.6273 125.808 43.3588 126.475 42.8218C127.141 42.2755 127.475 41.5532 127.475 40.6551C127.475 39.8495 127.197 39.1736 126.651 38.6181C126.104 38.0625 125.188 37.5532 123.91 37.081C120.438 35.7847 118.697 33.8866 118.697 31.3866C118.697 29.7569 119.308 28.4144 120.521 27.3773C121.734 26.331 123.354 25.8125 125.382 25.8125C127.188 25.8125 128.688 26.1273 129.882 26.7569L129.086 29.3495C127.966 28.7384 126.697 28.4329 125.28 28.4329C124.16 28.4329 123.29 28.7106 122.66 29.2569C122.132 29.7477 121.864 30.3495 121.864 31.0532C121.864 31.8403 122.169 32.4884 122.771 32.9977C123.299 33.4699 124.262 33.9792 125.66 34.5347C127.364 35.2199 128.623 36.0255 129.429 36.9514C130.253 37.8588 130.66 39.0069 130.66 40.3773Z" fill="black"/>
<path d="M141.168 34.0162H137.668V40.9699C137.668 42.7384 138.288 43.6181 139.529 43.6181C140.093 43.6181 140.566 43.5718 140.936 43.4699L141.019 45.8866C140.399 46.1181 139.566 46.2384 138.547 46.2384C137.288 46.2384 136.306 45.8588 135.603 45.0903C134.899 44.3218 134.538 43.0347 134.538 41.2292V34.0162H132.445V31.6273H134.538V29.0069L137.658 28.0625V31.6273H141.158V34.0162H141.168Z" fill="black"/>
<path d="M156.978 38.6732C156.978 40.8769 156.348 42.6824 155.098 44.0898C153.784 45.5435 152.034 46.2658 149.858 46.2658C147.756 46.2658 146.08 45.5713 144.839 44.1732C143.589 42.7843 142.969 41.025 142.969 38.9047C142.969 36.6824 143.608 34.8676 144.895 33.4602C146.182 32.0435 147.913 31.3398 150.089 31.3398C152.191 31.3398 153.876 32.0343 155.154 33.4324C156.376 34.7843 156.978 36.525 156.978 38.6732ZM153.682 38.775C153.682 37.4602 153.395 36.3213 152.83 35.3769C152.163 34.238 151.209 33.6639 149.978 33.6639C148.7 33.6639 147.728 34.238 147.061 35.3769C146.487 36.3213 146.209 37.4695 146.209 38.8306C146.209 40.1454 146.487 41.2843 147.061 42.2287C147.747 43.3676 148.709 43.9417 149.95 43.9417C151.163 43.9417 152.117 43.3584 152.802 42.201C153.385 41.238 153.682 40.0898 153.682 38.775Z" fill="black"/>
<path d="M167.314 34.4227C166.999 34.3671 166.666 34.3393 166.314 34.3393C165.193 34.3393 164.332 34.7653 163.721 35.6079C163.193 36.3579 162.925 37.293 162.925 38.4319V45.9412H159.749L159.777 36.1356C159.777 34.4875 159.74 32.9875 159.656 31.6264H162.425L162.545 34.3671H162.628C162.962 33.4227 163.499 32.6634 164.221 32.0986C164.925 31.5893 165.693 31.3301 166.517 31.3301C166.814 31.3301 167.073 31.3486 167.314 31.3856V34.4227Z" fill="black"/>
<path d="M181.533 38.1088C181.533 38.6829 181.496 39.1551 181.422 39.5532H171.885C171.922 40.9699 172.385 42.044 173.265 42.794C174.07 43.4606 175.107 43.794 176.385 43.794C177.793 43.794 179.08 43.5718 180.246 43.1181L180.746 45.331C179.394 45.9236 177.793 46.2199 175.941 46.2199C173.728 46.2199 171.978 45.5625 170.718 44.2569C169.459 42.9514 168.82 41.2014 168.82 38.9977C168.82 36.8403 169.413 35.044 170.589 33.6088C171.82 32.081 173.496 31.3125 175.589 31.3125C177.654 31.3125 179.218 32.081 180.274 33.6088C181.117 34.8218 181.533 36.3218 181.533 38.1088ZM178.505 37.2847C178.524 36.3403 178.32 35.5255 177.885 34.8403C177.339 33.9606 176.487 33.5162 175.348 33.5162C174.311 33.5162 173.468 33.9514 172.82 34.8125C172.293 35.4977 171.978 36.3218 171.885 37.2847H178.505Z" fill="black"/>
</svg>
